<svg xmlns="http://www.w3.org/2000/svg" viewBox="0 0 251.47 134.84"><defs><style>.cls-1{fill:#3d4147}</style></defs><g><path d="M24.73 22.46v9.51h-3.1c-.25-1.9-.55-2.9-1.15-3.96-1.15-1.85-3.6-3-6.41-3-6.26 0-9.81 5.21-9.81 14.37S7.71 53.5 13.57 53.5c3.2 0 5.91-1.7 7.11-4.41.6-1.35.85-2.45 1-4.51h3.2c0 7.56-4.3 12.06-11.51 12.06C4.96 56.64.01 50.23.01 39.37s5.26-17.52 13.52-17.52c3.4 0 5.96 1 8.21 3.25v-2.65h3ZM32.99 39.07c0 9.21 3.4 14.47 9.46 14.47s9.41-5.26 9.41-14.32-3.45-14.27-9.46-14.27-9.41 5.26-9.41 14.12m23.07.16c0 10.61-5.31 17.42-13.62 17.42s-13.67-6.76-13.67-17.62c0-4.96 1.4-9.61 3.8-12.66 2.25-2.85 5.91-4.51 9.86-4.51 8.31 0 13.62 6.76 13.62 17.37M68.32 22.56l7.31 13.12 3.7 6.91c1.1 2.1 1.1 2.15 3.6 6.96l-.05-6.41c-.05-5.06-.05-5.11-.05-6.11V25.57h-4.15v-3h11.41v3h-4.15v30.38h-3.36l-7.91-14.17-8.06-15.12c.05 2.8.2 11.71.2 13.62v12.67h4.15v3H59.5v-3h4.15V25.57H59.5v-3h8.81ZM116.13 22.56v8.1h-3.06v-5.05h-7.1v27.33h4.15v3H97.96v-3h4.15V25.61h-7.06v5.05H92v-8.1h24.13zM133.59 35.17c-.85-2.9-1.4-4.91-2.5-8.86-1 3.45-1 3.5-1.3 4.46-.45 1.45-.9 2.9-1.4 4.41l-2.45 7.21h9.86l-2.2-7.21Zm-.25-12.96L143 52.95h4.25v3h-12.01v-3h3.75l-2.35-7.51h-11.66l-2.4 7.51h3.65v3h-10.86v-3h3.9l10.36-30.74h3.7ZM161.42 22.56v3h-4.16v27.38h4.16v3h-12.31v-3h4.15V25.56h-4.15v-3h12.31zM173.18 22.56l7.31 13.12 3.7 6.91c1.1 2.1 1.1 2.15 3.61 6.96l-.05-6.41c-.05-5.06-.05-5.11-.05-6.11V25.57h-4.15v-3h11.41v3h-4.15v30.38h-3.36l-7.91-14.17-8.06-15.12c.05 2.8.2 11.71.2 13.62v12.67h4.16v3h-11.46v-3h4.15V25.57h-4.15v-3h8.81ZM216.93 30.21v-4.65h-11.16v11.41h11.56v3.06h-11.56v12.86h11.51v-5.41h3.05v8.46h-22.62v-3h4.15V25.56h-4.15v-3h22.27v7.65h-3.05zM235.45 37.57c3.8 0 4.91-.15 6.21-.95 1.7-.95 2.6-2.75 2.6-5.11 0-2.55-1.1-4.41-3.15-5.31-1.15-.45-2.35-.6-5.96-.6h-3.75v11.96h4.05Zm-1.6-15.01c6.41 0 7.86.15 9.86 1.15 3.05 1.5 4.71 4.2 4.71 7.71 0 4.55-2.7 7.96-6.96 8.81l6.26 12.72h3.75v3h-6.86l-6.96-15.27h-6.31v12.26h4v3h-12.01v-3h4.15V25.56h-4.15v-3h10.51Z" class="cls-1"/><path d="M85.79 81.35c.44-.42.82-.99 1.15-1.71.33-.72.58-1.54.76-2.47.18-.93.27-1.91.27-2.96v-5.67c-.23-.1-.55-.19-.95-.27-.41-.08-.76-.12-1.05-.12-.78 0-1.43.17-1.96.51-.52.34-.94.82-1.25 1.42-.31.6-.53 1.33-.66 2.18-.13.85-.2 1.76-.2 2.74 0 .91.02 1.79.05 2.62.03.83.14 1.57.32 2.22.18.65.43 1.17.76 1.57.33.39.78.59 1.37.59.49 0 .95-.21 1.39-.64m6.38 6.39-.29-.34c-.2-.2-.42-.51-.68-.93-.26-.42-.52-.94-.78-1.54-.26-.6-.46-1.3-.59-2.08-.56 1.53-1.37 2.71-2.44 3.55-1.08.83-2.49 1.25-4.25 1.25-1.6 0-2.99-.29-4.18-.88A8.062 8.062 0 0 1 76 84.31c-.78-1.06-1.36-2.34-1.73-3.84-.37-1.5-.56-3.16-.56-4.99s.3-3.59.9-5.18c.6-1.6 1.44-2.98 2.52-4.13 1.08-1.16 2.36-2.06 3.86-2.71 1.5-.65 3.16-.98 4.99-.98.29 0 .61.02.95.05.34.03.69.06 1.05.1V51.97l7.73 1.27v22.35c0 1.92.14 3.54.42 4.84.28 1.3.58 2.36.91 3.15.32.8.64 1.36.93 1.69l.44.54-6.21 1.96ZM112.39 81.35c.44-.42.82-.99 1.15-1.71.33-.72.58-1.54.76-2.47.18-.93.27-1.91.27-2.96v-5.67c-.23-.1-.55-.19-.95-.27-.41-.08-.76-.12-1.05-.12-.78 0-1.44.17-1.96.51-.52.34-.94.81-1.25 1.42-.31.6-.53 1.33-.66 2.18-.13.85-.2 1.76-.2 2.74 0 .91.02 1.79.05 2.62.03.83.14 1.57.32 2.22.18.65.43 1.17.76 1.56.33.39.78.59 1.37.59.49 0 .95-.21 1.39-.64m9.9-5.77c0 1.96.13 3.59.39 4.89.26 1.3.57 2.35.93 3.13.39.95.85 1.68 1.37 2.2l-6.21 1.96c-.36-.33-.68-.73-.98-1.22-.26-.42-.51-.94-.76-1.54-.25-.6-.45-1.31-.61-2.13-.56 1.53-1.37 2.71-2.44 3.55-1.08.83-2.49 1.25-4.25 1.25-1.6 0-2.99-.29-4.18-.88a8.062 8.062 0 0 1-2.96-2.47c-.78-1.06-1.36-2.34-1.73-3.84-.38-1.5-.56-3.16-.56-4.99s.3-3.58.9-5.18c.6-1.6 1.44-2.98 2.52-4.13 1.08-1.16 2.36-2.06 3.86-2.71 1.5-.65 3.16-.98 4.99-.98 1.01 0 2.08.07 3.23.22a56.586 56.586 0 0 1 5.5.98c.64.15.97.22 1 .22V75.6ZM149.14 76.07c0 1.04.09 2.01.27 2.91.18.9.38 1.78.61 2.64.23.87.44 1.75.64 2.67.2.91.29 1.89.29 2.93 0 3.42-.96 6.06-2.88 7.9-1.92 1.84-4.55 2.76-7.87 2.76-1.5 0-3.06-.18-4.69-.54-1.63-.36-3.23-.86-4.79-1.52l1.81-5.96c1.43.49 2.69.87 3.76 1.15 1.08.28 2.22.42 3.42.42 1.3 0 2.35-.38 3.15-1.13s1.2-1.83 1.2-3.23c0-.65-.05-1.25-.15-1.78-.1-.54-.28-1.13-.54-1.79-.85 1.47-2.01 2.53-3.47 3.18s-3.05.98-4.74.98c-1.27 0-2.36-.2-3.25-.61a5.77 5.77 0 0 1-2.2-1.71c-.57-.73-.98-1.62-1.22-2.67-.24-1.04-.37-2.22-.37-3.52V62.82h7.77v15.3c0 1.14.14 2.06.42 2.76.28.7.79 1.05 1.54 1.05.42 0 .85-.15 1.3-.46.44-.31.84-.75 1.2-1.32.36-.57.65-1.26.88-2.08.23-.81.34-1.73.34-2.74V62.81h7.77l-.2 13.25ZM162.68 62.38c1.24 0 2.39.11 3.45.32 1.06.21 2 .45 2.81.71.94.33 1.81.67 2.59 1.03l-2.44 5.48c-.26-.13-.6-.29-1-.49-.41-.2-.85-.39-1.32-.59a10 10 0 0 0-1.49-.49 6.29 6.29 0 0 0-1.52-.2c-.52 0-.96.11-1.32.34-.36.23-.54.59-.54 1.08 0 .52.33 1.03 1 1.54.67.51 1.56.99 2.66 1.44 1.96.82 3.46 1.79 4.52 2.91 1.06 1.12 1.59 2.63 1.59 4.52 0 1.04-.19 2.05-.56 3.01-.38.96-.93 1.8-1.66 2.52-.73.72-1.65 1.29-2.76 1.71-1.11.42-2.38.64-3.81.64-1.14 0-2.21-.08-3.2-.24-.99-.16-1.91-.37-2.74-.61-.83-.25-1.57-.49-2.22-.73-.65-.24-1.17-.46-1.56-.66L155.7 80c.16.07.45.21.86.44s.88.46 1.42.68c.54.23 1.11.43 1.71.61.6.18 1.18.27 1.73.27.68 0 1.25-.13 1.69-.39.44-.26.66-.65.66-1.17 0-.62-.27-1.17-.81-1.66s-1.23-.9-2.08-1.22c-2.44-.98-4.2-2.08-5.26-3.3-1.06-1.22-1.59-2.75-1.59-4.57 0-1.04.2-2 .59-2.88.39-.88.96-1.65 1.71-2.3.75-.65 1.65-1.16 2.71-1.54 1.06-.37 2.27-.56 3.64-.56M161.44 109.66c-1.3 0-2.16.46-2.56 1.38-.41.92-.61 2.43-.61 4.52s.2 3.6.61 4.52c.41.92 1.25 1.38 2.55 1.38s2.13-.46 2.53-1.37c.39-.91.59-2.43.59-4.56s-.19-3.64-.57-4.54c-.38-.9-1.22-1.35-2.53-1.35ZM81.65 109.66c-1.3 0-2.16.46-2.56 1.38-.41.92-.61 2.43-.61 4.52s.2 3.6.61 4.52c.41.92 1.25 1.38 2.55 1.38s2.13-.46 2.53-1.37c.39-.91.59-2.43.59-4.56s-.19-3.64-.57-4.54c-.38-.9-1.22-1.35-2.53-1.35ZM134.24 110.18h-1.51v10.78h1.51c1.28 0 2.23-.32 2.84-.96.59-.64.89-2.07.89-4.28s-.23-3.69-.68-4.43c-.46-.74-1.47-1.11-3.04-1.11Z" class="cls-1"/><path d="M148.21 96.31c-2.06 1.58-4.73 2.37-7.99 2.37-1.68 0-3.44-.2-5.27-.6-1.83-.4-3.63-.97-5.38-1.7l.02-.06H39.16v38.53h172.19V96.32h-63.14Zm-80.73 31.62H50.87V103.2h8.56v17.75h8.05v6.98Zm23.1-2.56c-1.87 2.03-4.85 3.04-8.95 3.04s-7.08-1.02-8.97-3.06c-1.88-2.04-2.82-5.31-2.82-9.8s.94-7.75 2.8-9.78c1.87-2.03 4.86-3.04 8.97-3.04s7.1 1.01 8.97 3.04c1.87 2.03 2.8 5.3 2.8 9.8s-.94 7.77-2.8 9.8Zm29.52 2.56h-8.45l-5.61-10.08h-.55v10.08h-8.56V103.2h8.41l5.68 9.37h.52v-9.37h8.56v24.73Zm23.81-3.16c-1.8 2.1-4.77 3.16-8.93 3.16h-10.81V103.2h10.44c4.26 0 7.32.96 9.19 2.88 1.87 1.92 2.8 4.99 2.8 9.21s-.9 7.38-2.69 9.48Zm26.46.6c-1.87 2.03-4.85 3.04-8.95 3.04s-7.09-1.02-8.97-3.06c-1.88-2.04-2.82-5.31-2.82-9.8s.94-7.75 2.8-9.78c1.87-2.03 4.86-3.04 8.97-3.04s7.1 1.01 8.97 3.04c1.87 2.03 2.8 5.3 2.8 9.8s-.94 7.77-2.8 9.8Zm29.52 2.56h-8.45l-5.61-10.08h-.55v10.08h-8.56V103.2h8.41l5.68 9.37h.52v-9.37h8.56v24.73ZM57.11 12.92V0h8.25v2.28h-5.62v3.8h4.6v2.28h-4.6v4.56h-2.62ZM67.2 12.92V0h8.36v2.28h-5.74V5.3h4.6v2.24h-4.6v3.1h5.74v2.28H67.2ZM77.73 0h5.07c1.34 0 2.35.27 3.02.81s1.01 1.41 1.01 2.61c0 .72-.11 1.3-.32 1.72-.22.42-.58.8-1.1 1.13.57.24.99.59 1.26 1.04.27.46.41 1.09.41 1.9 0 1.25-.37 2.19-1.1 2.79-.73.61-1.77.91-3.1.91h-5.15V0Zm4.94 2.24h-2.32v3.08h2.34c.99 0 1.48-.51 1.48-1.54s-.5-1.54-1.5-1.54Zm.07 5.28h-2.39v3.15h2.39c.57 0 .99-.11 1.26-.34.27-.23.41-.65.41-1.25 0-1.04-.56-1.56-1.67-1.56ZM100.01.38v12.54h-2.62V3.34l-2.72 1.75-1.2-1.96L97.61.38H100ZM108.88.38v12.54h-2.62V3.34l-2.72 1.75-1.2-1.96 4.14-2.75h2.39ZM113.48 6.78h9.5v2.17h-9.5V6.78ZM132.35.38v12.54h-2.62V3.34l-2.72 1.75-1.2-1.96 4.14-2.75h2.39ZM143.48 12.92h-8.13V10.7l2.68-2.72c.95-.98 1.61-1.72 1.99-2.24.37-.52.56-1.07.56-1.66s-.16-1-.47-1.24-.75-.36-1.32-.36c-.85 0-1.77.08-2.77.23l-.46.06-.13-2.03c1.24-.38 2.53-.57 3.86-.57 2.66 0 3.99 1.2 3.99 3.59 0 .94-.2 1.75-.61 2.43s-1.14 1.51-2.2 2.49l-2.18 1.98h5.21v2.28ZM145.14 15.26l.95-4.94h2.81l-1.71 4.94h-2.05ZM162.71 12.92h-8.13V10.7l2.68-2.72c.95-.98 1.61-1.72 1.99-2.24.37-.52.56-1.07.56-1.66s-.16-1-.47-1.24-.75-.36-1.32-.36c-.85 0-1.77.08-2.77.23l-.46.06-.13-2.03c1.24-.38 2.53-.57 3.86-.57 2.66 0 3.99 1.2 3.99 3.59 0 .94-.2 1.75-.61 2.43s-1.14 1.51-2.2 2.49l-2.18 1.98h5.21v2.28ZM165.67 1.71c.82-1.04 2.03-1.56 3.64-1.56s2.82.52 3.64 1.56c.82 1.04 1.22 2.71 1.22 5.01s-.41 3.95-1.22 4.94c-.81.99-2.03 1.49-3.65 1.49s-2.84-.5-3.65-1.49-1.22-2.64-1.22-4.94.41-3.97 1.23-5.01Zm5.8 4.95c0-1.56-.17-2.66-.49-3.29-.33-.63-.88-.94-1.66-.94s-1.34.32-1.67.95c-.34.63-.5 1.73-.5 3.29s.17 2.65.51 3.27.9.93 1.67.93 1.32-.31 1.65-.93c.33-.62.49-1.71.49-3.28ZM183.92 12.92h-8.13V10.7l2.68-2.72c.95-.98 1.61-1.72 1.99-2.24.37-.52.56-1.07.56-1.66s-.16-1-.47-1.24-.75-.36-1.32-.36c-.85 0-1.77.08-2.77.23l-.46.06-.13-2.03c1.24-.38 2.53-.57 3.86-.57 2.66 0 3.99 1.2 3.99 3.59 0 .94-.2 1.75-.61 2.43s-1.14 1.51-2.2 2.49l-2.18 1.98h5.21v2.28ZM194.56 2.72c-1.29-.19-2.41-.28-3.36-.28-1.8 0-2.7.98-2.7 2.93l.4-.11c.84-.24 1.5-.36 2-.36 1.43 0 2.51.33 3.23.99.72.66 1.08 1.68 1.08 3.07s-.41 2.44-1.22 3.14-1.99 1.06-3.52 1.06-2.7-.56-3.49-1.68-1.18-2.77-1.18-4.95.45-3.78 1.35-4.82c.9-1.03 2.19-1.55 3.88-1.55.99 0 2.05.14 3.17.42l.59.13-.23 2.01Zm-3.9 4.44c-.6 0-1.22.11-1.86.32l-.32.1c0 2.19.71 3.29 2.13 3.29.61 0 1.08-.17 1.41-.5.33-.34.49-.81.49-1.42 0-1.19-.61-1.79-1.84-1.79Z" class="cls-1"/></g></svg>
