<svg viewBox="0 0 253 102" xmlns="http://www.w3.org/2000/svg"><g fill-rule="nonzero" fill="none"><path d="M25.3 25.15v9.53h-3.11c-.25-1.91-.55-2.91-1.15-3.96-1.15-1.86-3.61-3.01-6.42-3.01-6.27 0-9.83 5.22-9.83 14.4 0 8.93 3.46 14.15 9.33 14.15 3.21 0 5.92-1.71 7.12-4.41.6-1.35.85-2.46 1-4.52h3.21c0 7.57-4.31 12.09-11.54 12.09C5.48 59.42.52 53 .52 42.11c0-10.79 5.27-17.56 13.54-17.56 3.41 0 5.97 1 8.23 3.26v-2.66h3.01zm31.4 16.81c0 10.64-5.32 17.46-13.64 17.46-8.48 0-13.7-6.77-13.7-17.66 0-4.97 1.4-9.63 3.81-12.69 2.26-2.86 5.92-4.52 9.88-4.52 8.33 0 13.65 6.77 13.65 17.41zm-23.12-.15c0 9.23 3.41 14.5 9.48 14.5 5.97 0 9.43-5.27 9.43-14.35 0-9.03-3.46-14.3-9.48-14.3-5.92 0-9.43 5.27-9.43 14.15zm35.41-16.56l7.32 13.14 3.71 6.92c1.1 2.11 1.1 2.16 3.61 6.97l-.05-6.42c-.05-5.07-.05-5.12-.05-6.12V28.26h-4.16v-3.01h11.44v3.01h-4.16v30.45h-3.36l-7.93-14.2-8.08-15.15c.05 2.81.2 11.74.2 13.64v12.7h4.16v3.01H60.15V55.7h4.16V28.26h-4.16v-3.01h8.84zm47.91 0v8.13h-3.06v-5.07h-7.13V55.7h4.17v3.01H98.69V55.7h4.16V28.31h-7.07v5.07h-3.06v-8.13h24.18zm17.24-.35l9.68 30.8h4.26v3.01h-12.04V55.7h3.76l-2.36-7.53h-11.69l-2.41 7.53H127v3.01h-10.89V55.7h3.91l10.38-30.8h3.74zm.25 12.99c-.85-2.91-1.4-4.92-2.51-8.88-1 3.46-1 3.51-1.3 4.46-.45 1.45-.9 2.91-1.41 4.41l-2.46 7.22h9.88l-2.2-7.21zm27.89-12.64v3.01h-4.16V55.7h4.16v3.01h-12.34V55.7h4.17V28.26h-4.17v-3.01h12.34zm11.79 0l7.32 13.14 3.71 6.92c1.1 2.11 1.1 2.16 3.61 6.97l-.05-6.42c-.05-5.07-.05-5.12-.05-6.12V28.26h-4.16v-3.01h11.44v3.01h-4.16v30.45h-3.36l-7.93-14.2-8.08-15.15c.05 2.81.2 11.74.2 13.64v12.7h4.16v3.01h-11.49V55.7h4.16V28.26h-4.16v-3.01h8.84zm43.84 7.68v-4.67h-11.18V39.7h11.58v3.06h-11.58v12.89h11.53v-5.41h3.06v8.47h-22.67V55.7h4.16V28.26h-4.16v-3.01h22.32v7.68h-3.06zm16.96-7.68c6.42 0 7.88.15 9.88 1.15 3.06 1.5 4.72 4.21 4.72 7.73 0 4.56-2.71 7.98-6.97 8.83l6.27 12.74h3.76v3.01h-6.87l-6.97-15.3h-6.32V55.7h4.01v3.01h-12.04V55.7h4.16V28.26h-4.16v-3.01h10.53zm1.6 15.05c3.81 0 4.92-.15 6.22-.95 1.71-.95 2.61-2.76 2.61-5.12 0-2.56-1.1-4.41-3.16-5.32-1.15-.45-2.36-.6-5.97-.6h-3.76V40.3h4.06z" fill="#3C4146"/><path d="M92.92 91.26c-.05-.05-1.81-1.75-2.41-5.01-1.1 3.11-3.26 4.92-6.87 4.92-6.57 0-9.68-4.97-9.68-12.49 0-7.68 5.12-13.34 12.59-13.34.6 0 1.35.1 2.06.15V54.54l7.93 1.31v22.93c0 7.93 2.71 10.43 2.76 10.48l-6.38 2zm-4.31-13.9v-5.82c-.45-.2-1.46-.4-2.06-.4-3.26 0-4.16 2.96-4.16 7.02 0 3.71.15 7.18 2.56 7.18 2.05 0 3.66-3.76 3.66-7.98zm35.21 1.41c0 7.93 2.76 10.48 2.76 10.48l-6.37 2.01s-1.81-1.7-2.41-5.01c-1.1 3.11-3.26 4.92-6.87 4.92-6.57 0-9.68-4.97-9.68-12.49 0-7.68 5.12-13.34 12.59-13.34 4.16 0 9.88 1.46 9.98 1.46v11.97zm-7.93-1.41v-5.82c-.45-.2-1.46-.4-2.06-.4-3.26 0-4.16 2.96-4.16 7.02 0 3.71.15 7.18 2.56 7.18 2.06 0 3.66-3.76 3.66-7.98zm35.47 1.91c-.05 4.26 1.86 7.12 1.86 11.44 0 6.97-4.26 10.94-11.04 10.94-3.06 0-6.57-.8-9.73-2.11l1.86-6.12c2.96 1 4.92 1.61 7.38 1.61 2.66 0 4.46-1.61 4.46-4.46 0-1.35-.2-2.36-.7-3.66-1.76 2.96-4.97 4.26-8.43 4.26-5.27 0-7.22-3.41-7.22-8.73V65.67h7.98v15.7c0 2.31.45 3.91 2.01 3.91 1.76 0 3.81-2.66 3.81-6.77V65.67h7.98l-.22 13.6zm22.97-11.94l-2.51 5.62c-1.1-.55-3.41-1.81-5.47-1.81-1.05 0-1.91.45-1.91 1.45 0 1.05 1.51 2.11 3.76 3.06 3.96 1.66 6.27 3.76 6.27 7.62 0 4.31-3.11 8.08-9.03 8.08-4.62 0-8.33-1.56-9.98-2.31l2.61-5.77c.65.3 3.61 2.06 5.87 2.06 1.4 0 2.41-.55 2.41-1.61 0-1.25-1.25-2.31-2.96-2.96-5.02-2.01-7.02-4.31-7.02-8.08 0-4.26 3.31-7.47 8.88-7.47 5.02.01 9.08 2.12 9.08 2.12z" fill="#40BBED"/><path d="M94.9 9.67h-5.44v6.13h-2.97V.97h2.97v5.85h5.44V.97h2.97V15.8H94.9V9.67zm14.28 6.13h-2.97V9.46L101.74.97h3.29l2.64 5.18 2.62-5.18h3.29l-4.41 8.51v6.32h.01zM123.15.97c2.69 0 4.56 1.08 4.56 3.76 0 1.94-.45 2.75-1.61 3.48 1.33.58 1.89 1.46 1.89 3.4 0 2.92-1.83 4.19-4.75 4.19h-5.78V.97h5.69zm-2.77 2.73v3.33h2.64c1.16 0 1.66-.6 1.66-1.76 0-1.12-.56-1.57-1.68-1.57h-2.62zm0 6.02v3.35h2.71c1.23 0 1.85-.47 1.85-1.7 0-1.18-.67-1.66-1.85-1.66h-2.71v.01zm18.04 1.29h-2.84v4.79h-2.97V.97h5.68c3.5 0 5.16 1.42 5.16 4.92 0 2.19-.82 3.4-2.15 4.24l2.09 5.68h-3.25l-1.72-4.8zm-.13-7.23h-2.71v4.41h2.75c1.48 0 2.09-.92 2.09-2.26 0-1.42-.71-2.15-2.13-2.15zm9.67-2.81h2.97V15.8h-2.97V.97zm8.13 14.83V.97h4.88c5.09 0 6.21 2.24 6.21 7.14 0 5.03-.97 7.7-6.21 7.7h-4.88v-.01zm4.88-12.02h-1.96v9.2h1.96c2.88 0 3.16-1.83 3.16-4.88 0-3.01-.28-4.32-3.16-4.32z" fill="#1F3D85"/></g></svg>