<svg xmlns="http://www.w3.org/2000/svg" viewBox="0 0 269 136"><g fill="#3C4146" fill-rule="nonzero"><path d="M32.53 22.8v9.53h-3.11c-.25-1.91-.55-2.91-1.15-3.96-1.15-1.86-3.61-3.01-6.42-3.01-6.27 0-9.83 5.22-9.83 14.4s3.46 14.15 9.33 14.15c3.21 0 5.92-1.71 7.12-4.41.6-1.35.85-2.46 1-4.52h3.21c0 7.57-4.31 12.09-11.54 12.09-8.43 0-13.39-6.42-13.39-17.31 0-10.89 5.27-17.56 13.54-17.56 3.41 0 5.97 1 8.23 3.26V22.8h3.01ZM63.93 39.61c0 10.64-5.32 17.46-13.64 17.46s-13.7-6.77-13.7-17.66c0-4.97 1.4-9.63 3.81-12.69 2.26-2.86 5.92-4.52 9.88-4.52 8.33 0 13.64 6.77 13.64 17.41h.01Zm-23.13-.15c0 9.23 3.41 14.5 9.48 14.5s9.43-5.27 9.43-14.35-3.46-14.3-9.48-14.3c-6.02 0-9.43 5.27-9.43 14.15ZM76.22 22.9l7.32 13.14 3.71 6.92c1.1 2.11 1.1 2.16 3.61 6.97l-.05-6.42c-.05-5.07-.05-5.12-.05-6.12V25.9H86.6v-3.01h11.44v3.01h-4.16v30.45h-3.36l-7.93-14.2L74.51 27c.05 2.81.2 11.74.2 13.64v12.69h4.16v3.01H67.38v-3.01h4.16V25.89h-4.16v-3.01h8.83l.01.02ZM124.12 22.9v8.13h-3.06v-5.07h-7.12v27.39h4.16v3.01h-12.19v-3.01h4.16V25.96H103v5.07h-3.06V22.9h24.18zM141.37 22.55l9.68 30.8h4.26v3.01h-12.04v-3.01h3.76l-2.36-7.53h-11.69l-2.41 7.53h3.66v3.01h-10.89v-3.01h3.91l10.38-30.8H141.37Zm.25 12.99c-.85-2.91-1.4-4.92-2.51-8.88-1 3.46-1 3.51-1.3 4.46-.45 1.45-.9 2.91-1.41 4.41l-2.46 7.22h9.88l-2.21-7.22.01.01ZM169.51 22.9v3.01h-4.16v27.44h4.16v3.01h-12.34v-3.01h4.16V25.91h-4.16V22.9h12.34zM181.3 22.9l7.32 13.14 3.71 6.92c1.1 2.11 1.1 2.16 3.61 6.97l-.05-6.42c-.05-5.07-.05-5.12-.05-6.12V25.9h-4.16v-3.01h11.44v3.01h-4.16v30.45h-3.36l-7.93-14.2L179.59 27c.05 2.81.2 11.74.2 13.64v12.69h4.16v3.01h-11.49v-3.01h4.16V25.89h-4.16v-3.01h8.83l.01.02ZM225.14 30.58v-4.67h-11.19v11.44h11.59v3.06h-11.59V53.3h11.54v-5.42h3.06v8.48h-22.68v-3.01h4.17V25.91h-4.17V22.9h22.33v7.68h-3.06zM242.09 22.9c6.42 0 7.88.15 9.88 1.15 3.06 1.5 4.72 4.21 4.72 7.73 0 4.56-2.71 7.98-6.97 8.83l6.27 12.74h3.76v3.01h-6.87l-6.97-15.3h-6.32v12.29h4.01v3.01h-12.04v-3.01h4.16V25.91h-4.16V22.9h10.53Zm1.6 15.05c3.81 0 4.92-.15 6.22-.95 1.71-.95 2.61-2.76 2.61-5.12 0-2.56-1.1-4.41-3.16-5.32-1.15-.45-2.36-.6-5.97-.6h-3.76v11.99h4.06Z"/><path d="m100.12 88.24-.29-.34c-.2-.2-.42-.51-.69-.93-.26-.42-.52-.94-.78-1.54-.26-.6-.46-1.3-.59-2.08-.56 1.54-1.37 2.72-2.45 3.55-1.08.83-2.5 1.25-4.26 1.25-1.6 0-3-.29-4.19-.88a8.062 8.062 0 0 1-2.96-2.47c-.78-1.06-1.36-2.34-1.74-3.85-.38-1.5-.56-3.17-.56-5s.3-3.59.91-5.19c.6-1.6 1.45-2.98 2.52-4.14 1.07-1.16 2.37-2.07 3.87-2.72 1.5-.65 3.17-.98 5-.98.29 0 .61.02.96.05.34.03.69.07 1.05.1V52.39l7.74 1.27v22.39c0 1.93.14 3.54.42 4.85.28 1.31.58 2.36.91 3.16.33.8.64 1.36.93 1.69l.44.54-6.22 1.96-.02-.01Zm-6.39-6.42c.44-.42.82-1 1.15-1.71.33-.72.58-1.54.76-2.47.18-.93.27-1.92.27-2.96V69c-.23-.1-.55-.19-.96-.27-.41-.08-.76-.12-1.05-.12-.78 0-1.44.17-1.96.51-.52.34-.94.82-1.25 1.42-.31.6-.53 1.33-.66 2.18-.13.85-.2 1.76-.2 2.74 0 .92.02 1.79.05 2.62.03.83.14 1.58.32 2.23.18.65.43 1.18.76 1.57.33.39.78.59 1.37.59.49 0 .96-.21 1.4-.64v-.01ZM130.3 76.04c0 1.96.13 3.59.39 4.9.26 1.31.57 2.35.93 3.14.39.95.85 1.68 1.37 2.21l-6.22 1.96c-.36-.33-.69-.73-.98-1.22-.26-.42-.51-.94-.76-1.54-.25-.6-.45-1.31-.61-2.13-.56 1.54-1.37 2.72-2.45 3.55-1.08.83-2.5 1.25-4.26 1.25-1.6 0-3-.29-4.19-.88a8.062 8.062 0 0 1-2.96-2.47c-.78-1.06-1.36-2.34-1.74-3.85-.38-1.5-.56-3.17-.56-5s.3-3.59.91-5.19c.6-1.6 1.45-2.98 2.52-4.14 1.07-1.16 2.37-2.07 3.87-2.72 1.5-.65 3.17-.98 5-.98 1.01 0 2.09.07 3.23.22a58.873 58.873 0 0 1 5.52.98c.64.15.97.22 1 .22v11.71l-.01-.02Zm-9.92 5.78c.44-.42.82-1 1.15-1.71.33-.72.58-1.54.76-2.47.18-.93.27-1.92.27-2.96V69c-.23-.1-.55-.19-.96-.27-.41-.08-.76-.12-1.05-.12-.78 0-1.44.17-1.96.51-.52.34-.94.82-1.25 1.42-.31.6-.53 1.33-.66 2.18-.13.85-.2 1.76-.2 2.74 0 .92.02 1.79.05 2.62.03.83.14 1.58.32 2.23.18.65.43 1.18.76 1.57.33.39.78.59 1.37.59.49 0 .96-.21 1.4-.64v-.01ZM157.2 76.53c0 1.05.09 2.02.27 2.92.18.9.38 1.78.61 2.65.23.87.44 1.76.64 2.67.2.92.29 1.89.29 2.94 0 3.43-.96 6.07-2.89 7.91-1.93 1.84-4.56 2.77-7.89 2.77-1.5 0-3.07-.18-4.7-.54a28.74 28.74 0 0 1-4.8-1.52l1.81-5.98c1.44.49 2.69.87 3.77 1.15 1.08.28 2.22.42 3.43.42 1.31 0 2.36-.38 3.16-1.13.8-.75 1.2-1.83 1.2-3.23 0-.65-.05-1.25-.15-1.79-.1-.54-.28-1.13-.54-1.79-.85 1.47-2.01 2.53-3.48 3.19-1.47.65-3.05.98-4.75.98-1.27 0-2.36-.2-3.26-.61a5.88 5.88 0 0 1-2.21-1.71c-.57-.74-.98-1.62-1.23-2.67-.25-1.04-.37-2.22-.37-3.53V63.26h7.79V78.6c0 1.14.14 2.07.42 2.77.28.7.79 1.05 1.54 1.05.42 0 .86-.15 1.3-.46.44-.31.84-.75 1.2-1.32.36-.57.65-1.27.88-2.08.23-.81.34-1.73.34-2.74V63.28h7.79l-.2 13.28.03-.03ZM170.77 62.81c1.24 0 2.39.11 3.45.32 1.06.21 2 .45 2.82.71.95.33 1.81.67 2.6 1.03l-2.45 5.49c-.26-.13-.6-.29-1-.49-.41-.2-.85-.39-1.32-.59-.47-.2-.97-.36-1.5-.49s-1.03-.2-1.52-.2c-.52 0-.96.11-1.32.34-.36.23-.54.59-.54 1.08 0 .52.33 1.04 1 1.54.67.51 1.56.99 2.67 1.45 1.96.82 3.47 1.79 4.53 2.92s1.59 2.64 1.59 4.53c0 1.05-.19 2.05-.56 3.01-.38.96-.93 1.81-1.67 2.52-.73.72-1.66 1.29-2.77 1.71-1.11.42-2.38.64-3.82.64-1.14 0-2.21-.08-3.21-.25-1-.16-1.91-.37-2.74-.61-.83-.24-1.58-.49-2.23-.74-.65-.25-1.18-.47-1.57-.66l2.55-5.64c.16.07.45.21.86.44s.88.46 1.42.69c.54.23 1.11.43 1.71.61.6.18 1.18.27 1.74.27.69 0 1.25-.13 1.69-.39.44-.26.66-.65.66-1.18 0-.62-.27-1.18-.81-1.67s-1.23-.9-2.08-1.22c-2.45-.98-4.21-2.08-5.27-3.31-1.06-1.23-1.59-2.75-1.59-4.58 0-1.04.2-2.01.59-2.89.39-.88.96-1.65 1.71-2.3.75-.65 1.66-1.17 2.72-1.54 1.06-.38 2.28-.56 3.65-.56l.01.01ZM148.27 110.32h-2.04v5.24h2.28c1.31 0 1.96-.87 1.96-2.62s-.73-2.62-2.2-2.62ZM44.91 110c-1.41 0-2.34.5-2.78 1.5-.44 1-.66 2.63-.66 4.9 0 2.27.22 3.9.66 4.9.44 1 1.36 1.5 2.76 1.5 1.4 0 2.31-.49 2.74-1.48.43-.99.64-2.63.64-4.94 0-2.31-.21-3.95-.62-4.92-.41-.97-1.33-1.46-2.74-1.46Z"/><path d="M156.28 96.81c-2.07 1.58-4.74 2.38-8.01 2.38-1.69 0-3.45-.2-5.29-.61-1.84-.4-3.63-.97-5.4-1.71l.02-.06H0v38.61h268.89V96.81H156.28ZM19.17 120.36c.25.85.66 1.42 1.22 1.7.56.28 1.47.42 2.72.42l6.24-.24.12 7.04c-2.83.69-5.72 1.04-8.68 1.04s-5.24-.42-6.84-1.26c-1.6-.84-2.75-2.25-3.46-4.22-.71-1.97-1.06-4.81-1.06-8.52 0-5.31.82-8.94 2.46-10.9 1.64-1.96 4.77-2.94 9.38-2.94 1.92 0 4.19.27 6.8.8l1.4.28-.24 7.16c-2.19-.27-4.21-.4-6.06-.4-1.85 0-3.05.35-3.58 1.06-.53.71-.8 2.17-.8 4.38s.13 3.75.38 4.6Zm35.42 6.66c-2.03 2.2-5.26 3.3-9.7 3.3-4.44 0-7.68-1.11-9.72-3.32-2.04-2.21-3.06-5.75-3.06-10.62 0-4.87 1.01-8.4 3.04-10.6 2.03-2.2 5.27-3.3 9.72-3.3 4.45 0 7.69 1.1 9.72 3.3 2.03 2.2 3.04 5.74 3.04 10.62 0 4.88-1.01 8.42-3.04 10.62Zm31.8 2.78h-9.16l-6.08-10.92h-.6v10.92h-9.28V103h9.12l6.16 10.16h.56V103h9.28v26.8Zm23.52-19.24H99.87v4.32h7.64v7.56h-7.64v7.36h-9.28V103h19.32v7.56Zm23.4-.16h-10.8v2.28h8.4V120h-8.4v2.4h10.8v7.4h-20.08V103h20.08v7.4Zm26.2 19.4h-9.44l-1.52-6.92h-2.28v6.92h-9.28V103h11.28c4.13 0 7.09.69 8.88 2.06 1.79 1.37 2.68 3.92 2.68 7.64 0 3.72-.99 6.38-2.96 7.98l2.64 9.12Zm24.04-19.4h-10.8v2.28h8.4V120h-8.4v2.4h10.8v7.4h-20.08V103h20.08v7.4Zm28.8 19.4h-9.16l-6.08-10.92h-.6v10.92h-9.28V103h9.12l6.16 10.16h.56V103h9.28v26.8Zm13.46-9.44c.25.85.66 1.42 1.22 1.7.56.28 1.47.42 2.72.42l6.24-.24.12 7.04c-2.83.69-5.72 1.04-8.68 1.04s-5.24-.42-6.84-1.26c-1.6-.84-2.75-2.25-3.46-4.22-.71-1.97-1.06-4.81-1.06-8.52 0-5.31.82-8.94 2.46-10.9 1.64-1.96 4.77-2.94 9.38-2.94 1.92 0 4.19.27 6.8.8l1.4.28-.24 7.16c-2.19-.27-4.21-.4-6.06-.4-1.85 0-3.05.35-3.58 1.06-.53.71-.8 2.17-.8 4.38s.13 3.75.38 4.6Zm33.94-9.96h-10.8v2.28h8.4V120h-8.4v2.4h10.8v7.4h-20.08V103h20.08v7.4ZM64.14 2.28c-1.38 0-2.07.46-2.07 1.37 0 .41.17.72.51.93.34.22 1.14.53 2.4.93 1.26.41 2.14.86 2.65 1.38.51.51.76 1.3.76 2.37 0 1.36-.41 2.38-1.23 3.08-.82.7-1.9 1.04-3.23 1.04-.99 0-2.2-.15-3.63-.46l-.68-.13.27-2.03c1.7.23 3 .34 3.9.34 1.34 0 2.01-.56 2.01-1.67 0-.41-.16-.72-.47-.95-.31-.23-.93-.48-1.85-.74-1.47-.42-2.5-.92-3.11-1.49-.6-.58-.9-1.38-.9-2.4 0-1.29.39-2.25 1.18-2.89.79-.63 1.86-.95 3.23-.95.94 0 2.13.13 3.57.38l.68.13-.21 2.07c-1.79-.2-3.05-.3-3.78-.3v-.01ZM70.51 13.15V.23h8.36v2.28h-5.74v3.02h4.6v2.24h-4.6v3.1h5.74v2.28zM85.78 9.39h-2.13v3.76h-2.62V.23h4.75c3.07 0 4.6 1.49 4.6 4.48 0 1.51-.39 2.66-1.17 3.47-.78.8-1.92 1.21-3.43 1.21Zm-2.13-2.24h2.11c1.3 0 1.96-.81 1.96-2.43 0-.8-.16-1.37-.48-1.72-.32-.35-.81-.52-1.48-.52h-2.11v4.67ZM96.68 1.94C97.5.9 98.71.38 100.32.38c1.61 0 2.82.52 3.64 1.56.82 1.04 1.23 2.71 1.23 5.01s-.41 3.95-1.22 4.94c-.81.99-2.03 1.49-3.65 1.49s-2.84-.5-3.65-1.49-1.22-2.64-1.22-4.94c0-2.3.41-3.97 1.23-5.01Zm5.8 4.95c0-1.56-.16-2.66-.49-3.29-.33-.63-.88-.94-1.66-.94-.78 0-1.34.32-1.67.95-.34.63-.5 1.73-.5 3.29s.17 2.65.51 3.27c.34.62.9.93 1.67.93.77 0 1.32-.31 1.65-.93.33-.62.49-1.71.49-3.28ZM110.35 11.1c1.68 0 2.53-1.03 2.53-3.08l-.4.13c-.87.29-1.54.44-1.99.44-1.38 0-2.44-.34-3.19-1.01-.75-.67-1.12-1.67-1.12-2.99 0-1.32.41-2.36 1.23-3.1.82-.74 1.99-1.11 3.51-1.11 1.52 0 2.67.56 3.47 1.68.8 1.12 1.2 2.79 1.2 5s-.44 3.82-1.33 4.82c-.89 1-2.19 1.5-3.9 1.5-.99 0-2.05-.14-3.17-.42l-.59-.13.23-2.01c1.29.19 2.47.29 3.53.29l-.01-.01Zm.36-4.79c.58 0 1.21-.11 1.88-.34l.3-.09c0-2.14-.71-3.21-2.13-3.21-.61 0-1.08.17-1.41.5-.33.34-.49.81-.49 1.42 0 1.15.61 1.73 1.84 1.73l.01-.01ZM121.54 7.01h9.5v2.17h-9.5V7.01zM144.25.61v12.54h-2.62V3.58l-2.72 1.75-1.2-1.96 4.14-2.75h2.39zM152.99.61v12.54h-2.62V3.58l-2.72 1.75-1.2-1.96 4.14-2.75h2.39zM156.06 15.49l.95-4.94h2.81l-1.71 4.94h-2.05zM174.23 13.15h-8.13v-2.22l2.68-2.72c.95-.98 1.61-1.72 1.99-2.24.37-.52.56-1.07.56-1.66 0-.59-.16-1-.47-1.24-.31-.24-.75-.36-1.32-.36-.85 0-1.77.08-2.77.23l-.46.06-.13-2.03c1.24-.38 2.53-.57 3.86-.57 2.66 0 3.99 1.2 3.99 3.59 0 .94-.2 1.75-.61 2.43-.41.68-1.14 1.51-2.2 2.49l-2.18 1.98h5.21v2.28l-.02-.02ZM177.18 1.94C178 .9 179.21.38 180.82.38c1.61 0 2.82.52 3.64 1.56.82 1.04 1.22 2.71 1.22 5.01s-.41 3.95-1.22 4.94c-.81.99-2.03 1.49-3.65 1.49s-2.84-.5-3.65-1.49-1.22-2.64-1.22-4.94c0-2.3.41-3.97 1.23-5.01h.01Zm5.8 4.95c0-1.56-.17-2.66-.49-3.29-.33-.63-.88-.94-1.66-.94-.78 0-1.34.32-1.67.95-.34.63-.5 1.73-.5 3.29s.17 2.65.51 3.27c.34.62.9.93 1.67.93.77 0 1.32-.31 1.65-.93.33-.62.49-1.71.49-3.28ZM195.51 13.15h-8.13v-2.22l2.68-2.72c.95-.98 1.61-1.72 1.99-2.24.37-.52.56-1.07.56-1.66 0-.59-.16-1-.47-1.24-.31-.24-.75-.36-1.32-.36-.85 0-1.77.08-2.77.23l-.46.06-.13-2.03c1.24-.38 2.53-.57 3.86-.57 2.66 0 3.99 1.2 3.99 3.59 0 .94-.2 1.75-.61 2.43-.41.68-1.14 1.51-2.2 2.49l-2.18 1.98h5.21v2.28l-.02-.02ZM206.09.61v2.28h-5.6l-.32 2.72c.79-.3 1.53-.46 2.24-.46 2.71 0 4.07 1.26 4.07 3.78 0 1.42-.37 2.51-1.12 3.29-.75.77-1.81 1.16-3.17 1.16-.58 0-1.25-.06-1.99-.17-.74-.11-1.33-.23-1.78-.36l-.68-.17.29-1.94c1.53.24 2.81.36 3.84.36.62 0 1.1-.16 1.42-.49.33-.33.49-.8.49-1.42 0-.62-.14-1.06-.42-1.34-.28-.28-.67-.42-1.18-.42-.85 0-1.6.08-2.24.25l-.29.08-1.56-.36.34-6.78h7.66V.61Z"/></g></svg>
