<svg xmlns="http://www.w3.org/2000/svg" class="h-12" viewBox="0 0 310 220"><g style="display:inline;opacity:1"><g style="display:inline;stroke:none"><path d="M-179.575 255.913h310V475.11h-310z" style="display:inline;fill:none;stroke:none;stroke-width:8.74257;stroke-dasharray:none" transform="matrix(1 0 0 1.00367 179.575 -256.85)"/><path d="M-543.57 245.767h-.003c-27.354.04-52.158 14.896-64.745 38.199-9.279-4.38-19.576-6.8-30.137-6.804h-.003c-34.671 0-63.62 24.503-63.62 55.648v.023c.027 6.502 1.366 12.928 3.9 18.975-27.552 8.734-46.752 28.067-46.822 51.05v.048c.09 15.714 17.323 45.513 32.828 51.306-8.776-5.174-24.592-20.864-24.644-42.731.03-12.952 4.954-25.184 13.38-33.235 7.798-8.017 19.376-14.557 33.888-18.142l6.75-1.67-3.48-6.06c-3.527-6.139-8.343-12.812-8.375-19.571.006-24.516 26.353-48.138 56.193-48.139 10.63.004 21.014 5.733 29.763 10.758l4.992 2.868 2.349-5.284c9.854-22.176 32.542-39.698 57.788-39.738 34.932 0 62.923 30.12 62.948 63.441a58 58 0 0 1-1.222 11.16l-1.168 5.6 5.642.69c12.309 1.505 24.94 12.974 24.942 27.088-.033 11.394-9.48 21.413-18.86 25.377l-2.819 1.19-.344 3.06c-2.778 24.596-24.524 60.93-56.044 63.318 11.803-.212 57.323-8.47 65.908-59.273 11.965-6.353 19.55-19.351 19.585-33.661v-.014c-.003-17.045-10.693-31.869-25.828-36.319.353-2.69.603-5.394.636-8.11v-.063c0-39.268-33.033-70.986-73.376-70.985z" style="stroke:none;stroke-width:1.11934" transform="matrix(1 0 0 1.00367 750 -241.667)"/><path d="M-123.961 468.437q-5.24 0-9.693-1.9-4.387-1.898-7.727-5.304-3.275-3.405-5.109-7.99-1.833-4.584-1.833-10.02 0-5.435 1.768-10.02 1.834-4.649 5.108-7.989 3.34-3.405 7.793-5.239 4.454-1.9 9.693-1.9t9.365 1.77q4.191 1.767 7.072 4.714 2.882 2.882 4.126 6.353l-7.99 3.733q-1.375-3.668-4.65-6.025-3.274-2.423-7.923-2.423-4.585 0-8.12 2.16-3.472 2.162-5.437 5.96-1.899 3.799-1.899 8.907t1.9 8.972q1.964 3.798 5.435 5.96 3.536 2.16 8.12 2.16 4.65 0 7.925-2.357 3.274-2.423 4.65-6.09l7.99 3.732q-1.245 3.471-4.127 6.418-2.881 2.882-7.072 4.65-4.126 1.768-9.365 1.768m25.172-.786v-48.79h6.942l26.85 36.15-3.602.721v-36.87h8.907v48.79H-66.7l-26.458-36.413 3.274-.72v37.132zm45.932 0v-48.79h15.914q7.728 0 13.425 3.144 5.763 3.078 8.907 8.58 3.143 5.435 3.143 12.639 0 7.138-3.143 12.705-3.144 5.5-8.907 8.644-5.697 3.078-13.425 3.078zm8.907-7.859h7.203q4.978 0 8.58-2.03 3.667-2.095 5.697-5.763 2.03-3.733 2.03-8.775 0-5.108-2.03-8.776-2.03-3.667-5.697-5.697-3.602-2.03-8.58-2.03h-7.203zm31 7.86 16.831-48.79h11.526l16.83 48.79h-9.692l-3.47-10.48H.214l-3.537 10.48Zm15.718-18.338H16.52L8.4 425.018h2.488z" aria-label="CNDA" style="-inkscape-font-specification:&amp;quot;stroke-width:8.50841;stroke-linecap:round;stroke-opacity:.497409" transform="matrix(.9964 0 0 1.00729 179.575 -256.85)"/><path d="M12.137 303.388a5.577 5.617 0 0 0-8.005 5.058l.015 74.592a5.577 5.617 0 0 0 9.023 4.414l58.314-46.176a5.577 5.617 0 0 0-1.02-9.474zm3.15 14.012 42.286 20.602-42.275 33.475z" style="fill:#ffbc42;stroke:none;stroke-width:1.11934;stroke-linecap:round;stroke-linejoin:round" transform="matrix(1 0 0 1.00367 179.575 -256.85)"/><path d="M10 302.835a5.577 5.617 0 0 0-2.733.553l-58.328 28.414a5.577 5.617 0 0 0-1.019 9.472L6.234 387.45a5.577 5.617 0 0 0 9.023-4.414l.015-74.59a5.577 5.617 0 0 0-5.272-5.61M4.117 317.4l-.011 54.075L-38.17 338z" style="fill:#ffbc42;stroke:none;stroke-width:1.11934;stroke-linecap:round;stroke-linejoin:round" transform="matrix(1 0 0 1.00367 179.575 -256.85)"/><path d="M69.7 331.731a5.577 5.617 0 0 0-5.33.874L6.176 378.74a5.577 5.617 0 0 0 2.135 9.87L80.4 406.219a5.577 5.617 0 0 0 6.761-6.663l-13.895-63.74a5.577 5.617 0 0 0-3.566-4.084m-5.42 15.24 10.073 46.21-52.259-12.763z" style="fill:#e30282;stroke:none;stroke-width:1.11934;stroke-linecap:round;stroke-linejoin:round" transform="matrix(1 0 0 1.00367 179.575 -256.85)"/><path d="M-50.296 331.73a5.577 5.617 0 0 0-3.566 4.082l-13.895 63.743a5.577 5.617 0 0 0 6.761 6.663l72.088-17.607a5.577 5.617 0 0 0 2.134-9.873l-58.192-46.133a5.577 5.617 0 0 0-5.33-.876m5.42 15.242 42.185 33.446-52.258 12.763z" style="fill:#e30282;stroke:none;stroke-width:1.11934;stroke-linecap:round;stroke-linejoin:round" transform="matrix(1 0 0 1.00367 179.575 -256.85)"/><path d="M10.941 377.682a5.577 5.617 0 0 0-6.389 7.79l30.785 67.974a5.577 5.617 0 0 0 9.377 1.24l41.184-50.38a5.577 5.617 0 0 0-2.989-9.03zm8.522 13.643 52.173 12.754-29.858 36.525z" style="fill:#531cb3;stroke:none;stroke-width:1.11934;stroke-linecap:round;stroke-linejoin:round" transform="matrix(1 0 0 1.00367 179.575 -256.85)"/><path d="M9.697 377.523a5.577 5.617 0 0 0-1.234.157l-71.968 17.597a5.577 5.617 0 0 0-2.99 9.028l8.543 10.451h14.448l-8.728-10.677L-.06 391.325l-14.43 31.865a27.4 27.4 0 0 1 4.767 6.156l.004.004a28 28 0 0 1 2.316 5.258l22.254-49.14a5.577 5.617 0 0 0-5.154-7.945" style="fill:#531cb3;stroke:none;stroke-width:1.11934;stroke-linecap:round;stroke-linejoin:round" transform="matrix(1 0 0 1.00367 179.575 -256.85)"/></g></g></svg>