<?xml version="1.0" encoding="UTF-8" standalone="no"?>
<!-- Created with Inkscape (http://www.inkscape.org/) -->

<svg
   xmlns:dc="http://purl.org/dc/elements/1.1/"
   xmlns:cc="http://creativecommons.org/ns#"
   xmlns:rdf="http://www.w3.org/1999/02/22-rdf-syntax-ns#"
   xmlns:svg="http://www.w3.org/2000/svg"
   xmlns="http://www.w3.org/2000/svg"
   xmlns:sodipodi="http://sodipodi.sourceforge.net/DTD/sodipodi-0.dtd"
   xmlns:inkscape="http://www.inkscape.org/namespaces/inkscape"
   width="88.86692mm"
   height="28.773438mm"
   viewBox="0 0 88.86692 28.773438"
   version="1.1"
   id="svg8"
   inkscape:export-filename="/home/rozsii/origoss/Marketing/Website/DevOpsCompass/logo/devopscompass.png"
   inkscape:export-xdpi="96"
   inkscape:export-ydpi="96"
   inkscape:version="0.92.3 (2405546, 2018-03-11)"
   sodipodi:docname="devopscompass_vector.svg">
  <defs
     id="defs2" />
  <sodipodi:namedview
     id="base"
     pagecolor="#ffffff"
     bordercolor="#666666"
     borderopacity="1.0"
     inkscape:pageopacity="0.0"
     inkscape:pageshadow="2"
     inkscape:zoom="2"
     inkscape:cx="102.67237"
     inkscape:cy="-44.230379"
     inkscape:document-units="mm"
     inkscape:current-layer="layer1"
     showgrid="false"
     inkscape:window-width="1853"
     inkscape:window-height="1025"
     inkscape:window-x="67"
     inkscape:window-y="27"
     inkscape:window-maximized="1" />
  <metadata
     id="metadata5">
    <rdf:RDF>
      <cc:Work
         rdf:about="">
        <dc:format>image/svg+xml</dc:format>
        <dc:type
           rdf:resource="http://purl.org/dc/dcmitype/StillImage" />
        <dc:title></dc:title>
      </cc:Work>
    </rdf:RDF>
  </metadata>
  <g
     inkscape:label="Layer 1"
     inkscape:groupmode="layer"
     id="layer1"
     transform="translate(-33.899737,-91.716407)">
    <text
       xml:space="preserve"
       style="font-style:normal;font-weight:normal;font-size:10.58333302px;line-height:1.25;font-family:sans-serif;letter-spacing:0px;word-spacing:0px;fill:#000000;fill-opacity:1;stroke:none;stroke-width:0.26458332"
       x="94.191666"
       y="105.97083"
       id="text177"><tspan
         sodipodi:role="line"
         id="tspan175"
         x="94.191666"
         y="115.3346"
         style="stroke-width:0.26458332" /><tspan
         sodipodi:role="line"
         x="94.191666"
         y="128.56377"
         style="stroke-width:0.26458332"
         id="tspan179" /></text>
    <g
       aria-label="dev"
       style="font-style:normal;font-weight:normal;font-size:10.58333302px;line-height:1.25;font-family:sans-serif;letter-spacing:0px;word-spacing:0px;fill:#1d5d1d;fill-opacity:1;stroke:#1d5d1d;stroke-width:0;stroke-miterlimit:4;stroke-dasharray:none;stroke-opacity:0"
       id="text183">
      <path
         d="m 72.052099,97.13484 v -4.134114 h 2.480469 v 10.721134 h -2.480469 v -1.11621 q -0.509874,0.68213 -1.123101,0.99908 -0.613227,0.31695 -1.419379,0.31695 -1.42627,0 -2.342665,-1.12999 -0.916395,-1.13688 -0.916395,-2.921444 0,-1.784559 0.916395,-2.914551 0.916395,-1.136881 2.342665,-1.136881 0.799262,0 1.412489,0.323839 0.620117,0.316949 1.129991,0.992187 z m -1.626085,4.99539 q 0.792372,0 1.205784,-0.57878 0.420301,-0.57877 0.420301,-1.681204 0,-1.10243 -0.420301,-1.681206 -0.413412,-0.578776 -1.205784,-0.578776 -0.785482,0 -1.205783,0.578776 -0.413412,0.578776 -0.413412,1.681206 0,1.102434 0.413412,1.681204 0.420301,0.57878 1.205783,0.57878 z"
         style="font-weight:bold;font-size:14.11111069px;fill:#1d5d1d;fill-opacity:1;stroke:#1d5d1d;stroke-width:0;stroke-miterlimit:4;stroke-dasharray:none;stroke-opacity:0"
         id="path1402" />
      <path
         d="m 84.619808,99.842685 v 0.702795 h -5.76709 q 0.08957,0.86817 0.627007,1.30225 0.537435,0.43408 1.502062,0.43408 0.778591,0 1.591634,-0.22737 0.819933,-0.23427 1.681207,-0.7028 v 1.90169 q -0.875055,0.33073 -1.750109,0.49609 -0.875054,0.17226 -1.750108,0.17226 -2.094618,0 -3.259061,-1.06109 -1.157552,-1.06798 -1.157552,-2.990344 0,-1.887912 1.136882,-2.969672 1.143771,-1.08176 3.141927,-1.08176 1.81901,0 2.90766,1.09554 1.095541,1.095541 1.095541,2.928331 z m -2.535591,-0.819932 q 0,-0.7028 -0.413411,-1.129992 -0.406521,-0.434082 -1.06798,-0.434082 -0.716579,0 -1.164442,0.406522 -0.447862,0.399631 -0.558105,1.157552 z"
         style="font-weight:bold;font-size:14.11111069px;fill:#1d5d1d;fill-opacity:1;stroke:#1d5d1d;stroke-width:0;stroke-miterlimit:4;stroke-dasharray:none;stroke-opacity:0"
         id="path1404" />
      <path
         d="m 85.508642,96.004849 h 2.466688 l 1.922363,5.333011 1.915473,-5.333011 h 2.473579 l -3.038574,7.717011 h -2.707845 z"
         style="font-weight:bold;font-size:14.11111069px;fill:#1d5d1d;fill-opacity:1;stroke:#1d5d1d;stroke-width:0;stroke-miterlimit:4;stroke-dasharray:none;stroke-opacity:0"
         id="path1406" />
    </g>
    <g
       aria-label="COMPASS"
       style="font-style:normal;font-weight:normal;font-size:10.58333302px;line-height:1.25;font-family:sans-serif;letter-spacing:0px;word-spacing:0px;fill:#1d5d1d;fill-opacity:1;stroke:#1d5d1d;stroke-width:0;stroke-miterlimit:4;stroke-dasharray:none;stroke-opacity:0"
       id="text199">
      <path
         d="m 72.812439,111.39409 v 1.24747 q -0.597379,-0.55639 -1.276752,-0.83165 -0.673516,-0.27526 -1.434882,-0.27526 -1.499306,0 -2.295812,0.91949 -0.796506,0.91364 -0.796506,2.64722 0,1.72771 0.796506,2.64721 0.796506,0.91364 2.295812,0.91364 0.761366,0 1.434882,-0.27527 0.679373,-0.27526 1.276752,-0.83164 v 1.23575 q -0.620806,0.42168 -1.317749,0.63252 -0.691086,0.21084 -1.464165,0.21084 -1.985409,0 -3.127458,-1.21233 -1.142049,-1.21818 -1.142049,-3.32072 0,-2.1084 1.142049,-3.32073 1.142049,-1.21819 3.127458,-1.21819 0.784792,0 1.475879,0.21084 0.696942,0.20499 1.306035,0.62081 z"
         style="font-size:11.99444485px;fill:#1d5d1d;fill-opacity:1;stroke:#1d5d1d;stroke-width:0;stroke-miterlimit:4;stroke-dasharray:none;stroke-opacity:0"
         id="path1417" />
      <path
         d="m 78.200569,111.52293 q -1.288466,0 -2.049832,0.9605 -0.755509,0.96049 -0.755509,2.61793 0,1.65157 0.755509,2.61207 0.761366,0.96049 2.049832,0.96049 1.288466,0 2.038118,-0.96049 0.75551,-0.9605 0.75551,-2.61207 0,-1.65744 -0.75551,-2.61793 -0.749652,-0.9605 -2.038118,-0.9605 z m 0,-0.96049 q 1.838992,0 2.940044,1.23576 1.101053,1.2299 1.101053,3.30316 0,2.0674 -1.101053,3.30315 -1.101052,1.2299 -2.940044,1.2299 -1.844849,0 -2.951758,-1.2299 -1.101053,-1.2299 -1.101053,-3.30315 0,-2.07326 1.101053,-3.30316 1.106909,-1.23576 2.951758,-1.23576 z"
         style="font-size:11.99444485px;fill:#1d5d1d;fill-opacity:1;stroke:#1d5d1d;stroke-width:0;stroke-miterlimit:4;stroke-dasharray:none;stroke-opacity:0"
         id="path1419" />
      <path
         d="m 84.092371,110.72057 h 1.762856 l 2.231388,5.95037 2.243102,-5.95037 h 1.762855 v 8.744 H 90.93881 v -7.67809 l -2.254815,5.99723 h -1.188903 l -2.254815,-5.99723 v 7.67809 h -1.147906 z"
         style="font-size:11.99444485px;fill:#1d5d1d;fill-opacity:1;stroke:#1d5d1d;stroke-width:0;stroke-miterlimit:4;stroke-dasharray:none;stroke-opacity:0"
         id="path1421" />
      <path
         d="m 95.629995,111.69278 v 3.28559 h 1.487592 q 0.82579,0 1.276753,-0.42754 0.450963,-0.42754 0.450963,-1.21819 0,-0.78479 -0.450963,-1.21233 -0.450963,-0.42753 -1.276753,-0.42753 z m -1.183046,-0.97221 h 2.670638 q 1.470023,0 2.219676,0.66766 0.755507,0.6618 0.755507,1.94441 0,1.29433 -0.755507,1.95613 -0.749653,0.6618 -2.219676,0.6618 h -1.487592 v 3.514 h -1.183046 z"
         style="font-size:11.99444485px;fill:#1d5d1d;fill-opacity:1;stroke:#1d5d1d;stroke-width:0;stroke-miterlimit:4;stroke-dasharray:none;stroke-opacity:0"
         id="path1423" />
      <path
         d="m 103.83518,111.88605 -1.60473,4.3515 h 3.21531 z m -0.66766,-1.16548 h 1.34118 l 3.33244,8.744 h -1.2299 l -0.79651,-2.2431 h -3.94153 l -0.79651,2.2431 h -1.247468 z"
         style="font-size:11.99444485px;fill:#1d5d1d;fill-opacity:1;stroke:#1d5d1d;stroke-width:0;stroke-miterlimit:4;stroke-dasharray:none;stroke-opacity:0"
         id="path1425" />
      <path
         d="m 114.35375,111.00755 v 1.15376 q -0.67352,-0.32212 -1.2709,-0.48025 -0.59738,-0.15813 -1.15376,-0.15813 -0.96635,0 -1.49345,0.37483 -0.52124,0.37483 -0.52124,1.06591 0,0.57981 0.34554,0.8785 0.3514,0.29284 1.32361,0.47439 l 0.71451,0.14642 q 1.3236,0.25184 1.95027,0.89021 0.63252,0.63252 0.63252,1.69843 0,1.2709 -0.85508,1.92685 -0.84921,0.65594 -2.49493,0.65594 -0.62081,0 -1.32361,-0.14056 -0.69694,-0.14056 -1.4466,-0.41582 v -1.21819 q 0.72037,0.40411 1.41146,0.6091 0.69109,0.20498 1.35875,0.20498 1.0132,0 1.56372,-0.39825 0.55053,-0.39826 0.55053,-1.1362 0,-0.64423 -0.39825,-1.00734 -0.3924,-0.36311 -1.29432,-0.54467 l -0.72037,-0.14056 q -1.32361,-0.26355 -1.91513,-0.82579 -0.59153,-0.56224 -0.59153,-1.56373 0,-1.15962 0.81408,-1.82728 0.81993,-0.66766 2.25482,-0.66766 0.61495,0 1.25332,0.11128 0.63838,0.11128 1.30604,0.33383 z"
         style="font-size:11.99444485px;fill:#1d5d1d;fill-opacity:1;stroke:#1d5d1d;stroke-width:0;stroke-miterlimit:4;stroke-dasharray:none;stroke-opacity:0"
         id="path1427" />
      <path
         d="m 121.96741,111.00755 v 1.15376 q -0.67352,-0.32212 -1.2709,-0.48025 -0.59738,-0.15813 -1.15376,-0.15813 -0.96635,0 -1.49345,0.37483 -0.52124,0.37483 -0.52124,1.06591 0,0.57981 0.34554,0.8785 0.3514,0.29284 1.3236,0.47439 l 0.71452,0.14642 q 1.3236,0.25184 1.95027,0.89021 0.63252,0.63252 0.63252,1.69843 0,1.2709 -0.85508,1.92685 -0.84921,0.65594 -2.49494,0.65594 -0.6208,0 -1.3236,-0.14056 -0.69694,-0.14056 -1.4466,-0.41582 v -1.21819 q 0.72037,0.40411 1.41146,0.6091 0.69109,0.20498 1.35874,0.20498 1.01321,0 1.56373,-0.39825 0.55053,-0.39826 0.55053,-1.1362 0,-0.64423 -0.39825,-1.00734 -0.3924,-0.36311 -1.29433,-0.54467 l -0.72037,-0.14056 q -1.3236,-0.26355 -1.91512,-0.82579 -0.59153,-0.56224 -0.59153,-1.56373 0,-1.15962 0.81408,-1.82728 0.81993,-0.66766 2.25481,-0.66766 0.61495,0 1.25333,0.11128 0.63838,0.11128 1.30604,0.33383 z"
         style="font-size:11.99444485px;fill:#1d5d1d;fill-opacity:1;stroke:#1d5d1d;stroke-width:0;stroke-miterlimit:4;stroke-dasharray:none;stroke-opacity:0"
         id="path1429" />
    </g>
    <g
       id="Icons new Arranged Names"
       style="fill:#3da639;fill-opacity:1;fill-rule:evenodd;stroke:#3da639;stroke-width:1;stroke-opacity:0"
       transform="matrix(0.99218748,0,0,0.99218748,29.434893,88.243751)">
      <g
         id="89 Compass"
         style="fill:#3da639;fill-opacity:1;stroke:#3da639;stroke-opacity:0"
         transform="translate(3,2)">
        <path
           id="Oval 278"
           d="M 16,30 C 8.2680131,30 2,23.731987 2,16 2,8.2680131 8.2680131,2 16,2 c 7.731987,0 14,6.2680131 14,14 0,7.731987 -6.268013,14 -14,14 z m 2.828427,-11.171573 c -1.767767,1.767767 -10.6066016,4.949748 -10.6066016,4.949748 0,0 3.1819806,-8.838835 4.9497476,-10.606602 1.767767,-1.767767 10.606602,-4.9497476 10.606602,-4.9497476 0,0 -3.181981,8.8388346 -4.949748,10.6066016 z M 16,28 C 22.627417,28 28,22.627417 28,16 28,9.3725827 22.627417,4 16,4 9.3725827,4 4,9.3725827 4,16 4,22.627417 9.3725827,28 16,28 Z M 14.585786,17.414214 c 0.781049,0.781048 2.047379,0.781048 2.828428,0 0.781048,-0.781049 0.781048,-2.047379 0,-2.828428 -0.781049,-0.781048 -2.047379,-0.781048 -2.828428,0 -0.781048,0.781049 -0.781048,2.047379 0,2.828428 z m 0,0"
           inkscape:connector-curvature="0"
           style="fill:#3da639;fill-opacity:1;stroke:#3da639;stroke-opacity:0" />
      </g>
      <path
         style="opacity:0.01000001;fill:#1d5d1d;fill-opacity:1;stroke:#3da639;stroke-width:0;stroke-miterlimit:4;stroke-dasharray:none;stroke-opacity:0"
         d="m 154.36771,428.20123 c 1.26201,-4.20375 7.4874,-19.0474 11.02503,-26.2878 4.85258,-9.9317 6.54067,-11.97129 12.85299,-15.52932 6.02398,-3.39551 32.1703,-14.40587 32.7746,-13.80157 0.39451,0.3945 -7.7404,20.00101 -11.48845,27.68912 -5.37709,11.02963 -6.82529,12.49804 -17.44522,17.68863 -7.38614,3.61004 -26.10211,11.36594 -27.42745,11.36594 -0.41928,0 -0.51654,-0.37538 -0.2915,-1.125 z m 31.47974,-20.37504 c 7.43327,-3.59839 4.31549,-15.02665 -3.91234,-14.3407 -7.67737,0.64006 -9.69928,10.7417 -2.84537,14.21574 2.73303,1.38529 4.10193,1.4106 6.75771,0.12496 z"
         id="path4795"
         inkscape:connector-curvature="0"
         transform="matrix(0.26666667,0,0,0.26666667,-29.666664,-88.938585)" />
      <path
         style="opacity:0.01000001;fill:#1d5d1d;fill-opacity:1;stroke:#3da639;stroke-width:0;stroke-miterlimit:4;stroke-dasharray:none;stroke-opacity:0"
         d="m 154.36771,428.20123 c 2.36733,-7.88555 13.08704,-31.58256 16.18237,-35.7728 2.08798,-2.82655 7.25279,-6.11499 15.54728,-9.89899 7.87141,-3.59098 24.54684,-10.32303 24.84121,-10.02866 0.55687,0.55686 -8.16207,21.55583 -12.48756,30.07545 -4.35961,8.58682 -6.41973,10.52354 -16.36435,15.38406 -7.38614,3.61004 -26.10211,11.36594 -27.42745,11.36594 -0.41928,0 -0.51654,-0.37538 -0.2915,-1.125 z m 31.47974,-20.37504 c 7.43327,-3.59839 4.31549,-15.02665 -3.91234,-14.3407 -7.67737,0.64006 -9.69928,10.7417 -2.84537,14.21574 2.73303,1.38529 4.10193,1.4106 6.75771,0.12496 z"
         id="path4797"
         inkscape:connector-curvature="0"
         transform="matrix(0.26666667,0,0,0.26666667,-29.666664,-88.938585)" />
      <path
         style="opacity:0.01000001;fill:#1d5d1d;fill-opacity:1;stroke:#3da639;stroke-width:0;stroke-miterlimit:4;stroke-dasharray:none;stroke-opacity:0"
         d="m 154.36771,428.20123 c 2.36733,-7.88555 13.08704,-31.58256 16.18237,-35.7728 2.08798,-2.82655 7.25279,-6.11499 15.54728,-9.89899 7.87141,-3.59098 24.54684,-10.32303 24.84121,-10.02866 0.55687,0.55686 -8.16207,21.55583 -12.48756,30.07545 -4.35961,8.58682 -6.41973,10.52354 -16.36435,15.38406 -7.38614,3.61004 -26.10211,11.36594 -27.42745,11.36594 -0.41928,0 -0.51654,-0.37538 -0.2915,-1.125 z m 31.47974,-20.37504 c 7.43327,-3.59839 4.31549,-15.02665 -3.91234,-14.3407 -7.67737,0.64006 -9.69928,10.7417 -2.84537,14.21574 2.73303,1.38529 4.10193,1.4106 6.75771,0.12496 z"
         id="path4799"
         inkscape:connector-curvature="0"
         transform="matrix(0.26666667,0,0,0.26666667,-29.666664,-88.938585)" />
    </g>
    <flowRoot
       xml:space="preserve"
       id="flowRoot3952"
       style="font-style:normal;font-weight:normal;font-size:40px;line-height:1.25;font-family:sans-serif;letter-spacing:0px;word-spacing:0px;fill:#000000;fill-opacity:1;stroke:none"><flowRegion
         id="flowRegion3954"><rect
           id="rect3956"
           width="119.82841"
           height="124.82843"
           x="743"
           y="770.51971" /></flowRegion><flowPara
         id="flowPara3958" /></flowRoot>    <path
       style="fill:#1d5d1d;fill-opacity:1;stroke:#1d5d1d;stroke-width:0;stroke-miterlimit:4;stroke-dasharray:none;stroke-opacity:0"
       d="m 65.616661,107.82293 h 57.149999 v 0.79375 H 65.616661 Z"
       id="rect3962" />
    <g
       aria-label="ops"
       style="font-style:normal;font-weight:normal;font-size:10.58333302px;line-height:1.25;font-family:sans-serif;letter-spacing:0px;word-spacing:0px;fill:#3da639;fill-opacity:1;stroke:#3da639;stroke-width:0;stroke-miterlimit:4;stroke-dasharray:none;stroke-opacity:0"
       id="text183-2">
      <path
         d="m 99.656962,97.685387 q -0.819933,0 -1.254015,0.592556 -0.427192,0.585666 -0.427192,1.694987 0,1.10932 0.427192,1.70188 0.434082,0.58566 1.254015,0.58566 0.806148,0 1.233348,-0.58566 0.42719,-0.59256 0.42719,-1.70188 0,-1.109321 -0.42719,-1.694987 -0.4272,-0.592556 -1.233348,-0.592556 z m 0,-1.763889 q 1.991268,0 3.107478,1.07487 1.1231,1.07487 1.1231,2.976562 0,1.90169 -1.1231,2.97656 -1.11621,1.07487 -3.107478,1.07487 -1.998155,0 -3.128147,-1.07487 -1.123101,-1.07487 -1.123101,-2.97656 0,-1.901692 1.123101,-2.976562 1.129992,-1.07487 3.128147,-1.07487 z"
         style="font-weight:bold;font-size:14.11111069px;fill:#3da639;fill-opacity:1;stroke:#3da639;stroke-width:0;stroke-miterlimit:4;stroke-dasharray:none;stroke-opacity:0"
         id="path1409" />
      <path
         d="m 108.15257,102.70834 v 4.05143 h -2.46669 V 96.107533 h 2.46669 v 1.129991 q 0.50987,-0.675238 1.12999,-0.992187 0.62012,-0.323839 1.42627,-0.323839 1.42627,0 2.34266,1.136881 0.9164,1.129992 0.9164,2.914551 0,1.78456 -0.9164,2.92144 -0.91639,1.12999 -2.34266,1.12999 -0.80615,0 -1.42627,-0.31695 -0.62012,-0.32384 -1.12999,-0.99907 z m 1.63986,-4.995392 q -0.79237,0 -1.21956,0.585666 -0.4203,0.578776 -0.4203,1.674316 0,1.09554 0.4203,1.68121 0.42719,0.57877 1.21956,0.57877 0.79237,0 1.20579,-0.57877 0.4203,-0.57878 0.4203,-1.68121 0,-1.10243 -0.4203,-1.681206 -0.41342,-0.578776 -1.20579,-0.578776 z"
         style="font-weight:bold;font-size:14.11111069px;fill:#3da639;fill-opacity:1;stroke:#3da639;stroke-width:0;stroke-miterlimit:4;stroke-dasharray:none;stroke-opacity:0"
         id="path1411" />
      <path
         d="m 121.8296,96.34869 v 1.874132 q -0.79238,-0.330729 -1.52963,-0.496094 -0.73725,-0.165365 -1.39181,-0.165365 -0.7028,0 -1.04731,0.179145 -0.33762,0.172255 -0.33762,0.537435 0,0.296278 0.25493,0.454753 0.26183,0.158474 0.93018,0.234266 l 0.43408,0.06201 q 1.8948,0.241157 2.54937,0.792372 0.65457,0.551214 0.65457,1.729434 0,1.23335 -0.9095,1.85347 -0.90951,0.62011 -2.71474,0.62011 -0.76481,0 -1.58474,-0.12402 -0.81305,-0.11713 -1.67432,-0.35829 v -1.87413 q 0.73725,0.35829 1.50895,0.53743 0.77859,0.17915 1.57786,0.17915 0.72347,0 1.08865,-0.19982 0.36518,-0.19981 0.36518,-0.59255 0,-0.33073 -0.25494,-0.48921 -0.24805,-0.16536 -0.99908,-0.25494 l -0.43408,-0.0551 q -1.64676,-0.2067 -2.30822,-0.76481 -0.66145,-0.558104 -0.66145,-1.694985 0,-1.226454 0.8406,-1.819011 0.8406,-0.592556 2.57693,-0.592556 0.68213,0 1.43316,0.103353 0.75103,0.103353 1.63298,0.323839 z"
         style="font-weight:bold;font-size:14.11111069px;fill:#3da639;fill-opacity:1;stroke:#3da639;stroke-width:0;stroke-miterlimit:4;stroke-dasharray:none;stroke-opacity:0"
         id="path1413" />
    </g>
  </g>
</svg>
