<?xml version="1.0" encoding="UTF-8" standalone="no"?>
<svg
   id="Layer_1"
   data-name="Layer 1"
   width="195.73801"
   height="190"
   viewBox="0 0 195.73801 190"
   version="1.1"
   sodipodi:docname="gitlab-logo.svg"
   inkscape:version="1.4 (e7c3feb100, 2024-10-09)"
   xmlns:inkscape="http://www.inkscape.org/namespaces/inkscape"
   xmlns:sodipodi="http://sodipodi.sourceforge.net/DTD/sodipodi-0.dtd"
   xmlns="http://www.w3.org/2000/svg"
   xmlns:svg="http://www.w3.org/2000/svg">
  <sodipodi:namedview
     id="namedview4"
     pagecolor="#ffffff"
     bordercolor="#666666"
     borderopacity="1.0"
     inkscape:showpageshadow="2"
     inkscape:pageopacity="0.0"
     inkscape:pagecheckerboard="0"
     inkscape:deskcolor="#d1d1d1"
     inkscape:zoom="1.7212468"
     inkscape:cx="-114.74241"
     inkscape:cy="67.102522"
     inkscape:window-width="1910"
     inkscape:window-height="1170"
     inkscape:window-x="107"
     inkscape:window-y="13"
     inkscape:window-maximized="0"
     inkscape:current-layer="Layer_1">
    <inkscape:page
       x="0"
       y="0"
       width="195.73801"
       height="190"
       id="page4"
       margin="20"
       bleed="0" />
  </sodipodi:namedview>
  <defs
     id="defs1">
    <style
       id="style1">
      .cls-1 {
        fill: #fca326;
      }

      .cls-2 {
        fill: #fc6d26;
      }

      .cls-3 {
        fill: #e24329;
      }
    </style>
  </defs>
  <path
     class="cls-3"
     d="m 173.13316,79.37243 -0.2134,-0.55822 -21.19899,-55.30908 c -0.4236,-1.08359 -1.18542,-1.99642 -2.17699,-2.62689 -0.98837,-0.63373 -2.14749,-0.93253 -3.32305,-0.87014 -1.1689,0.0624 -2.29195,0.48925 -3.20809,1.21821 -0.90957,0.73554 -1.56629,1.73047 -1.87493,2.85346 L 126.82444,67.88639 H 68.914786 L 54.601516,24.07977 c -0.30864,-1.12299 -0.96536,-2.11791 -1.87493,-2.85346 -0.91614,-0.72895 -2.03911,-1.15582 -3.20809,-1.21821 -1.17548,-0.0624 -2.33468,0.23641 -3.32297,0.87014 -0.99166,0.63047 -1.75348,1.5433 -2.17707,2.62689 l -21.19891,55.31237 -0.21348,0.55493 c -6.28158,16.38521 -0.92929,34.90803 13.05891,45.48782 0.0262,0.0164 0.0492,0.0361 0.0755,0.0558 l 0.18719,0.14119 32.29094,24.17392 15.97151,12.09024 9.71951,7.34871 c 2.34117,1.77316 5.57877,1.77316 7.920024,0 l 9.71943,-7.34871 15.96822,-12.09024 32.48142,-24.31511 c 0.0296,-0.023 0.0559,-0.0427 0.0854,-0.0657 13.97834,-10.57977 19.32735,-29.09604 13.04905,-45.47796 z"
     id="path1" />
  <path
     class="cls-2"
     d="m 173.13316,79.37243 -0.2134,-0.55822 c -10.5174,2.16062 -20.20405,6.6099 -28.49844,12.81593 -0.1346,0.0985 -25.20497,19.05805 -46.551714,35.19699 15.849984,11.98517 29.647704,22.40405 29.647704,22.40405 l 32.48142,-24.31511 c 0.0296,-0.023 0.0559,-0.0427 0.0854,-0.0657 13.97834,-10.57977 19.32735,-29.09604 13.04905,-45.47796 z"
     id="path2" />
  <path
     class="cls-1"
     d="m 68.218616,149.23117 15.97151,12.09024 9.71951,7.34871 c 2.34117,1.77316 5.57877,1.77316 7.920024,0 l 9.71943,-7.34871 15.96822,-12.09024 c 0,0 -13.79772,-10.41888 -29.647704,-22.40405 -15.85327,11.98517 -29.65099,22.40405 -29.65099,22.40405 z"
     id="path3" />
  <path
     class="cls-2"
     d="M 51.314606,91.63014 C 43.023496,85.4274 33.340146,80.97483 22.819536,78.8175 l -0.21348,0.55493 c -6.28158,16.38521 -0.92929,34.90803 13.05891,45.48782 0.0262,0.0164 0.0492,0.0361 0.0755,0.0558 l 0.18719,0.14119 32.29094,24.17392 c 0,0 13.79772,-10.41888 29.65099,-22.40405 -21.34673,-16.13894 -46.42031,-35.09848 -46.55499,-35.19699 z"
     id="path4" />
</svg>
