<?xml version="1.0" encoding="utf-8"?>
<!-- Generator: Adobe Illustrator 25.1.0, SVG Export Plug-In . SVG Version: 6.00 Build 0)  -->
<svg version="1.1" id="Ebene_1" xmlns="http://www.w3.org/2000/svg" xmlns:xlink="http://www.w3.org/1999/xlink" x="0px" y="0px"
	 viewBox="0 0 510.2 510.2" style="enable-background:new 0 0 510.2 510.2;" xml:space="preserve">
<style type="text/css">
	.st0{fill:#40BBED;}
	.st1{fill:#1F3D85;}
	.st2{enable-background:new    ;}
	.st3{fill:#FFFFFF;}
</style>
<g>
	<path class="st0" d="M255.1,467.7c117.4,0,212.6-95.2,212.6-212.6S372.5,42.5,255.1,42.5c-117.4,0-212.6,95.2-212.6,212.6
		S137.7,467.7,255.1,467.7L255.1,467.7z"/>
	<path class="st1" d="M248.1,452c112.7,0,204-91.3,204-204s-91.3-204-204-204s-204,91.3-204,204C44.1,360.7,135.4,452,248.1,452
		L248.1,452z"/>
	<g class="st2">
		<path class="st3" d="M117,214l8.9-1.9l0.9,52c0.2,11.9-4.7,16.6-12.4,22.8l-4.3-5.3c5.8-4.4,7.9-8.1,7.8-14.6L117,214z"/>
		<path class="st3" d="M137.1,225.7l7-3.4c1.6,2,2.6,5,3.1,7.5c1.5,7.2-1.9,14.2-0.4,20.9c0.5,2.5,1.9,4.2,5.1,3.5
			c5.6-1.2,8.9-13.2,8.7-22l-0.2-12.9l8.7-1.8l0,20.4c0,3.2,0.2,5.3,0.7,7.4c1.1,5,3.3,7.2,4.8,8.6l-6.5,4.3
			c-1.9-1.5-3.6-3.9-4.3-7.1c-0.3-1.4-0.5-3.6-0.8-6.3l-0.7,3.4c-1.6,7.8-6,12.4-12.3,13.7c-6.8,1.5-10.6-1.6-11.9-7.4
			c-1.7-8.1,1.9-16.2,0.4-23.5C138.2,228.9,137.6,226.7,137.1,225.7z"/>
		<path class="st3" d="M197.4,250.2c0,0-3,2.1-7.9,3.1c-4.8,1-7.8-1-8.6-5c-0.1-0.7-0.2-1.5-0.2-2.2l-0.8-48.3l8.4-3.4l1,49
			c0,0.5,0,0.9,0.1,1.3c0.3,1.4,1.1,1.8,2.5,1.5c2.2-0.5,4-1.4,4.2-1.5L197.4,250.2z"/>
		<path class="st3" d="M233.7,231.6c1.1,5.2,3.1,8.4,4.1,13.2c2.4,11.4-3.2,16.5-13.2,18.6c-6,1.3-13-0.3-16.9-1.3l1.6-7.2
			c4.3,0.8,10.1,2.2,14.9,1.2c4.8-1,6.9-5.2,6-9.6c-0.4-1.9-1.2-3.9-2.3-9.2c-0.4-1.9-0.5-4.7-0.7-6.4l-0.8,3.6
			c-1.5,7.8-6,12.4-12.2,13.7c-6.8,1.5-10.6-1.6-11.9-7.4c-1.7-8.1,1.8-16.2,0.3-23.5c-0.4-2.1-1.1-4.3-1.5-5.3l7-3.4
			c1.6,2,2.6,5,3.1,7.5c1.5,7.2-1.9,14.2-0.4,20.9c0.5,2.5,1.9,4.2,5.1,3.5c5.5-1.2,8.9-13.2,8.7-22l-0.2-12.9l8.7-1.8
			C233,203.3,232.5,226.4,233.7,231.6z"/>
		<path class="st3" d="M286.6,189.4c-2.3-0.5-5.5-0.3-8.1,0.3c-7,1.5-9.6,9.3-9.6,18c1.6-2.4,4.8-6.2,10-7.3
			c8.8-1.9,12.8,3,14.1,8.9c2.8,13-3.3,23.3-14.7,25.8c-9.5,2-15.2-2.4-17.2-11.8c-4-18.7-0.4-36.9,17.6-40.7
			c3.7-0.8,6.4-0.5,9.1,0.2L286.6,189.4z M269.1,213.2c0.2,2.2,0.6,4.5,1.1,6.6c1.1,5.3,3.4,9.2,7.9,8.3c6-1.3,7.9-8.3,6.4-15.3
			c-0.9-4.2-3.3-5.9-7.1-5.1C273.5,208.5,269.9,212.3,269.1,213.2z"/>
	</g>
	<g class="st2">
		<path class="st3" d="M302.5,199.7l37.6-8l0.1,6.6l-37.6,8L302.5,199.7z"/>
	</g>
	<g class="st2">
		<path class="st3" d="M353,208.5c-1.8-8.5,3.5-14.7,8.5-18.9c-3.5-1.4-6.7-3.8-7.6-7.7c-1.8-8.3,3.8-16.2,14.2-18.4
			c7.4-1.6,12.9,1.2,14.1,6.8c1.5,7.1-2.6,12.1-7.1,16c4.6,1.7,8.4,5.5,9.4,10.1c2,9.3-5.9,17.2-15.5,19.3
			C360.9,217.4,354.4,215.2,353,208.5z M369.4,209.2c4.1-0.9,6.9-5.1,6-9.8c-0.8-3.6-4.2-6.2-6.9-7.8c-3.8,3.4-7.7,8.2-6.5,13.9
			C362.5,208.3,365.3,210.1,369.4,209.2z M367.9,169.9c-4.3,0.9-6.3,4.3-5.3,9c0.7,3.2,3.1,4.7,5.5,5.5c3.3-2.6,6.4-5.8,5.3-10.8
			C372.9,171,371.2,169.2,367.9,169.9z"/>
	</g>
	<g class="st2">
		<path class="st3" d="M185.4,292.3c5.1-4,9.6-6.6,14.9-7.7c8.2-1.7,13.5,1.1,14.8,7.6c1.8,8.7-3.5,15.7-10.8,26.3l-7.6,10.8
			l20.4-4.3l0.1,7.4l-29.9,6.4l-1.5-7.1l10-14.5c7.8-11.3,11-15.7,9.8-21.5c-0.6-3-2.2-4.7-5.6-4c-4,0.8-6.6,2.9-10.8,6.3
			L185.4,292.3z"/>
		<path class="st3" d="M260.5,287.3c4,18.6-0.6,37-16.6,40.4c-9.5,2-15.3-2.4-17.3-11.9c-4-18.7,0.6-37,16.6-40.4
			C252.7,273.4,258.5,277.8,260.5,287.3z M235.8,312.4c1.1,5.4,3.4,9.2,7.9,8.3c8.6-1.8,10.3-17.5,7.7-30c-1.1-5.4-3.4-9.2-7.9-8.3
			C234.8,284.3,233.1,300,235.8,312.4z"/>
		<path class="st3" d="M268.5,274.7c5.1-4,9.6-6.6,14.9-7.7c8.2-1.7,13.5,1.1,14.8,7.6c1.8,8.7-3.5,15.7-10.8,26.3l-7.6,10.8
			l20.4-4.3l0.1,7.4l-29.9,6.4L269,314l10-14.5c7.8-11.3,11-15.7,9.8-21.5c-0.6-3-2.2-4.7-5.6-4c-4,0.8-6.6,2.9-10.8,6.3
			L268.5,274.7z"/>
		<path class="st3" d="M317.1,271.2c-3.3,3.4-6.7,6.2-9.4,7.7l-4-5.8c5.2-2.7,10-5.5,15.5-13.2l6.7-1.4l0.9,50.6l-9,1.9L317.1,271.2
			z"/>
	</g>
</g>
</svg>
