<svg xmlns="http://www.w3.org/2000/svg" role="img" xmlns:xlink="http://www.w3.org/1999/xlink" viewBox="-5.91 27.34 411.58 187.33"><title>kceu26-black.svg</title><style>svg {enable-background:new 0 0 400 245}</style><style>.st0{fill:#111245}.st4{fill-rule:evenodd;clip-rule:evenodd}</style><linearGradient id="SVGID_1_" x1="-420" x2="-419.293" y1="0" y2=".707" gradientUnits="userSpaceOnUse"><stop offset="0" stop-color="#dedfe3"/><stop offset=".178" stop-color="#dadbdf"/><stop offset=".361" stop-color="#cecfd3"/><stop offset=".546" stop-color="#b9bcbf"/><stop offset=".732" stop-color="#9ca0a2"/><stop offset=".918" stop-color="#787d7e"/><stop offset="1" stop-color="#656b6c"/></linearGradient><path d="M106.6 152.6c.7-.2 1.6-.4 2.8-.6 1.2-.2 2.3-.3 3.5-.3 1 0 2.1.1 3.1.5.8.3 1.4.8 1.9 1.4.5.6.8 1.4 1 2.1.2.9.3 1.8.3 2.8v8.3h-4.1v-7.9c.1-1-.1-1.9-.5-2.8-.3-.5-1-.8-2-.8-.3 0-.6 0-.9.1-.3 0-.6.1-.9.1v11.3h-4.2v-14.2zm-7.6 6.8c0-1.1-.2-2.1-.7-3-1-1.2-2.7-1.4-4-.5-.2.1-.3.3-.5.5-.6.9-.9 2-.8 3 0 1.1.2 2.2.8 3.1.9 1.2 2.6 1.5 3.8.6.2-.2.5-.4.6-.6.5-.9.8-2 .8-3.1m4.2 0c0 1.1-.1 2.1-.5 3.2-.3.9-.8 1.8-1.5 2.5-1.3 1.5-3.3 2.2-5.2 2.1-1 0-2-.2-3-.5-.9-.4-1.6-.9-2.3-1.6-.7-.7-1.2-1.6-1.5-2.5-.7-2-.7-4.3 0-6.3.3-.9.8-1.7 1.5-2.4.6-.7 1.4-1.2 2.3-1.5.9-.4 1.9-.6 2.9-.5 1 0 2 .2 2.9.5.8.4 1.6.9 2.3 1.5.6.7 1.1 1.5 1.5 2.4.4 1 .6 2 .6 3.1m-22.6 7.8c-3.2 0-5.6-.9-7.2-2.6-1.7-1.7-2.5-4.2-2.5-7.5 0-1.5.2-2.9.7-4.3.9-2.4 2.8-4.3 5.2-5.1 1.3-.5 2.6-.7 4-.7.7 0 1.5.1 2.2.2.7.1 1.3.3 1.7.4.4.1.9.3 1.3.5.3.1.5.2.7.4l-1.3 3.5c-.7-.4-1.4-.6-2.1-.8-.9-.2-1.8-.3-2.7-.3-.7 0-1.3.1-1.9.3s-1.2.6-1.7 1.1c-.5.6-.9 1.2-1.2 1.9-.3.9-.5 1.9-.5 2.8 0 .8.1 1.7.3 2.5.2.7.5 1.4.9 2 .5.6 1.1 1 1.7 1.3.8.3 1.7.5 2.6.5.6 0 1.1-.1 1.7-.1.5 0 .9-.1 1.3-.3.3-.1.7-.2 1-.3s.5-.3.8-.3l1.2 3.5c-.8.5-1.7.8-2.6 1-1.1.3-2.3.4-3.6.4M64 158c0-.3-.1-.7-.2-1-.1-.3-.3-.6-.5-.9-.2-.3-.5-.5-.8-.7-.4-.2-.8-.3-1.2-.3s-.8.1-1.2.3c-.3.1-.6.3-.8.6s-.4.6-.5.9c-.1.3-.2.7-.3 1.1H64zm-9.8 1.5c0-1.2.2-2.3.6-3.4.3-.9.9-1.7 1.6-2.4.6-.6 1.4-1.1 2.2-1.5.8-.3 1.7-.5 2.6-.5 1.8-.1 3.7.6 5 1.9 1.2 1.3 1.8 3.2 1.8 5.6v.8c0 .3-.1.5-.1.7h-9.5c0 .8.5 1.6 1.2 2 .8.5 1.8.8 2.8.7.7 0 1.5-.1 2.2-.2.6-.1 1.2-.3 1.8-.5l.5 3.4-.9.3c-.4.1-.8.2-1.3.3s-.9.1-1.5.2c-.5.1-1 .1-1.5.1-1.2 0-2.3-.2-3.4-.6-.9-.3-1.7-.9-2.4-1.6-.7-.7-1.2-1.5-1.4-2.4-.1-.9-.3-1.9-.3-2.9m-2.7 0c0 1.1-.2 2.1-.5 3.2-.3.9-.8 1.7-1.5 2.4s-1.5 1.2-2.4 1.5c-1 .4-2.1.5-3.2.5-.5 0-1.1 0-1.6-.1l-1.6-.2c-.5-.1-1-.1-1.5-.3-.5-.1-.9-.2-1.3-.3v-20.5l4.1-.6v7.3c.5-.2 1-.4 1.5-.5s1.1-.2 1.6-.1c.9 0 1.9.2 2.8.5.8.3 1.5.9 2 1.5.6.7 1 1.5 1.2 2.4.3 1.1.4 2.2.4 3.3m-4.2-.2c0-2.7-1-4-3-4-.4 0-.9.1-1.3.1-.3.1-.7.2-1 .4v7.6c.3.1.5.1.8.1s.7.1 1 .1c1 .1 1.9-.4 2.6-1.1.6-1 .9-2.1.9-3.2m-13.6 7c-.7.2-1.6.4-2.8.6-1.2.2-2.3.3-3.5.3-1.1 0-2.1-.1-3.1-.5-.8-.3-1.4-.8-1.9-1.4-.5-.6-.8-1.4-1-2.1-.2-.9-.3-1.8-.3-2.8v-8.2h4.1v7.7c-.1 1 .1 2 .5 2.9.3.6 1 .9 2 .9.3 0 .6 0 .9-.1.3 0 .6-.1.9-.1v-11.3h4.2v14.1zm-19.2.5c-.4-.6-.9-1.3-1.4-2.1s-1.1-1.5-1.7-2.2c-.6-.7-1.3-1.4-1.9-2.1-.6-.6-1.3-1.2-2-1.8v8.2H3v-19.3h4.4v7.3c1.1-1.2 2.3-2.4 3.4-3.8 1.1-1.3 2.2-2.5 3.2-3.6h5.2c-1.3 1.5-2.6 3.1-4 4.5-1.3 1.5-2.8 2.9-4.2 4.4 1.6 1.4 3.1 2.9 4.5 4.6 1.5 1.9 2.9 3.8 4.2 5.8h-5.2v.1z"/><path d="M49.4 81.4L47 82c0-.3-.1-.7-.1-1 0-2.6.7-5.1 2-7.2l4.7 4.2c.1.1.2.2.3.2-.3.7-.5 1.5-.5 2.2-.1.1-.3.1-.5.1l-3.5.9zm9.1-14.2v6.6c-.7.2-1.3.5-1.8.9-.2-.1-.4-.3-.6-.5l-4.8-3.4c2-1.9 4.5-3.2 7.2-3.6M25.9 82.4c2.3-10 4.2-18.5 6.5-28.5 1-4.5 1.7-5.7 5.8-8.1 5.6-3.3 9.9-5.6 15.9-9.1 3.8-2.1 4.5-2 4.5 2.6v23.2c-4.2.5-8.1 2.5-11 5.6l-2-1.4c-.2-.1-.4-.4-.5-.7-.2-.6-.6-1.2-1.1-1.6-.9-.8-2.3-.6-3.1.3-.8.9-.6 2.3.3 3.1.3.3.7.5 1.1.5.3.1.5.1.8.1.2 0 .4.1.6.3l1.9 1.7c-2.1 3.1-3.2 6.7-3.2 10.3 0 .7.1 1.3.1 2l-4.1.9c-.3 0-.6 0-.9.1l-.5.3c-2.7.5-5.4 1.1-8.1 1.7-3.7.9-3.9.1-3-3.3m37.4-8.6v-6.6c2.7.5 5.2 1.7 7.2 3.6l-5.2 3.7c-.1.1-.1.1-.2.1-.5-.3-1.1-.6-1.8-.8m11.6 7.7L68.5 80c-.1-.7-.2-1.4-.5-2 .1-.1.1-.1.2-.1l4.8-4.2c1.4 2.2 2.1 4.7 2.1 7.3-.2.1-.3.3-.2.5M66.5 46c3.5 1.7 6 2.9 9.5 4.6 4.8 2.3 9.7 4.7 14.6 7 1.2 5.2 2.4 10.5 3.6 15.7.7 3.2 1.1 4.8 1.8 7.9 1.1 4.9 1 5.3-4 4.2l-12.4-2.8c.1-.5.1-1.1.1-1.6 0-3.7-1.1-7.4-3.2-10.4l1.7-1.6c.2-.2.5-.3.7-.3.7 0 1.3-.3 1.8-.7.9-.8 1.1-2.1.3-3.1-.8-.9-2.1-1.1-3.1-.3-.3.2-.6.6-.8.9-.1.3-.2.5-.3.7-.1.2-.2.4-.4.5l-2 1.4c-2.9-3.1-6.8-5-11-5.6V48.3c-.1-3.3.2-3.7 3.1-2.3m-4.3 42.3c-.4.1-.8.1-1.3.1-.4 0-.8 0-1.2-.1l-.2.4-3 5.4c1.4.5 2.9.7 4.4.7s3-.3 4.5-.7l-3-5.4c0-.1-.1-.2-.2-.4m5.2-3.6l6.4 1.5c-1.1 2.6-2.9 4.8-5.2 6.4L66 86.4c.6-.5 1-1.1 1.4-1.7M48 86.1l6.4-1.5c.4.6.9 1.2 1.4 1.7l-.2.4-2.3 5.8c-2.4-1.5-4.2-3.7-5.3-6.4m52.8 11.4c-3.1 3.8-4.5 5.6-7.6 9.5-3.5 4.4-6.3 7.9-9.8 12.3-2.5 3.2-4.3 3.2-8.4 3.2H46.8c-5.4 0-5.8 0-9.1-4.2-3.3-4.1-5.8-7.3-9.1-11.4-2.6-3.2-3.2-4-5.8-7.2-4-5-4.6-6.8 1.5-8.1l19.1-4.3c1.5 4 4.3 7.4 8 9.7l-.9 2c-.1.3-.3.5-.5.6-.6.3-1.1.8-1.3 1.4-.5 1.1-.1 2.4 1 3 1.1.5 2.4.1 3-1 .2-.4.3-.8.3-1.2 0-.3 0-.5-.1-.8 0-.2 0-.5.1-.7l1.1-1.9c2.1.8 4.4 1.2 6.6 1.2 2.3 0 4.6-.4 6.7-1.3l1.1 1.9c.1.2.2.5.1.8-.1.6 0 1.3.3 1.9.5 1.1 1.9 1.5 3 1s1.5-1.9 1-3c-.2-.4-.4-.7-.7-1-.2-.2-.4-.3-.7-.5-.2-.1-.3-.3-.4-.5l-.9-2.1c3.7-2.2 6.5-5.6 7.9-9.7l21 4.8c4.4 1 4.1 2.5 1.7 5.6" class="st4"/><path d="M63.3 73.8v-6.6c2.7.5 5.2 1.7 7.2 3.6l-5.2 3.7c-.1.1-.1.1-.2.1-.5-.3-1.1-.6-1.8-.8m11.6 7.7L68.5 80c-.1-.7-.2-1.4-.5-2 .1-.1.1-.1.2-.1l4.8-4.2c1.4 2.2 2.1 4.7 2.1 7.3-.2.1-.3.3-.2.5M66.5 46c3.5 1.7 6 2.9 9.5 4.6 4.8 2.3 9.7 4.7 14.6 7 1.2 5.2 2.4 10.5 3.6 15.7.7 3.2 1.1 4.8 1.8 7.9 1.1 4.9 1 5.3-4 4.2l-12.4-2.8c.1-.5.1-1.1.1-1.6 0-3.7-1.1-7.4-3.2-10.4l1.7-1.6c.2-.2.5-.3.7-.3.7 0 1.3-.3 1.8-.7.9-.8 1.1-2.1.3-3.1-.8-.9-2.1-1.1-3.1-.3-.3.2-.6.6-.8.9-.1.3-.2.5-.3.7-.1.2-.2.4-.4.5l-2 1.4c-2.9-3.1-6.8-5-11-5.6V48.3c-.1-3.3.2-3.7 3.1-2.3m.9 38.7l6.4 1.5c-1.1 2.6-2.9 4.8-5.2 6.4L66 86.4c.6-.5 1-1.1 1.4-1.7m-6.5 10.1v-6.4c.4 0 .9-.1 1.3-.1.1.2.2.3.3.5l3 5.4c-1.6.4-3.1.6-4.6.6m39.9 2.7c-3.1 3.8-4.5 5.6-7.6 9.5-3.5 4.4-6.3 7.9-9.8 12.3-2.5 3.2-4.3 3.2-8.4 3.2H61v-23c2.3 0 4.6-.4 6.7-1.3l1.1 1.9c.1.2.2.5.1.8-.1.6 0 1.3.3 1.9.5 1.1 1.9 1.5 3 1s1.5-1.9 1-2.9c-.2-.4-.4-.7-.7-1-.2-.2-.4-.3-.7-.5-.2-.1-.3-.3-.4-.5l-.9-2.1c3.7-2.2 6.5-5.6 7.9-9.7l21 4.8c4.1 1 3.8 2.5 1.4 5.6" class="st4"/><path d="M256.5 96.7h-11.1v26h26v-11.1h-14.8c-.1 0-.1-14.9-.1-14.9zm55.8 0v14.8h-14.8l-.1-.1v11.3h26v-26h-11.1zm-67-26.1h11.2l-.1-.1V55.7h14.8l.1.1V44.6h-26v26zm52.1-26v11.1h14.9v14.9h11.1v-26h-26z"/><path d="M296 70.6l-14.9-14.9h16.2V44.6h-26v11.3l14.8 14.8c.1-.1 9.9-.1 9.9-.1zm-13.4 26.1h-9.9l12.4 12.4 2.6 2.6h-16.3v11.1h26v-11.3l-7.4-7.4-7.4-7.4zm29.7-26.1v16.2l-2.6-2.6-12.4-12.3v9.9l7.5 7.4 7.4 7.4h11.2v-26h-11.1zm-41 14.8l-14.8-14.8h-11.3v26h11.2V80.4l14.8 14.8v-9.8h.1z" opacity=".8"/><path d="M190.8 151.1l-2.8 3.4c-1.2-1.5-2.9-2.4-4.8-2.5-3 0-5.4 2.4-5.4 5.4v.2c0 3.2 2.3 5.6 5.4 5.6 1.8-.1 3.6-.9 4.8-2.3l2.9 3c-2.1 2.1-4.9 3.4-7.9 3.5-5.8 0-10.1-4.2-10.1-9.9 0-5.6 4.4-9.7 10.3-9.7 2.9.1 5.6 1.3 7.6 3.3zm2.4 16.1v-20.3h4.8v20.3h-4.8zm23.6-7.4c0 4.6-3.2 7.6-8.1 7.6s-8.1-3-8.1-7.6 3.2-7.5 8.1-7.5 8.1 3 8.1 7.5zm-11.4.1c0 2.3 1.3 3.8 3.3 3.8 1.9 0 3.3-1.5 3.3-3.8s-1.3-3.8-3.3-3.8c-1.9 0-3.3 1.5-3.3 3.8zm28.4 7.3H229v-2.4c-1 1.7-2.9 2.7-4.8 2.6-3.2 0-5.3-2.2-5.3-5.6v-9.3h4.8v8c0 1.7.9 2.8 2.5 2.8 1.8 0 2.9-1.5 2.9-3.5v-7.3h4.8l-.1 14.7zm18.7 0h-4.8v-1.9c-1.1 1.4-2.7 2.2-4.4 2.1-4.2 0-6.9-3.1-6.9-7.7 0-4.5 2.7-7.5 6.8-7.5 1.8-.1 3.5.7 4.6 2.1v-7.5h4.8v20.4h-.1zm-4.8-7.3c0-2.3-1.3-3.8-3.3-3.8-1.9 0-3.3 1.5-3.3 3.8s1.3 3.9 3.3 3.9c2-.1 3.3-1.6 3.3-3.9zm22.1 7.3l-8.9-11.8v11.8h-4.6V148h4.3l8.9 11.9V148h4.6v19.2h-4.3zm21.3-9.7v9.7h-4.6v-1.7c-.9 1.3-2.6 1.9-4.5 1.9-3.2 0-5.1-1.9-5.1-4.6 0-2.8 2-4.4 5.7-4.5h3.9v-.2c0-1.5-.9-2.3-2.9-2.3-1.5.1-3.1.5-4.4 1.2l-1.3-3.2c2.1-1.1 4.5-1.7 6.8-1.7 4 .1 6.4 2.1 6.4 5.4zm-4.7 4.7v-1.3h-3c-1.4 0-2.1.5-2.1 1.6s.7 1.7 2.1 1.7c1.3.1 2.6-.7 3-2zm17.5 4.3c-1.2.7-2.6 1-4 1-2.9 0-4.9-1.6-4.9-4.7v-6.5h-2.1v-3.1h2.1v-4.1h4.7v4.1h3.9v3.2h-3.9v5.8c0 1.1.5 1.7 1.3 1.6.6-.1 1.2-.2 1.8-.5l1.1 3.2zm7.2-18.3c.1 1.4-1 2.5-2.4 2.5h-.1c-1.4 0-2.5-1.2-2.5-2.6 0-1.4 1.1-2.5 2.5-2.5 1.3-.1 2.4.9 2.5 2.2v.4zm-4.9 19v-14.8h4.7v14.8h-4.7zm12.1 0l-5.6-14.8h4.9l3.2 10.5 3.2-10.5h4.7l-5.6 14.8h-4.8zm26.1-6.1H334c.3 1.6 1.8 2.8 3.5 2.8 1.3 0 2.6-.6 3.6-1.5l2.5 2.4c-1.7 1.8-4 2.7-6.4 2.6-4.8 0-7.9-3-7.9-7.5 0-4.6 3.2-7.6 7.7-7.6 5.1 0 7.7 3.4 7.4 8.8zm-4.5-2.6c.1-1.5-1-2.9-2.5-3h-.3c-1.7 0-2.8 1.2-3.1 3h5.9zm23.9-7.4l-2.8 3.4c-1.2-1.5-2.9-2.4-4.8-2.5-3 0-5.4 2.4-5.4 5.4v.2c0 3.2 2.3 5.6 5.4 5.6 1.8-.1 3.6-.9 4.8-2.3l2.9 3c-2.1 2.1-4.9 3.4-7.9 3.5-5.8 0-10.1-4.2-10.1-9.9 0-5.6 4.4-9.7 10.3-9.7 2.8.1 5.5 1.3 7.6 3.3zm16.5 8.7c0 4.6-3.2 7.6-8.1 7.6-4.8 0-8.1-3-8.1-7.6s3.2-7.5 8.1-7.5c4.9 0 8.1 3 8.1 7.5zm-11.3.1c0 2.3 1.3 3.8 3.3 3.8 1.9 0 3.3-1.5 3.3-3.8s-1.3-3.8-3.3-3.8-3.3 1.5-3.3 3.8zm29-2v9.3h-4.7v-8c0-1.7-1-2.8-2.6-2.8-1.7 0-2.8 1.2-3 3v7.9h-4.8v-14.8h4.8v2.4c1-1.7 3-2.7 5-2.6 3.1-.1 5.3 2.1 5.3 5.6z"/><path d="M147.6 35.9h.7v136.6h-.7V35.9z" class="st0" id="b_00000049215734725413809840000010995902945715057082_"/><path d="M147.6 35.9h.7v136.6h-.7V35.9z" class="st0"/><path d="M147.6 35.9h.7v136.6h-.7V35.9z" class="st0"/><path id="SVGID_00000034070691202384417250000005172136100856009626_" d="M147.6 35.9h.7v136.6h-.7z" class="st0"/><defs><path id="SVGID_00000097494981432426332470000002892295346463649707_" d="M147.6 35.9h.7v136.6h-.7z"/></defs><use fill="#111245" overflow="visible" xlink:href="#SVGID_00000097494981432426332470000002892295346463649707_"/><clipPath id="SVGID_00000060026830500913228140000013936450476762866096_"><use overflow="visible" xlink:href="#SVGID_00000097494981432426332470000002892295346463649707_"/></clipPath><g clip-path="url(#SVGID_00000060026830500913228140000013936450476762866096_)"><path d="M147.6 35.9h.7v136.6h-.7V35.9z" class="st0"/></g><g><path d="M278 196.5h120v.5H278v-.5zm-276 0h117.2v.5H2v-.5z" class="st0"/></g><g><path d="M131.5 191.7v1.7h7.2v3.8h-7.2v2h7.9v3.8h-12.2v-15.1h12.2v3.8h-7.9zm21.8-.1V203h-4.2v-1.1c-.7.9-1.8 1.4-3.2 1.4-2.4 0-4.2-1.8-4.2-4.4v-7.2h4v6.2c0 1.1.7 1.9 1.7 1.9.9 0 1.6-.7 1.6-1.7v-6.4h4.3zm10.4-.2v3.5c-2.2 0-3.6 1.2-3.6 3.3v4.8h-4.2v-11.4h4.2v2c.8-1.4 2.1-2.2 3.6-2.2zm1.5 5.9c0-3.3 2.9-5.9 6.4-5.9 3.5 0 6.4 2.7 6.4 5.9 0 3.3-2.9 6-6.4 6-3.5 0-6.4-2.7-6.4-6zm8.9 0c0-1.3-1.1-2.4-2.4-2.4-1.3 0-2.4 1.1-2.4 2.4s1.1 2.4 2.4 2.4c1.3 0 2.4-1.1 2.4-2.4zm19 0c0 3.5-2.2 6-5.2 6-1.5 0-2.7-.6-3.6-1.6v5.1H180v-15.2h4.2v1.3c.9-1 2.2-1.6 3.6-1.6 3.1.1 5.3 2.5 5.3 6zm-4.1 0c0-1.4-1-2.4-2.5-2.4-1.3 0-2.3 1-2.3 2.4s.9 2.4 2.3 2.4c1.5 0 2.5-1 2.5-2.4zm14.1 1.8l2.3 2.4c-1 1-2.9 1.8-4.7 1.8-3.6 0-6.3-2.5-6.3-6s2.6-5.9 6.1-5.9c3.7 0 5.9 2.6 5.9 7h-8.1c.3 1.1 1.1 1.8 2.1 1.8 1-.1 1.9-.5 2.7-1.1zm-4.6-3h3.9c-.3-.9-.9-1.6-1.8-1.6-1.1 0-1.8.6-2.1 1.6zm15.4 3.4l5.6-4c1.6-1.1 2-1.8 2-2.6s-.7-1.4-1.7-1.4c-1.3 0-2.3.6-3.5 1.8l-2.6-2.7c1.7-2 3.7-3 6.2-3 3.6 0 6 2.2 6 5.1 0 2-.8 3.5-3.5 5.2l-2 1.3h5.6v3.8h-12.1v-3.5zm14-4.1c0-4.6 2.9-7.8 7.1-7.8s7.1 3.2 7.1 7.8-2.9 7.8-7.1 7.8-7.1-3.2-7.1-7.8zm9.8 0c0-2.3-1.1-3.9-2.7-3.9s-2.7 1.6-2.7 3.9 1.1 4 2.7 4 2.7-1.7 2.7-4zm6.3 4.1l5.6-4c1.6-1.1 2-1.8 2-2.6s-.7-1.4-1.7-1.4c-1.3 0-2.3.6-3.5 1.8l-2.6-2.7c1.7-2 3.7-3 6.2-3 3.6 0 6 2.2 6 5.1 0 2-.8 3.5-3.5 5.2l-2 1.3h5.6v3.8H244v-3.5zm27-1.6c0 3.3-2.7 5.4-6.1 5.4-4.6 0-6.9-3.1-6.9-7.5 0-4.9 2.8-8.1 7.5-8.1 1.9 0 3.5.6 4.9 1.5l-1.9 3.2c-.9-.7-1.7-1-2.9-1-1.6 0-2.6.9-3 2.6.9-.6 2.1-.9 3.3-.9 2.8-.1 5.1 1.7 5.1 4.8zm-4.4.1c0-1-1-1.6-2.1-1.6-.9 0-1.6.4-2 1.2.2 1.5.7 2.1 2.1 2.1 1.2-.1 2-.7 2-1.7z"/></g></svg>