<?xml version="1.0" encoding="UTF-8" standalone="no"?>
<svg
   width="1984"
   height="1428"
   version="1.1"
   xml:space="preserve"
   style="clip-rule:evenodd;fill-rule:evenodd;stroke-linejoin:round;stroke-miterlimit:2"
   id="svg119"
   sodipodi:docname="logo-black-vertical.svg"
   inkscape:version="1.4 (e7c3feb100, 2024-10-09)"
   viewBox="-400 0 1984 1428"
   xmlns:inkscape="http://www.inkscape.org/namespaces/inkscape"
   xmlns:sodipodi="http://sodipodi.sourceforge.net/DTD/sodipodi-0.dtd"
   xmlns="http://www.w3.org/2000/svg"
   xmlns:svg="http://www.w3.org/2000/svg"><defs
   id="defs119" /><sodipodi:namedview
   id="namedview119"
   pagecolor="#7d7d7d"
   bordercolor="#666666"
   borderopacity="1.0"
   inkscape:showpageshadow="2"
   inkscape:pageopacity="0.0"
   inkscape:pagecheckerboard="0"
   inkscape:deskcolor="#d1d1d1"
   inkscape:zoom="0.45803485"
   inkscape:cx="848.18873"
   inkscape:cy="756.49265"
   inkscape:window-width="1910"
   inkscape:window-height="1170"
   inkscape:window-x="30"
   inkscape:window-y="71"
   inkscape:window-maximized="0"
   inkscape:current-layer="svg119" />
    <g
   transform="translate(-3023.86,-398.615)"
   id="g119"
   style="fill:#000000">
        <g
   transform="matrix(4.16667,0,0,4.16667,2503.12,0)"
   id="g2"
   style="fill:#000000">
            <g
   transform="translate(379.634,320.896)"
   id="g1"
   style="fill:#000000">
                <path
   d="M 0,-14.112 V 2.436 h -2.688 v -16.548 h -7.28 v -2.436 h 17.22 v 2.436 z M -31.712,2.632 c -2.539,0 -4.611,-0.429 -6.216,-1.288 -2.054,-1.12 -3.08,-2.875 -3.08,-5.264 v -1.232 h 2.716 v 1.148 c 0,2.8 2.202,4.2 6.608,4.2 1.605,0 2.912,-0.224 3.92,-0.672 1.194,-0.504 1.792,-1.26 1.792,-2.268 0,-0.728 -0.187,-1.26 -0.56,-1.596 -0.374,-0.336 -1.036,-0.635 -1.988,-0.896 -0.56,-0.149 -1.876,-0.429 -3.948,-0.84 -2.446,-0.485 -4.116,-0.943 -5.012,-1.372 -1.923,-0.915 -2.884,-2.296 -2.884,-4.144 0,-3.435 2.706,-5.152 8.12,-5.152 5.637,0 8.493,2.305 8.568,6.916 h -2.632 c -0.131,-1.979 -0.71,-3.229 -1.736,-3.752 -0.915,-0.485 -2.315,-0.728 -4.2,-0.728 -3.622,0 -5.432,0.905 -5.432,2.716 0,0.859 0.429,1.503 1.288,1.932 0.709,0.336 1.95,0.653 3.724,0.952 3.472,0.579 5.805,1.204 7,1.876 1.586,0.896 2.38,2.277 2.38,4.144 0,1.885 -0.999,3.295 -2.996,4.228 -1.512,0.728 -3.323,1.092 -5.432,1.092 M -70.197,2.436 v -18.984 h 15.708 v 2.436 h -13.048 v 5.46 h 11.564 v 2.436 H -67.537 V 0 h 13.188 V 2.436 Z M -91.984,-14.112 H -98.9 v 6.356 h 6.944 c 1.344,0 2.436,-0.261 3.276,-0.784 0.915,-0.56 1.372,-1.325 1.372,-2.296 0,-2.184 -1.558,-3.276 -4.676,-3.276 m 4.676,7.644 c -1.381,0.765 -3.098,1.148 -5.152,1.148 h -6.44 v 7.756 h -2.688 v -18.984 h 9.436 c 5.04,0 7.56,1.895 7.56,5.684 0,1.941 -0.905,3.407 -2.716,4.396 m -37.596,-6.132 -3.528,7 h 6.944 z m 7.308,15.036 -2.716,-5.6 h -9.352 l -2.772,5.6 h -3.024 l 9.52,-18.984 h 2.1 l 9.184,18.984 z m -34.936,-14.7 c -1.232,-1.232 -3.117,-1.848 -5.656,-1.848 h -5.544 V 0 h 4.592 c 2.688,0 4.751,-0.588 6.188,-1.764 1.456,-1.195 2.184,-2.949 2.184,-5.264 0,-2.315 -0.588,-4.06 -1.764,-5.236 m 1.288,12.32 c -1.96,1.587 -4.62,2.38 -7.98,2.38 h -7.196 v -18.984 h 8.26 c 3.304,0 5.824,0.859 7.56,2.576 1.68,1.661 2.52,3.976 2.52,6.944 0,3.043 -1.054,5.404 -3.164,7.084 m -32.649,0.868 c -1.419,1.139 -3.547,1.708 -6.384,1.708 -5.824,0 -8.736,-2.501 -8.736,-7.504 v -11.676 h 2.688 v 11.676 c 0,1.717 0.476,2.996 1.428,3.836 0.97,0.821 2.51,1.232 4.62,1.232 2.09,0 3.63,-0.42 4.62,-1.26 0.952,-0.784 1.428,-2.025 1.428,-3.724 v -11.76 h 2.688 v 11.732 c 0,2.576 -0.784,4.489 -2.352,5.74 m -33.701,-6.356 c -0.915,-0.504 -2.138,-0.756 -3.668,-0.756 h -7.252 V 0 h 7.364 c 1.437,0 2.594,-0.252 3.472,-0.756 0.989,-0.541 1.484,-1.316 1.484,-2.324 0,-1.064 -0.467,-1.848 -1.4,-2.352 m -0.448,-7.98 c -0.803,-0.467 -1.848,-0.7 -3.136,-0.7 h -7.336 v 5.46 h 7.308 c 1.288,0 2.333,-0.233 3.136,-0.7 0.821,-0.467 1.232,-1.148 1.232,-2.044 0,-0.896 -0.402,-1.568 -1.204,-2.016 m 1.764,14.728 c -1.382,0.747 -3.118,1.12 -5.208,1.12 h -9.716 v -18.984 h 10.08 c 1.885,0 3.453,0.392 4.704,1.176 1.512,0.933 2.268,2.296 2.268,4.088 0,1.512 -0.738,2.744 -2.212,3.696 1.885,0.896 2.828,2.389 2.828,4.48 0,1.979 -0.915,3.453 -2.744,4.424"
   style="fill:#000000;fill-rule:nonzero"
   id="path1" />
            </g>
        </g>
        <g
   transform="matrix(4.16667,0,0,4.16667,2503.12,0)"
   id="g4"
   style="fill:#000000">
            <g
   transform="translate(268.468,415.03)"
   id="g3"
   style="fill:#000000">
                <path
   d="m 0,-67.698 h -20.985 l -20.789,25.415 V -67.698 H -58.255 V 0 h 16.481 V -15.958 L -35.54,-23.693 -17.395,0 H 3.199 l -28.067,-36.953 z"
   style="fill:#000000;fill-rule:nonzero"
   id="path2" />
            </g>
        </g>
        <g
   transform="matrix(4.16667,0,0,4.16667,2503.12,0)"
   id="g6"
   style="fill:#000000">
            <g
   transform="translate(390.007,371.902)"
   id="g5"
   style="fill:#000000">
                <path
   d="m 0,18.558 c -1.664,2.762 -3.884,4.972 -6.69,6.565 -2.807,1.625 -5.908,2.405 -9.269,2.405 h -12.434 v -36.53 h 12.434 c 3.361,0 6.462,0.812 9.269,2.47 2.806,1.657 5.058,3.867 6.69,6.662 1.664,2.795 2.48,5.883 2.48,9.23 0,3.348 -0.848,6.435 -2.48,9.198 m 1.534,-38.643 c -5.32,-2.99 -11.162,-4.485 -17.493,-4.485 h -28.948 v 67.698 h 28.948 c 6.397,0 12.271,-1.463 17.623,-4.388 5.353,-2.925 9.563,-6.955 12.663,-12.025 3.101,-5.102 4.667,-10.79 4.667,-17.127 0,-6.305 -1.566,-12.09 -4.699,-17.323 -3.166,-5.232 -7.409,-9.36 -12.761,-12.35"
   style="fill:#000000;fill-rule:nonzero"
   id="path4" />
            </g>
        </g>
        <g
   transform="matrix(4.16667,0,0,4.16667,2503.12,0)"
   id="g8"
   style="fill:#000000">
            <g
   transform="translate(321.47,373.007)"
   id="g7"
   style="fill:#000000">
                <path
   d="m 0,16.315 c -1.436,2.925 -3.59,5.298 -6.462,7.02 -2.84,1.755 -5.973,2.633 -9.367,2.633 -3.263,0 -6.266,-0.813 -8.975,-2.405 -2.741,-1.593 -4.895,-3.738 -6.527,-6.468 -1.632,-2.73 -2.448,-5.687 -2.448,-8.937 0,-3.25 0.816,-6.24 2.448,-8.938 1.632,-2.73 3.818,-4.875 6.527,-6.5 2.742,-1.625 5.712,-2.437 8.975,-2.437 3.329,0 6.397,0.877 9.171,2.567 2.807,1.723 4.961,3.965 6.527,6.695 l 14.132,-7.507 c -2.872,-5.363 -7.017,-9.685 -12.337,-12.903 -5.319,-3.185 -11.161,-4.81 -17.493,-4.81 -6.135,0 -11.847,1.528 -17.036,4.55 -5.222,3.023 -9.334,7.15 -12.369,12.318 -3.035,5.2 -4.569,10.855 -4.569,16.965 0,6.11 1.534,11.797 4.569,16.965 3.035,5.2 7.18,9.295 12.369,12.317 5.189,3.023 10.901,4.55 17.036,4.55 6.332,0 12.206,-1.625 17.591,-4.907 5.385,-3.283 9.53,-7.638 12.435,-13.065 z"
   style="fill:#000000;fill-rule:nonzero"
   id="path6" />
            </g>
        </g>
        <g
   transform="matrix(4.16667,0,0,4.16667,2503.12,0)"
   id="g10"
   style="fill:#000000">
            <g
   transform="translate(195.037,373.722)"
   id="g9"
   style="fill:#000000">
                <path
   d="m 0,14.853 -6.037,-26.065 c -0.327,-1.365 -1.241,-2.503 -2.513,-3.12 l -24.412,-11.603 c -1.273,-0.617 -2.774,-0.617 -4.047,0 l -24.379,11.603 c -1.273,0.617 -2.187,1.755 -2.513,3.12 l -6.038,26.065 c -0.163,0.65 -0.163,1.332 0,2.015 0.033,0.195 0.098,0.39 0.163,0.585 0.131,0.325 0.261,0.65 0.457,0.942 0.098,0.13 0.163,0.26 0.261,0.358 l 8.681,10.725 c 0.033,-0.13 0.033,-0.293 0.066,-0.423 0.163,-1.105 -0.196,-2.08 -0.555,-3.087 -0.62,-1.69 -1.469,-3.315 -1.73,-5.135 -0.261,-2.08 -0.196,-4.16 -0.163,-6.24 0.033,-1.17 -0.294,-2.21 -0.653,-3.283 -0.457,-1.43 -1.109,-2.795 -1.305,-4.29 -0.098,-0.747 -0.131,-1.495 0.098,-2.242 0.163,-0.455 0.424,-0.845 0.913,-0.845 0.49,0 0.816,0.357 0.947,0.812 0.261,0.91 0.457,1.853 0.653,2.795 0.293,1.333 0.718,2.633 1.272,3.9 0.359,0.813 0.653,0.845 1.208,0.13 0.261,-0.357 0.392,-0.78 0.392,-1.235 0.13,-2.535 0.261,-5.037 0.391,-7.572 0.066,-0.813 0.229,-1.625 0.522,-2.405 0.196,-0.585 0.621,-1.073 1.306,-0.975 0.685,0.097 0.718,0.747 0.685,1.3 -0.196,2.535 -0.261,5.037 -0.163,7.572 0,0.553 -0.033,1.073 0.392,1.788 0.032,-3.38 1.011,-6.37 1.403,-9.49 0.033,-0.423 0.163,-0.813 0.326,-1.17 0.294,-0.52 0.816,-0.78 1.371,-0.683 0.62,0.13 0.62,0.683 0.588,1.17 -0.196,1.723 -0.49,3.445 -0.653,5.168 -0.196,1.82 -0.261,3.672 -0.424,5.655 0.522,-0.39 0.522,-0.845 0.62,-1.235 0.457,-1.625 0.946,-3.283 1.109,-4.973 0.066,-0.455 0.163,-0.877 0.359,-1.267 0.229,-0.618 0.718,-1.008 1.338,-0.91 0.653,0.097 0.555,0.78 0.588,1.267 0.065,2.21 -0.424,4.355 -0.718,6.5 -0.392,2.568 -0.424,5.168 -0.098,7.768 0.033,0.292 0.13,0.617 0.228,0.877 0.392,1.073 0.882,1.235 1.861,0.65 0.261,-0.162 0.522,-0.325 0.75,-0.552 1.502,-1.43 3.231,-1.235 4.994,-0.618 0.391,0.13 0.718,0.39 0.946,0.748 0.457,0.78 0.261,1.365 -0.653,1.3 -2.578,-0.228 -4.047,1.267 -5.45,3.022 -0.881,1.105 -2.187,1.528 -3.427,1.95 -1.077,0.358 -1.403,0.943 -1.37,2.048 0.065,3.997 0.065,7.995 0.065,11.992 v 0.13 l 0.196,0.26 c 0.065,0.098 0.163,0.163 0.228,0.26 0.261,0.293 0.555,0.52 0.881,0.748 0.425,0.26 0.849,0.455 1.338,0.585 0.392,0.097 0.784,0.162 1.175,0.162 h 0.261 l 10.477,-0.13 c 0.032,-1.982 0.065,-3.965 0.098,-5.915 0.032,-2.957 0.946,-5.785 1.272,-8.677 0.457,-3.9 0.457,-7.833 -0.032,-11.7 -0.131,-1.235 -0.653,-2.08 -1.926,-2.568 -1.338,-0.487 -2.023,-1.852 -2.97,-2.86 -2.839,-2.99 -4.928,-6.597 -7.996,-9.425 -0.326,-0.292 -0.457,-0.682 -0.261,-1.072 0.261,-0.553 0.849,-0.91 1.469,-0.845 1.273,0.065 2.284,0.65 3.133,1.56 0.979,1.007 1.893,2.015 3.035,2.86 1.208,0.91 1.599,0.78 2.219,-0.553 1.143,-2.437 1.208,-4.94 0.523,-7.507 -0.686,-2.665 -1.665,-5.298 -1.534,-8.125 0.065,-1.658 0.457,-2.633 1.305,-2.6 1.436,0.065 1.273,1.365 1.436,2.242 0.522,2.828 1.045,5.688 2.121,8.385 0.131,0.358 0.164,1.04 0.751,0.878 0.457,-0.13 0.261,-0.683 0.229,-1.04 -0.229,-3.348 -0.588,-6.695 0.032,-10.043 0.098,-0.585 0.163,-1.17 0.555,-1.657 0.359,-0.423 0.783,-0.715 1.338,-0.553 0.522,0.163 0.751,0.585 0.751,1.105 0.032,1.268 0.098,2.535 0,3.803 -0.163,2.437 0.293,4.81 0.522,7.215 0.033,0.325 0,0.845 0.457,0.845 0.359,0 0.555,-0.455 0.62,-0.78 0.587,-2.535 1.566,-5.005 1.893,-7.605 0.098,-0.65 0.163,-1.333 0.489,-1.95 0.294,-0.52 0.653,-0.748 1.241,-0.65 0.652,0.097 0.979,0.455 1.011,1.105 0.033,0.325 0.033,0.617 -0.032,0.942 -0.588,3.185 -0.882,6.435 -1.861,9.555 -0.032,0.163 -0.065,0.293 -0.098,0.455 -0.065,0.358 -0.195,0.813 0.164,0.975 0.424,0.228 0.718,-0.227 0.946,-0.52 1.306,-1.56 2.546,-3.152 3.394,-5.005 0.131,-0.325 0.327,-0.617 0.588,-0.877 0.359,-0.39 0.816,-0.65 1.403,-0.423 0.653,0.293 0.424,0.845 0.359,1.333 -0.098,0.845 -0.424,1.625 -0.914,2.307 -2.741,3.705 -3.655,7.93 -3.622,12.415 0,1.333 -0.327,2.665 -0.914,3.868 -0.555,1.17 -0.588,2.405 -0.522,3.705 0.228,4.225 1.109,8.385 1.599,12.577 0.587,4.973 0.816,9.978 0.424,14.95 h 3.623 c 0.163,0 0.326,0 0.489,-0.032 0.229,-0.033 0.457,-0.065 0.686,-0.13 0.163,-0.033 0.326,-0.098 0.489,-0.163 0.131,-0.032 0.229,-0.097 0.359,-0.162 0.163,-0.098 0.359,-0.163 0.522,-0.293 0.425,-0.26 0.816,-0.585 1.11,-0.975 l 0.196,-0.487 c 0.424,-5.168 -0.098,-10.303 -0.359,-15.438 -0.131,-2.73 -2.676,-5.947 -6.103,-6.012 -0.62,0 -1.469,0.195 -1.501,-0.845 0,-0.845 0.554,-1.365 1.403,-1.495 1.077,-0.163 2.154,-0.065 3.166,0.325 2.088,0.747 3.296,-0.325 2.708,-2.535 -0.62,-2.405 -1.011,-4.843 -1.207,-7.313 -0.065,-0.65 -0.163,-1.3 0.032,-1.95 0.196,-0.617 0.49,-1.17 1.241,-1.137 0.816,0.032 0.75,0.747 0.848,1.3 0.359,2.08 0.816,4.095 1.86,6.175 0.49,-0.813 0.523,-1.56 0.588,-2.21 0.098,-1.56 0.62,-3.055 0.783,-4.615 0.033,-0.293 0.131,-0.553 0.294,-0.813 0.261,-0.455 0.62,-0.812 1.207,-0.682 0.653,0.13 0.849,0.65 0.816,1.235 -0.098,1.462 -0.261,2.957 -0.391,4.42 -0.066,0.877 -0.131,1.722 0.032,2.665 0.588,-1.658 1.175,-3.315 1.73,-4.973 0.294,-0.845 0.359,-2.047 1.632,-1.69 1.142,0.358 0.522,1.43 0.359,2.145 -0.392,1.983 -0.914,3.933 -1.371,5.915 -0.098,0.455 -0.326,1.04 0.261,1.333 0.522,0.26 0.816,-0.293 1.11,-0.618 1.175,-1.3 2.284,-2.632 3.459,-3.9 0.327,-0.357 0.686,-1.007 1.338,-0.585 0.555,0.39 0.425,1.04 0.164,1.593 -0.457,1.007 -1.077,1.95 -1.795,2.795 -1.11,1.267 -1.926,2.665 -2.187,4.355 -0.163,1.105 -0.457,2.177 -0.914,3.185 -1.338,2.795 -1.403,5.687 -0.946,8.677 0.032,0.195 0.065,0.39 0.098,0.585 l 8.322,-10.302 c 0.326,-0.39 0.555,-0.845 0.718,-1.3 0.065,-0.195 0.13,-0.39 0.163,-0.585 C 0.131,16.185 0.131,15.503 0,14.853"
   style="fill:#000000;fill-rule:nonzero"
   id="path8" />
            </g>
        </g>
        <g
   transform="matrix(4.16667,0,0,4.16667,2503.12,0)"
   id="g12"
   style="fill:#000000">
            <g
   transform="translate(131.43,433.781)"
   id="g11"
   style="fill:#000000">
                <path
   d="M -0.032,-1.235 H 4.406 V 2.893 C 3.427,3.933 1.861,4.55 0.359,4.55 c -2.904,0 -5.385,-2.372 -5.385,-5.167 0,-2.795 2.481,-5.168 5.385,-5.168 1.502,0 3.035,0.618 4.047,1.658 L 2.84,-2.73 C 2.252,-3.412 1.273,-3.835 0.359,-3.835 c -1.729,0 -3.165,1.495 -3.165,3.218 0,1.755 1.436,3.217 3.165,3.217 0.686,0 1.371,-0.227 1.926,-0.65 V 0.423 h -2.317 z"
   style="fill:#000000;fill-rule:nonzero"
   id="path10" />
            </g>
        </g>
        <g
   transform="matrix(4.16667,0,0,4.16667,2503.12,0)"
   id="g14"
   style="fill:#000000">
            <g
   transform="translate(140.145,433.391)"
   id="g13"
   style="fill:#000000">
                <path
   d="m 0,-0.422 h 2.122 c 1.077,0 1.795,-0.553 1.795,-1.398 0,-0.845 -0.718,-1.397 -1.795,-1.397 H 0 Z M 3.623,1.365 6.038,4.778 H 3.59 L 1.306,1.528 H 0 v 3.25 H -2.154 V -5.2 H 2.35 c 2.187,0 3.786,1.398 3.786,3.38 0,1.528 -1.012,2.73 -2.513,3.185"
   style="fill:#000000;fill-rule:nonzero"
   id="path12" />
            </g>
        </g>
        <g
   transform="matrix(4.16667,0,0,4.16667,2503.12,0)"
   id="g16"
   style="fill:#000000">
            <g
   transform="translate(156.104,433.163)"
   id="g15"
   style="fill:#000000">
                <path
   d="m 0,0.001 c 0,-1.723 -1.436,-3.218 -3.1,-3.218 -1.697,0 -3.133,1.495 -3.133,3.218 0,1.755 1.436,3.217 3.133,3.217 1.664,0 3.1,-1.495 3.1,-3.217 m -8.453,0 c 0,-2.795 2.448,-5.168 5.353,-5.168 2.904,0 5.319,2.34 5.319,5.168 0,2.795 -2.415,5.167 -5.319,5.167 -2.905,0 -5.353,-2.372 -5.353,-5.167"
   style="fill:#000000;fill-rule:nonzero"
   id="path14" />
            </g>
        </g>
        <g
   transform="matrix(4.16667,0,0,4.16667,2503.12,0)"
   id="g18"
   style="fill:#000000">
            <g
   transform="translate(159.399,438.138)"
   id="g17"
   style="fill:#000000">
                <path
   d="m 0,-9.978 h 2.35 l 1.86,6.695 2.22,-6.695 h 2.35 l 2.219,6.695 1.827,-6.695 h 2.35 L 12.141,0 H 9.954 L 7.605,-6.858 5.222,0 H 3.036 Z"
   style="fill:#000000;fill-rule:nonzero"
   id="path16" />
            </g>
        </g>
        <g
   transform="matrix(4.16667,0,0,4.16667,2503.12,0)"
   id="g20"
   style="fill:#000000">
            <g
   transform="translate(0,332.298)"
   id="g19"
   style="fill:#000000">
                <rect
   x="176.272"
   y="95.862"
   width="2.154"
   height="9.9779997"
   style="fill:#000000"
   id="rect18" />
            </g>
        </g>
        <g
   transform="matrix(4.16667,0,0,4.16667,2503.12,0)"
   id="g22"
   style="fill:#000000">
            <g
   transform="translate(180.938,438.138)"
   id="g21"
   style="fill:#000000">
                <path
   d="M 0,-9.978 H 2.154 L 6.985,-3.51 V -9.978 H 9.139 V 0 H 6.985 L 2.154,-6.468 V 0 H 0 Z"
   style="fill:#000000;fill-rule:nonzero"
   id="path20" />
            </g>
        </g>
        <g
   transform="matrix(4.16667,0,0,4.16667,2503.12,0)"
   id="g24"
   style="fill:#000000">
            <g
   transform="translate(197.028,433.781)"
   id="g23"
   style="fill:#000000">
                <path
   d="M -0.033,-1.235 H 4.406 V 2.893 C 3.427,3.933 1.86,4.55 0.359,4.55 c -2.905,0 -5.385,-2.372 -5.385,-5.167 0,-2.795 2.48,-5.168 5.385,-5.168 1.501,0 3.035,0.618 4.047,1.658 L 2.839,-2.73 c -0.587,-0.682 -1.566,-1.105 -2.48,-1.105 -1.73,0 -3.166,1.495 -3.166,3.218 0,1.755 1.436,3.217 3.166,3.217 0.685,0 1.371,-0.227 1.925,-0.65 V 0.423 h -2.317 z"
   style="fill:#000000;fill-rule:nonzero"
   id="path22" />
            </g>
        </g>
        <g
   transform="matrix(4.16667,0,0,4.16667,2503.12,0)"
   id="g26"
   style="fill:#000000">
            <g
   transform="translate(206.983,433.163)"
   id="g25"
   style="fill:#000000">
                <path
   d="m 0,0.001 c 0,-2.795 2.448,-5.168 5.353,-5.168 1.501,0 2.904,0.65 3.883,1.658 L 7.67,-2.112 C 7.115,-2.794 6.267,-3.217 5.353,-3.217 c -1.697,0 -3.133,1.495 -3.133,3.218 0,1.755 1.436,3.217 3.133,3.217 0.914,0 1.762,-0.455 2.317,-1.105 L 9.236,3.511 C 8.257,4.518 6.887,5.168 5.353,5.168 2.448,5.168 0,2.796 0,0.001"
   style="fill:#000000;fill-rule:nonzero"
   id="path24" />
            </g>
        </g>
        <g
   transform="matrix(4.16667,0,0,4.16667,2503.12,0)"
   id="g28"
   style="fill:#000000">
            <g
   transform="translate(225.063,430.078)"
   id="g27"
   style="fill:#000000">
                <path
   d="M 0,6.142 V 8.06 h -7.147 v -9.978 h 2.154 v 8.06 z"
   style="fill:#000000;fill-rule:nonzero"
   id="path26" />
            </g>
        </g>
        <g
   transform="matrix(4.16667,0,0,4.16667,2503.12,0)"
   id="g30"
   style="fill:#000000">
            <g
   transform="translate(234.66,433.163)"
   id="g29"
   style="fill:#000000">
                <path
   d="m 0,0.001 c 0,-1.723 -1.436,-3.218 -3.101,-3.218 -1.697,0 -3.133,1.495 -3.133,3.218 0,1.755 1.436,3.217 3.133,3.217 C -1.436,3.218 0,1.723 0,0.001 m -8.453,0 c 0,-2.795 2.448,-5.168 5.352,-5.168 2.905,0 5.32,2.34 5.32,5.168 0,2.795 -2.415,5.167 -5.32,5.167 -2.904,0 -5.352,-2.372 -5.352,-5.167"
   style="fill:#000000;fill-rule:nonzero"
   id="path28" />
            </g>
        </g>
        <g
   transform="matrix(4.16667,0,0,4.16667,2503.12,0)"
   id="g32"
   style="fill:#000000">
            <g
   transform="translate(238.608,432.676)"
   id="g31"
   style="fill:#000000">
                <path
   d="m 0,1.17 v -5.655 h 2.154 v 5.59 c 0,1.528 0.979,2.633 2.383,2.633 1.371,0 2.382,-1.105 2.382,-2.633 v -5.59 H 9.073 V 1.17 C 9.073,3.803 7.18,5.655 4.537,5.655 1.861,5.655 0,3.803 0,1.17"
   style="fill:#000000;fill-rule:nonzero"
   id="path30" />
            </g>
        </g>
        <g
   transform="matrix(4.16667,0,0,4.16667,2503.12,0)"
   id="g34"
   style="fill:#000000">
            <g
   transform="translate(253.881,430.078)"
   id="g33"
   style="fill:#000000">
                <path
   d="M 0,6.142 C 1.925,6.142 3.263,4.875 3.263,3.087 3.263,1.3 1.893,0.065 0,0.065 h -1.73 v 6.077 z m -3.884,-8.06 h 3.59 c 3.362,0 5.777,2.048 5.777,4.973 0,2.925 -2.383,5.005 -5.777,5.005 h -3.59 z"
   style="fill:#000000;fill-rule:nonzero"
   id="path32" />
            </g>
        </g>
        <g
   transform="matrix(4.16667,0,0,4.16667,2503.12,0)"
   id="g36"
   style="fill:#000000">
            <g
   transform="translate(265.238,438.138)"
   id="g35"
   style="fill:#000000">
                <path
   d="m 0,-9.978 h 2.154 l 4.83,6.468 V -9.978 H 9.138 V 0 H 6.984 L 2.154,-6.468 V 0 H 0 Z"
   style="fill:#000000;fill-rule:nonzero"
   id="path34" />
            </g>
        </g>
        <g
   transform="matrix(4.16667,0,0,4.16667,2503.12,0)"
   id="g38"
   style="fill:#000000">
            <g
   transform="translate(282.798,431.604)"
   id="g37"
   style="fill:#000000">
                <path
   d="m 0,3.152 -1.502,-3.64 -1.501,3.64 z m 0.685,1.69 h -4.341 l -0.685,1.723 h -2.415 l 4.08,-9.978 h 2.415 L 3.818,6.565 H 1.403 Z"
   style="fill:#000000;fill-rule:nonzero"
   id="path36" />
            </g>
        </g>
        <g
   transform="matrix(4.16667,0,0,4.16667,2503.12,0)"
   id="g40"
   style="fill:#000000">
            <g
   transform="translate(290.564,436.251)"
   id="g39"
   style="fill:#000000">
                <path
   d="M 0,-6.142 H -3.133 V -8.06 h 8.42 v 1.918 H 2.154 v 8.06 H 0 Z"
   style="fill:#000000;fill-rule:nonzero"
   id="path38" />
            </g>
        </g>
        <g
   transform="matrix(4.16667,0,0,4.16667,2503.12,0)"
   id="g42"
   style="fill:#000000">
            <g
   transform="translate(0,332.298)"
   id="g41"
   style="fill:#000000">
                <rect
   x="297.548"
   y="95.862"
   width="2.154"
   height="9.9779997"
   style="fill:#000000"
   id="rect40" />
            </g>
        </g>
        <g
   transform="matrix(4.16667,0,0,4.16667,2503.12,0)"
   id="g44"
   style="fill:#000000">
            <g
   transform="translate(311.941,438.138)"
   id="g43"
   style="fill:#000000">
                <path
   d="M 0,-9.978 -4.079,0 h -2.415 l -4.08,-9.978 h 2.415 l 2.872,7.02 2.872,-7.02 z"
   style="fill:#000000;fill-rule:nonzero"
   id="path42" />
            </g>
        </g>
        <g
   transform="matrix(4.16667,0,0,4.16667,2503.12,0)"
   id="g46"
   style="fill:#000000">
            <g
   transform="translate(315.728,436.188)"
   id="g45"
   style="fill:#000000">
                <path
   d="m 0,-6.11 v 2.015 h 5.058 v 1.917 H 0 v 2.21 H 5.548 V 1.95 h -7.735 v -9.978 h 7.735 v 1.918 z"
   style="fill:#000000;fill-rule:nonzero"
   id="path44" />
            </g>
        </g>
        <g
   transform="matrix(4.16667,0,0,4.16667,2503.12,0)"
   id="g48"
   style="fill:#000000">
            <g
   transform="translate(329.662,436.251)"
   id="g47"
   style="fill:#000000">
                <path
   d="M 0,-6.142 H -3.133 V -8.06 h 8.42 v 1.918 H 2.154 v 8.06 H 0 Z"
   style="fill:#000000;fill-rule:nonzero"
   id="path46" />
            </g>
        </g>
        <g
   transform="matrix(4.16667,0,0,4.16667,2503.12,0)"
   id="g50"
   style="fill:#000000">
            <g
   transform="translate(344.511,433.163)"
   id="g49"
   style="fill:#000000">
                <path
   d="m 0,0.001 c 0,-1.723 -1.436,-3.218 -3.1,-3.218 -1.697,0 -3.133,1.495 -3.133,3.218 0,1.755 1.436,3.217 3.133,3.217 1.664,0 3.1,-1.495 3.1,-3.217 m -8.452,0 c 0,-2.795 2.447,-5.168 5.352,-5.168 2.905,0 5.32,2.34 5.32,5.168 0,2.795 -2.415,5.167 -5.32,5.167 -2.872,0 -5.352,-2.372 -5.352,-5.167"
   style="fill:#000000;fill-rule:nonzero"
   id="path48" />
            </g>
        </g>
        <g
   transform="matrix(4.16667,0,0,4.16667,2503.12,0)"
   id="g52"
   style="fill:#000000">
            <g
   transform="translate(353.094,433.781)"
   id="g51"
   style="fill:#000000">
                <path
   d="M -0.032,-1.235 H 4.406 V 2.893 C 3.427,3.933 1.861,4.55 0.359,4.55 c -2.904,0 -5.385,-2.372 -5.385,-5.167 0,-2.795 2.481,-5.168 5.385,-5.168 1.502,0 3.036,0.618 4.047,1.658 L 2.84,-2.73 C 2.252,-3.412 1.273,-3.835 0.359,-3.835 c -1.729,0 -3.165,1.495 -3.165,3.218 0,1.755 1.436,3.217 3.165,3.217 0.686,0 1.371,-0.227 1.926,-0.65 V 0.423 h -2.317 z"
   style="fill:#000000;fill-rule:nonzero"
   id="path50" />
            </g>
        </g>
        <g
   transform="matrix(4.16667,0,0,4.16667,2503.12,0)"
   id="g54"
   style="fill:#000000">
            <g
   transform="translate(361.809,436.188)"
   id="g53"
   style="fill:#000000">
                <path
   d="m 0,-6.11 v 2.015 h 5.059 v 1.917 H 0 v 2.21 H 5.548 V 1.95 h -7.702 v -9.978 h 7.735 v 1.918 z"
   style="fill:#000000;fill-rule:nonzero"
   id="path52" />
            </g>
        </g>
        <g
   transform="matrix(4.16667,0,0,4.16667,2503.12,0)"
   id="g56"
   style="fill:#000000">
            <g
   transform="translate(371.764,436.251)"
   id="g55"
   style="fill:#000000">
                <path
   d="M 0,-6.142 H -3.133 V -8.06 h 8.42 v 1.918 H 2.154 v 8.06 H 0 Z"
   style="fill:#000000;fill-rule:nonzero"
   id="path54" />
            </g>
        </g>
        <g
   transform="matrix(4.16667,0,0,4.16667,2503.12,0)"
   id="g58"
   style="fill:#000000">
            <g
   transform="translate(387.623,438.138)"
   id="g57"
   style="fill:#000000">
                <path
   d="M 0,-9.978 V 0 H -2.154 V -4.128 H -6.723 V 0 h -2.154 v -9.978 h 2.154 v 3.933 h 4.569 v -3.933 z"
   style="fill:#000000;fill-rule:nonzero"
   id="path56" />
            </g>
        </g>
        <g
   transform="matrix(4.16667,0,0,4.16667,2503.12,0)"
   id="g60"
   style="fill:#000000">
            <g
   transform="translate(392.356,436.188)"
   id="g59"
   style="fill:#000000">
                <path
   d="m 0,-6.11 v 2.015 h 5.058 v 1.917 H 0 v 2.21 H 5.548 V 1.95 h -7.735 v -9.978 h 7.735 v 1.918 z"
   style="fill:#000000;fill-rule:nonzero"
   id="path58" />
            </g>
        </g>
        <g
   transform="matrix(4.16667,0,0,4.16667,2503.12,0)"
   id="g62"
   style="fill:#000000">
            <g
   transform="translate(402.147,433.391)"
   id="g61"
   style="fill:#000000">
                <path
   d="m 0,-0.422 h 2.122 c 1.077,0 1.795,-0.553 1.795,-1.398 0,-0.845 -0.718,-1.397 -1.795,-1.397 H 0 Z M 3.623,1.365 6.038,4.778 H 3.59 L 1.306,1.528 H 0 v 3.25 H -2.154 V -5.2 H 2.35 c 2.187,0 3.786,1.398 3.786,3.38 0,1.528 -1.012,2.73 -2.513,3.185"
   style="fill:#000000;fill-rule:nonzero"
   id="path60" />
            </g>
        </g>
        <g
   transform="matrix(4.16667,0,0,4.16667,2503.12,0)"
   id="g64"
   style="fill:#000000">
            <g
   transform="translate(269.96,184.038)"
   id="g63"
   style="fill:#000000">
                <path
   d="m 0,-10.373 c 0.066,-0.354 0.054,-0.725 -0.063,-1.065 0,-10e-4 -0.002,-0.004 -0.003,-0.005 -0.248,-0.712 -0.653,-1.374 -1.105,-1.963 -0.164,-0.213 -0.336,-0.416 -0.513,-0.613 -2.083,-1.519 -4.144,-3.07 -6.189,-4.645 -2.635,-2.031 -5.243,-4.097 -7.845,-6.174 -0.688,-0.548 -1.375,-1.097 -2.062,-1.647 -0.62,-0.497 -1.521,-0.111 -1.629,0.701 -0.025,0.183 -0.057,0.509 -0.088,0.692 -0.345,2.009 -0.686,4.017 -1.025,6.026 -0.548,3.253 -1.14,6.499 -1.707,9.75 -0.507,2.901 -1.02,5.797 -1.556,8.692 -0.048,0.259 -0.094,0.519 -0.141,0.777 -0.14,0.788 0.156,1.593 0.77,2.074 1.421,1.112 2.846,2.216 4.277,3.313 1.406,1.079 2.773,2.216 4.158,3.323 1.398,1.118 2.79,2.247 4.186,3.37 1.383,1.114 2.767,2.228 4.151,3.339 0.158,0.126 0.314,0.255 0.47,0.383 0.798,0.654 1.587,0.332 1.755,-0.713 0.543,-3.384 1.088,-6.766 1.622,-10.151 0.452,-2.872 0.878,-5.751 1.37,-8.616 0.176,-1.024 0.88,-5.29 1.17,-6.845 z"
   style="fill:#000000;fill-rule:nonzero"
   id="path62" />
            </g>
        </g>
        <g
   transform="matrix(4.16667,0,0,4.16667,2503.12,0)"
   id="g66"
   style="fill:#000000">
            <g
   transform="translate(296.302,234.376)"
   id="g65"
   style="fill:#000000">
                <path
   d="m 0,-35.539 c -1.413,7.937 -2.824,15.872 -4.238,23.807 -0.132,0.743 -0.264,1.485 -0.397,2.228 -0.034,0.205 -0.072,0.411 -0.109,0.617 -0.304,1.713 -1.551,3.113 -3.224,3.624 -0.645,0.196 -1.291,0.391 -1.937,0.585 -0.738,0.224 -1.479,0.445 -2.22,0.663 -2.393,0.705 -4.789,1.396 -7.195,2.055 -2.759,0.754 -5.519,1.492 -8.297,2.162 -0.752,0.183 -2.008,0.47 -3.021,0.699 -0.772,0.177 -1.478,-0.48 -1.354,-1.259 0.072,-0.462 0.146,-0.924 0.218,-1.386 0.109,-0.688 0.217,-1.373 0.328,-2.062 2.085,-0.528 4.162,-1.087 6.235,-1.654 3.801,-1.042 7.582,-2.158 11.352,-3.304 1.675,-0.509 2.92,-1.91 3.225,-3.624 1.337,-7.522 2.675,-15.042 4.014,-22.565 0.72,-0.191 1.44,-0.383 2.16,-0.577 1.146,-0.307 2.292,-0.618 3.436,-0.93 0.578,-0.157 1.123,0.338 1.021,0.924 z"
   style="fill:#000000;fill-rule:nonzero"
   id="path64" />
            </g>
        </g>
        <g
   transform="matrix(4.16667,0,0,4.16667,2503.12,0)"
   id="g68"
   style="fill:#000000">
            <g
   transform="translate(325.245,225.554)"
   id="g67"
   style="fill:#000000">
                <path
   d="m 0,-34.089 c -1.09,5.687 -2.201,11.37 -3.33,17.049 -0.346,1.738 -0.695,3.477 -1.045,5.212 h -0.001 c -0.15,0.757 -0.303,1.511 -0.457,2.267 -0.062,0.312 -0.126,0.624 -0.189,0.936 -0.309,1.529 -1.435,2.766 -2.929,3.23 -0.782,0.241 -1.562,0.484 -2.343,0.725 -0.761,0.235 -1.522,0.47 -2.283,0.709 -0.825,0.254 -1.652,0.509 -2.477,0.766 -4.995,1.548 -9.991,3.096 -14.987,4.641 -1.061,0.33 -1.775,-0.294 -1.582,-1.385 0.083,-0.473 0.168,-0.948 0.251,-1.42 0.13,-0.745 0.261,-1.486 0.394,-2.229 3.344,-1.036 6.688,-2.072 10.036,-3.108 2.367,-0.733 4.735,-1.466 7.102,-2.199 1.495,-0.465 2.619,-1.702 2.929,-3.231 0.568,-2.803 1.133,-5.606 1.691,-8.414 0.905,-4.549 1.798,-9.097 2.675,-13.652 0.739,-0.21 1.478,-0.413 2.216,-0.618 0.907,-0.253 1.816,-0.504 2.723,-0.754 1.097,-0.301 1.818,0.365 1.606,1.477 z"
   style="fill:#000000;fill-rule:nonzero"
   id="path66" />
            </g>
        </g>
        <g
   transform="matrix(4.16667,0,0,4.16667,2503.12,0)"
   id="g70"
   style="fill:#000000">
            <g
   transform="translate(331.333,192.695)"
   id="g69"
   style="fill:#000000">
                <path
   d="m 0,-33.4 c -0.177,0.913 -0.35,1.827 -0.526,2.738 -0.607,3.107 -1.172,6.223 -1.754,9.335 -0.635,3.391 -1.273,6.786 -1.919,10.176 -0.154,0.823 -0.31,1.644 -0.467,2.464 -0.006,0.029 -0.013,0.059 -0.019,0.088 -0.362,1.724 -1.66,3.103 -3.372,3.574 -0.622,0.172 -1.246,0.345 -1.869,0.519 h -0.002 c -0.738,0.205 -1.474,0.409 -2.211,0.617 -0.814,0.227 -1.632,0.456 -2.446,0.686 -5.266,1.484 -10.528,2.982 -15.792,4.474 -1.008,0.287 -1.682,-0.32 -1.502,-1.347 0.062,-0.35 0.124,-0.699 0.184,-1.049 0.15,-0.843 0.299,-1.687 0.447,-2.53 3.59,-1.02 7.182,-2.037 10.773,-3.05 2.174,-0.613 4.35,-1.22 6.528,-1.822 1.739,-0.479 3.055,-1.898 3.391,-3.663 0.8,-4.211 1.596,-8.426 2.384,-12.64 0.544,-2.907 1.074,-5.818 1.638,-8.722 0.647,-0.152 1.294,-0.302 1.94,-0.456 1.055,-0.249 2.11,-0.499 3.166,-0.752 0.833,-0.198 1.59,0.523 1.43,1.358 z"
   style="fill:#000000;fill-rule:nonzero"
   id="path68" />
            </g>
        </g>
        <g
   transform="matrix(4.16667,0,0,4.16667,2503.12,0)"
   id="g72"
   style="fill:#000000">
            <g
   transform="translate(302.117,200.105)"
   id="g71"
   style="fill:#000000">
                <path
   d="m 0,-33.72 c -0.247,1.442 -0.555,3.218 -0.714,4.07 -0.594,3.169 -1.157,6.347 -1.736,9.519 -0.588,3.224 -1.164,6.453 -1.738,9.68 -0.148,0.84 -0.298,1.681 -0.447,2.522 -0.063,0.355 -0.125,0.71 -0.189,1.066 -0.199,1.13 -1.032,2.047 -2.143,2.355 -0.957,0.267 -1.915,0.532 -2.873,0.795 -0.718,0.198 -1.437,0.395 -2.158,0.59 -2.461,0.667 -4.924,1.322 -7.392,1.956 -2.847,0.735 -5.706,1.429 -8.557,2.148 -0.731,0.184 -1.922,0.479 -2.928,0.727 -0.866,0.213 -1.668,-0.522 -1.528,-1.398 0.052,-0.323 0.103,-0.647 0.154,-0.97 0.126,-0.782 0.25,-1.564 0.372,-2.349 2.199,-0.548 4.4,-1.091 6.597,-1.658 4.153,-1.069 8.291,-2.191 12.424,-3.341 1.112,-0.309 1.942,-1.227 2.144,-2.356 0.784,-4.424 1.567,-8.847 2.371,-13.267 0.578,-3.174 1.142,-6.35 1.736,-9.519 0.051,-0.274 0.119,-0.647 0.196,-1.073 0.578,-0.174 1.156,-0.352 1.732,-0.533 l 0.031,-0.005 c 0.082,-0.019 0.164,-0.038 0.246,-0.056 0.871,-0.197 1.739,-0.393 2.608,-0.59 1.031,-0.234 1.969,0.649 1.792,1.687"
   style="fill:#000000;fill-rule:nonzero"
   id="path70" />
            </g>
        </g>
        <g
   transform="matrix(4.16667,0,0,4.16667,2503.12,0)"
   id="g74"
   style="fill:#000000">
            <g
   transform="translate(342.814,245.278)"
   id="g73"
   style="fill:#000000">
                <path
   d="m 0,-29.106 c -0.185,0.701 -0.348,1.41 -0.534,2.109 -0.299,1.136 -0.568,2.282 -0.81,3.433 -0.524,2.499 -1.046,4.999 -1.557,7.5 -0.253,1.251 -0.507,2.503 -0.762,3.754 -0.216,1.066 -0.415,2.142 -0.714,3.19 -0.134,0.47 -0.285,0.939 -0.475,1.391 -0.009,0.016 -0.016,0.035 -0.021,0.045 -0.03,0.061 -0.057,0.125 -0.088,0.188 -0.053,0.112 -0.109,0.223 -0.168,0.334 -0.115,0.219 -0.242,0.432 -0.382,0.638 -0.038,0.058 -0.077,0.115 -0.117,0.17 -0.013,0.018 -0.043,0.057 -0.062,0.081 -0.058,0.072 -0.115,0.144 -0.177,0.213 -0.178,0.201 -0.368,0.391 -0.573,0.566 -0.053,0.048 -0.109,0.092 -0.162,0.138 -0.009,0.006 -0.023,0.019 -0.038,0.03 -0.081,0.059 -0.16,0.119 -0.242,0.174 -0.235,0.162 -0.477,0.308 -0.728,0.445 -0.212,0.116 -0.43,0.226 -0.652,0.33 -0.105,0.047 -0.213,0.096 -0.318,0.143 h -0.002 c -0.008,0.004 -0.015,0.009 -0.023,0.01 -0.004,0.001 -0.008,0.001 -0.01,0.004 -10e-4,0 -0.006,0 -0.008,0.002 -0.005,0.001 -0.006,0.004 -0.01,0.006 -0.198,0.066 -0.397,0.13 -0.594,0.196 -1.327,0.441 -2.651,0.881 -3.979,1.32 -2.626,0.874 -5.264,1.716 -7.882,2.61 -1.195,0.407 -2.389,0.816 -3.581,1.223 -0.907,0.309 -1.803,-0.483 -1.604,-1.414 0.271,-1.274 0.543,-2.547 0.813,-3.822 2.119,-0.709 4.245,-1.392 6.365,-2.099 1.325,-0.44 2.651,-0.881 3.979,-1.32 0.197,-0.066 0.395,-0.13 0.594,-0.196 10e-4,-0.002 0.006,-0.005 0.01,-0.006 0.001,0 0.004,-0.002 0.006,-0.002 10e-4,-10e-4 0.006,-10e-4 0.01,-0.004 0.008,-0.004 0.016,-0.008 0.024,-0.01 0.107,-0.047 0.217,-0.096 0.322,-0.143 0.22,-0.102 0.438,-0.213 0.651,-0.33 0.25,-0.135 0.492,-0.283 0.727,-0.445 0.082,-0.056 0.164,-0.115 0.242,-0.174 0.016,-0.013 0.03,-0.024 0.039,-0.03 0.053,-0.044 0.11,-0.09 0.163,-0.138 0.202,-0.176 0.395,-0.365 0.572,-0.566 0.062,-0.071 0.12,-0.141 0.177,-0.213 0.019,-0.024 0.048,-0.063 0.062,-0.081 0.039,-0.056 0.078,-0.112 0.117,-0.17 0.139,-0.206 0.265,-0.42 0.382,-0.638 0.059,-0.11 0.116,-0.221 0.169,-0.334 0.03,-0.063 0.058,-0.127 0.088,-0.188 0.004,-0.01 0.013,-0.029 0.019,-0.045 0.188,-0.452 0.343,-0.921 0.477,-1.391 0.295,-1.049 0.497,-2.124 0.713,-3.189 0.255,-1.251 0.508,-2.504 0.763,-3.755 0.507,-2.502 1.031,-5.001 1.557,-7.5 0.112,-0.537 0.23,-1.07 0.357,-1.603 1.801,-0.513 4.052,-1.188 5.599,-1.654 0.757,-0.229 1.475,0.455 1.276,1.217"
   style="fill:#000000;fill-rule:nonzero"
   id="path72" />
            </g>
        </g>
        <g
   transform="matrix(4.16667,0,0,4.16667,2503.12,0)"
   id="g76"
   style="fill:#000000">
            <g
   transform="translate(290.374,263.928)"
   id="g75"
   style="fill:#000000">
                <path
   d="m 0,-31.772 c -0.264,1.48 -0.525,2.958 -0.789,4.435 -0.888,4.992 -1.774,9.98 -2.639,14.975 -0.155,0.884 -0.307,1.77 -0.459,2.657 -0.337,1.967 -1.724,3.597 -3.619,4.248 -1.527,0.524 -3.051,1.05 -4.576,1.578 -2.032,0.659 -4.066,1.309 -6.107,1.938 -3.186,0.984 -6.385,1.928 -9.587,2.871 -0.217,0.063 -0.625,0.149 -1.088,0.235 -1.179,0.22 -2.21,-0.802 -1.998,-1.975 0.165,-0.911 0.327,-1.822 0.487,-2.733 2.101,-0.623 4.198,-1.251 6.293,-1.898 2.041,-0.631 4.076,-1.28 6.109,-1.938 1.523,-0.528 3.049,-1.055 4.575,-1.578 1.897,-0.652 3.283,-2.282 3.62,-4.25 1.006,-5.879 2.051,-11.755 3.096,-17.63 0.03,-0.172 0.062,-0.344 0.092,-0.517 0.741,-0.219 1.481,-0.437 2.222,-0.658 1.018,-0.306 2.034,-0.613 3.05,-0.921 0.737,-0.224 1.45,0.407 1.315,1.161 z"
   style="fill:#000000;fill-rule:nonzero"
   id="path74" />
            </g>
        </g>
        <g
   transform="matrix(4.16667,0,0,4.16667,2503.12,0)"
   id="g78"
   style="fill:#000000">
            <g
   transform="translate(354.124,179.442)"
   id="g77"
   style="fill:#000000">
                <path
   d="m 0,-20.138 c -0.49,3.206 -1.011,6.407 -1.557,9.603 -0.607,3.548 -1.234,7.093 -1.883,10.634 -0.144,0.792 -0.752,1.416 -1.542,1.588 -1.847,0.406 -3.69,0.826 -5.531,1.265 -3.261,0.773 -6.51,1.591 -9.752,2.435 -1.179,0.307 -2.355,0.618 -3.532,0.931 -0.934,0.25 -1.807,-0.557 -1.631,-1.502 0.044,-0.241 0.09,-0.481 0.134,-0.723 0.158,-0.85 0.314,-1.702 0.471,-2.551 4.633,-1.194 9.279,-2.331 13.952,-3.356 0.789,-0.172 1.399,-0.796 1.543,-1.588 0.646,-3.539 1.273,-7.085 1.882,-10.633 0.548,-3.195 1.069,-6.397 1.557,-9.604 0.107,-0.698 0.257,-1.391 0.397,-2.084 0.08,-0.016 0.16,-0.033 0.24,-0.049 0.979,-0.197 1.958,-0.385 2.94,-0.565 0.914,-0.17 1.564,-0.369 2.468,-0.135 0.125,0.033 0.253,0.07 0.351,0.152 0.175,0.145 0.211,0.394 0.228,0.623 0.149,1.878 -0.453,3.701 -0.737,5.56 z"
   style="fill:#000000;fill-rule:nonzero"
   id="path76" />
            </g>
        </g>
        <g
   transform="matrix(4.16667,0,0,4.16667,2503.12,0)"
   id="g80"
   style="fill:#000000">
            <g
   transform="translate(349.647,216.74)"
   id="g79"
   style="fill:#000000">
                <path
   d="m 0,-31.629 c -0.163,0.863 -0.327,1.727 -0.493,2.589 -0.63,3.252 -1.277,6.5 -1.941,9.744 -0.691,3.208 -1.403,6.412 -2.134,9.609 -0.14,0.61 -0.281,1.223 -0.424,1.832 -0.409,1.766 -1.728,3.188 -3.465,3.73 -1.446,0.451 -3.2,1.008 -4.624,1.474 -0.185,0.062 -0.362,0.119 -0.535,0.176 -2.929,0.97 -5.873,1.91 -8.822,2.824 -0.983,0.305 -1.969,0.609 -2.954,0.915 -1.018,0.316 -2.005,-0.57 -1.796,-1.611 0.073,-0.373 0.15,-0.745 0.225,-1.118 0.153,-0.751 0.302,-1.502 0.45,-2.254 h 0.001 c 2.341,-0.733 4.675,-1.484 7.006,-2.256 1.499,-0.498 3.526,-1.141 5.156,-1.65 1.74,-0.542 3.056,-1.963 3.468,-3.73 0.142,-0.61 0.281,-1.222 0.423,-1.832 0.732,-3.198 1.441,-6.401 2.133,-9.609 0.613,-2.997 1.215,-5.994 1.796,-8.997 1.701,-0.407 3.407,-0.806 5.112,-1.195 0.963,-0.221 1.603,0.393 1.42,1.359 z"
   style="fill:#000000;fill-rule:nonzero"
   id="path78" />
            </g>
        </g>
        <g
   transform="matrix(4.16667,0,0,4.16667,2503.12,0)"
   id="g82"
   style="fill:#000000">
            <g
   transform="translate(318.76,254.269)"
   id="g81"
   style="fill:#000000">
                <path
   d="m 0,-30.17 c -0.202,0.987 -0.404,1.971 -0.607,2.958 -1.028,4.972 -2.073,9.941 -3.131,14.907 -0.255,1.203 -0.512,2.402 -0.77,3.603 l -0.004,0.023 c -0.308,1.441 -1.354,2.616 -2.755,3.096 l -0.79,0.268 c -1.212,0.397 -2.421,0.796 -3.622,1.224 -0.268,0.096 -0.535,0.192 -0.803,0.288 -0.091,0.03 -0.182,0.063 -0.271,0.095 -1.912,0.652 -3.82,1.305 -5.73,1.956 -0.068,0.002 -0.136,0.009 -0.203,0.025 -0.204,0.049 -0.41,0.155 -0.607,0.229 -0.241,0.091 -0.479,0.181 -0.718,0.27 -2.856,0.974 -5.71,1.951 -8.567,2.924 -0.006,0.001 -0.015,0.004 -0.02,0.006 -0.939,0.32 -1.874,-0.484 -1.696,-1.454 0.228,-1.236 0.455,-2.473 0.679,-3.71 1.239,-0.421 2.475,-0.845 3.714,-1.266 0.24,-0.091 0.478,-0.181 0.718,-0.27 0.197,-0.073 0.403,-0.181 0.608,-0.23 0.066,-0.015 0.134,-0.023 0.203,-0.024 1.909,-0.653 3.82,-1.304 5.729,-1.957 0.091,-0.03 0.181,-0.063 0.271,-0.095 0.269,-0.096 0.535,-0.192 0.804,-0.288 1.2,-0.427 2.41,-0.826 3.623,-1.224 l 0.788,-0.268 c 1.401,-0.479 2.448,-1.654 2.756,-3.096 l 0.005,-0.023 c 1.3,-6.065 2.581,-12.137 3.838,-18.211 0.762,-0.235 1.524,-0.471 2.285,-0.706 0.799,-0.248 1.599,-0.493 2.396,-0.742 1.068,-0.33 2.1,0.6 1.876,1.692 z"
   style="fill:#000000;fill-rule:nonzero"
   id="path80" />
            </g>
        </g>
        <g
   transform="matrix(4.16667,0,0,4.16667,2503.12,0)"
   id="g84"
   style="fill:#000000">
            <g
   transform="translate(262.005,138.71)"
   id="g83"
   style="fill:#000000">
                <path
   d="m 0,-8.921 c -0.503,0.097 -0.63,0.749 -0.211,1.033 0.098,0.066 0.361,0.218 0.459,0.287 l 2.7,1.878 4.624,3.216 c 3.054,2.125 6.108,4.252 9.169,6.367 l 0.015,0.01 c 0.918,0.634 2.057,0.864 3.15,0.633 3.491,-0.739 11.467,-2.423 15.901,-3.344 2.188,-0.455 4.375,-0.911 6.562,-1.37 1.069,-0.224 1.359,-1.607 0.471,-2.241 -0.007,-0.006 -0.016,-0.012 -0.023,-0.018 -0.721,-0.515 -7.235,-5.081 -8.695,-6.065 -1.459,-0.983 -2.934,-1.944 -4.431,-2.868 -0.743,-0.458 -1.491,-0.902 -2.228,-1.369 l -0.092,-0.058 c -0.95,-0.602 -2.093,-0.825 -3.201,-0.625 -2.53,0.46 -5.062,0.916 -7.59,1.382 -5.531,1.02 -11.056,2.077 -16.577,3.152 z"
   style="fill:#000000;fill-rule:nonzero"
   id="path82" />
            </g>
        </g>
        <g
   transform="matrix(4.16667,0,0,4.16667,2503.12,0)"
   id="g86"
   style="fill:#000000">
            <g
   transform="translate(291.423,133.085)"
   id="g85"
   style="fill:#000000">
                <path
   d="m 0,-8.188 0.009,0.005 c 1.937,1.13 3.836,2.327 5.707,3.56 0.944,0.622 1.881,1.254 2.814,1.891 0.467,0.319 0.932,0.64 1.395,0.964 0.238,0.167 4.084,2.9 4.663,3.31 0.271,0.192 0.617,0.438 0.992,0.703 1.819,1.29 4.098,1.763 6.284,1.303 0.572,-0.121 1.144,-0.241 1.716,-0.362 2.878,-0.607 5.755,-1.212 8.634,-1.813 1.516,-0.317 3.034,-0.663 4.558,-0.986 0.692,-0.146 0.875,-1.051 0.289,-1.447 -0.007,-0.005 -0.013,-0.009 -0.02,-0.013 -0.317,-0.214 -0.863,-0.578 -1.177,-0.798 -1.038,-0.727 -2.078,-1.456 -3.118,-2.179 -0.666,-0.443 -1.332,-0.888 -2,-1.33 -2.337,-1.551 -4.66,-3.123 -7.013,-4.651 -0.545,-0.355 -1.095,-0.7 -1.668,-1.012 -0.284,-0.155 -0.572,-0.301 -0.865,-0.437 -0.069,-0.032 -0.138,-0.063 -0.209,-0.095 -0.021,-0.01 -0.038,-0.017 -0.053,-0.023 -0.183,-0.076 -0.369,-0.145 -0.556,-0.209 -0.186,-0.065 -0.377,-0.119 -0.567,-0.17 l -0.323,-0.083 c -0.37,-0.096 -0.757,-0.136 -1.139,-0.119 -1.663,0.073 -2.369,0.406 -3.658,0.55 -0.418,0.069 -5.299,1.061 -6.018,1.203 -2.853,0.567 -5.71,1.104 -8.57,1.63 C -0.195,-8.74 -0.265,-8.343 0,-8.188"
   style="fill:#000000;fill-rule:nonzero"
   id="path84" />
            </g>
        </g>
        <g
   transform="matrix(4.16667,0,0,4.16667,2503.12,0)"
   id="g88"
   style="fill:#000000">
            <g
   transform="translate(313.728,149.922)"
   id="g87"
   style="fill:#000000">
                <path
   d="m 0,-11.336 c -0.631,0.131 -0.803,0.949 -0.277,1.321 2.847,2.02 5.693,4.038 8.537,6.063 2.096,1.49 4.191,2.984 6.284,4.477 0.974,0.696 1.964,1.374 2.916,2.1 0.219,0.168 0.435,0.34 0.644,0.518 0.593,0.505 1.385,0.708 2.148,0.544 0.343,-0.073 0.686,-0.148 1.029,-0.221 2.772,-0.856 5.56,-1.657 8.367,-2.393 1.701,-0.446 3.447,-0.762 5.172,-1.1 0.865,-0.17 1.731,-0.335 2.598,-0.494 l 0.013,-0.003 c 0.565,-0.103 0.733,-0.827 0.271,-1.166 -2.245,-1.643 -7.039,-5.143 -9.778,-7.09 -1.844,-1.311 -3.695,-2.612 -5.553,-3.905 -0.483,-0.336 -0.966,-0.671 -1.45,-1.006 -0.224,-0.155 -0.45,-0.304 -0.67,-0.463 -0.33,-0.257 -0.403,-0.311 -0.218,-0.165 -0.036,-0.027 -0.074,-0.055 -0.11,-0.082 -0.111,-0.079 -0.219,-0.162 -0.328,-0.244 -0.003,-0.001 -0.006,-0.004 -0.009,-0.005 -0.535,-0.396 -1.215,-0.537 -1.865,-0.392 -0.253,0.056 -0.506,0.11 -0.76,0.163 -5.651,1.171 -11.299,2.35 -16.946,3.537 l -0.018,0.003 z"
   style="fill:#000000;fill-rule:nonzero"
   id="path86" />
            </g>
        </g>
        <g
   transform="matrix(4.16667,0,0,4.16667,2503.12,0)"
   id="g90"
   style="fill:#000000">
            <g
   transform="translate(305.569,139.962)"
   id="g89"
   style="fill:#000000">
                <path
   d="m 0,20.02 c 2.635,-0.595 5.27,-1.192 7.905,-1.788 3.749,-0.847 10.56,-2.377 14.272,-3.21 1.005,-0.226 1.275,-1.525 0.441,-2.128 -0.256,-0.186 -0.485,-0.35 -0.647,-0.466 C 20.461,11.349 18.948,10.27 17.436,9.194 14.397,7.031 11.357,4.87 8.316,2.711 7.585,2.192 6.854,1.674 6.122,1.156 4.663,0.123 2.834,-0.254 1.084,0.122 -2.194,0.826 -5.47,1.54 -8.743,2.261 c -4.084,0.899 -8.166,1.807 -12.25,2.71 -0.704,0.155 -0.884,1.067 -0.294,1.477 1.2,0.837 2.4,1.676 3.596,2.52 3.007,2.12 6.003,4.259 8.988,6.408 1.507,1.085 3.01,2.174 4.511,3.267 0.249,0.181 0.594,0.436 0.945,0.696 0.93,0.687 2.116,0.935 3.247,0.68 z"
   style="fill:#000000;fill-rule:nonzero"
   id="path88" />
            </g>
        </g>
        <g
   transform="matrix(4.16667,0,0,4.16667,2503.12,0)"
   id="g92"
   style="fill:#000000">
            <g
   transform="translate(276.354,137.85)"
   id="g91"
   style="fill:#000000">
                <path
   d="m 0,5.402 c 0,0 -0.009,-0.005 -0.013,-0.008 -3.017,-2.086 -6.046,-4.158 -9.069,-6.235 -1.505,-1.034 -3.01,-2.067 -4.513,-3.102 -0.763,-0.523 -1.512,-1.056 -2.251,-1.614 -0.369,-0.279 -0.738,-0.558 -1.107,-0.838 -0.191,-0.144 -0.382,-0.289 -0.573,-0.433 l -0.008,-0.006 c -0.403,-0.302 -0.916,-0.42 -1.412,-0.322 -0.111,0.021 -0.222,0.043 -0.333,0.064 -7.192,1.409 -14.374,2.849 -21.542,4.376 -0.715,0.152 -1.848,0.44 -2.895,0.72 -0.989,0.264 -1.201,1.567 -0.347,2.129 l 0.021,0.014 c 0.756,0.498 1.508,0.999 2.259,1.504 1.504,1.01 2.981,2.051 4.452,3.11 2.94,2.116 5.852,4.271 8.764,6.424 0.13,0.097 0.258,0.191 0.388,0.287 1.303,0.964 3.013,1.184 4.522,0.589 0.773,-0.306 1.565,-0.587 2.087,-0.703 2.872,-0.636 5.743,-1.266 8.615,-1.901 C -8.717,8.52 -4.483,7.554 -0.243,6.62 0.338,6.493 0.488,5.74 0,5.401 Z"
   style="fill:#000000;fill-rule:nonzero"
   id="path90" />
            </g>
        </g>
        <g
   transform="matrix(4.16667,0,0,4.16667,2503.12,0)"
   id="g94"
   style="fill:#000000">
            <g
   transform="translate(276.825,166.881)"
   id="g93"
   style="fill:#000000">
                <path
   d="m 0,-20.263 c -3.852,0.829 -10.101,2.178 -13.815,3 -2.785,0.617 -5.563,1.325 -8.367,1.859 l -0.026,0.004 c -1.071,0.204 -1.387,1.577 -0.513,2.226 0.804,0.595 1.61,1.19 2.416,1.786 2.915,2.147 5.845,4.275 8.805,6.362 2.508,1.768 5.039,3.504 7.601,5.192 0.375,0.247 0.846,0.296 1.264,0.132 l 0.012,-0.004 c 0.217,-0.085 0.439,-0.155 0.667,-0.208 1.051,-0.248 2.102,-0.496 3.153,-0.743 1.307,-0.309 2.616,-0.613 3.926,-0.908 5.243,-1.185 10.486,-2.37 15.729,-3.557 0.654,-0.148 1.309,-0.295 1.963,-0.443 0.95,-0.215 1.085,-0.861 0.301,-1.436 -0.426,-0.312 -0.853,-0.623 -1.28,-0.934 -1.473,-1.073 -2.951,-2.142 -4.43,-3.207 -2.946,-2.117 -5.913,-4.206 -8.891,-6.279 -0.768,-0.535 -1.537,-1.069 -2.306,-1.601 -1.808,-1.252 -4.055,-1.703 -6.207,-1.24 z"
   style="fill:#000000;fill-rule:nonzero"
   id="path92" />
            </g>
        </g>
        <g
   transform="matrix(4.16667,0,0,4.16667,2503.12,0)"
   id="g96"
   style="fill:#000000">
            <g
   transform="translate(245.05,106)"
   id="g95"
   style="fill:#000000">
                <path
   d="m 0,7.992 c 0.167,0.137 0.44,0.358 0.607,0.493 4.381,3.067 8.741,6.158 13.095,9.262 0.883,0.629 1.976,0.899 3.053,0.751 l 0.024,-0.003 c 0.388,-0.054 0.77,-0.147 1.142,-0.274 0.48,-0.16 0.922,-0.417 1.319,-0.731 3.498,-2.772 7.033,-5.501 10.553,-8.247 1.857,-1.449 3.719,-2.89 5.586,-4.326 0.823,-0.635 1.656,-1.257 2.492,-1.877 0.251,-0.261 0.514,-0.512 0.767,-0.769 0.003,-0.003 0.006,-0.006 0.009,-0.008 0.451,-0.46 0.457,-1.197 0,-1.65 -0.757,-0.752 -1.564,-1.455 -2.403,-2.118 -1.583,-1.251 -3.396,-2.426 -5.114,-3.581 -0.855,-0.574 -1.706,-1.15 -2.542,-1.751 -0.849,-0.61 -1.802,-1.35 -2.51,-1.891 -0.2,-0.129 -0.397,-0.26 -0.598,-0.389 -0.615,-0.395 -1.238,-0.874 -1.942,-1.099 -1.369,-0.438 -2.756,0.455 -3.887,1.123 -1.286,0.758 -2.563,1.534 -3.835,2.317 -2.558,1.578 -5.068,3.234 -7.543,4.938 -3.127,2.154 -6.184,4.396 -9.203,6.687 -0.207,0.158 -0.354,0.379 -0.421,0.63 v 0.004 c -0.167,0.639 0.126,1.19 0.539,1.664 0.256,0.295 0.531,0.574 0.813,0.844 z"
   style="fill:#000000;fill-rule:nonzero"
   id="path94" />
            </g>
        </g>
        <g
   transform="matrix(4.16667,0,0,4.16667,2503.12,0)"
   id="g98"
   style="fill:#000000">
            <g
   transform="translate(216.194,121.423)"
   id="g97"
   style="fill:#000000">
                <path
   d="m 0,13.111 c 0.137,0.158 0.352,0.406 0.489,0.564 2.779,2.189 5.527,4.42 8.309,6.605 0.366,-2.152 0.963,-4.302 2.533,-5.842 1.143,-1.12 2.661,-1.736 4.193,-2.119 1.716,-0.429 3.458,-0.757 5.188,-1.123 7.153,-1.513 14.31,-3.015 21.479,-4.444 0.124,-0.025 0.238,-0.084 0.33,-0.17 l 0.003,-0.003 c 0.069,-0.12 0.134,-0.235 0.203,-0.355 0.03,-0.147 0.048,-0.261 0.052,-0.366 0.003,-0.075 0,-0.148 -0.003,-0.221 C 42.675,5.377 42.544,5.13 42.384,4.898 42.185,4.608 41.937,4.357 41.65,4.153 41.153,3.799 40.656,3.446 40.158,3.092 37.496,1.198 34.836,-0.701 32.192,-2.619 32.051,-2.71 31.821,-2.856 31.678,-2.945 h -0.002 c -0.248,-0.138 -0.445,-0.319 -0.656,-0.505 -0.073,-0.059 -0.194,-0.155 -0.268,-0.214 -0.876,-0.635 -1.753,-1.272 -2.629,-1.908 -0.284,-0.206 -0.571,-0.41 -0.856,-0.614 -0.645,-0.39 -1.316,-0.757 -2.059,-0.911 -0.262,-0.054 -0.53,-0.072 -0.798,-0.062 -0.64,0.025 -1.254,0.269 -1.759,0.665 -0.001,10e-4 -0.004,0.003 -0.006,0.004 -4.799,3.764 -9.54,7.602 -14.39,11.302 -2.393,1.826 -4.805,3.625 -7.248,5.384 -0.067,0.048 -0.133,0.095 -0.199,0.142 -0.173,0.138 -0.346,0.276 -0.519,0.415 -0.348,0.278 -0.596,0.674 -0.639,1.116 -0.004,0.049 -0.007,0.099 -0.007,0.148 -0.003,0.394 0.16,0.754 0.355,1.091 v 0.005 z"
   style="fill:#000000;fill-rule:nonzero"
   id="path96" />
            </g>
        </g>
        <g
   transform="matrix(4.16667,0,0,4.16667,2503.12,0)"
   id="g100"
   style="fill:#000000">
            <g
   transform="translate(191.951,144.638)"
   id="g99"
   style="fill:#000000">
                <path
   d="m 0,12.849 c 2.828,2.159 5.647,4.331 8.463,6.505 0.646,0.499 1.285,1.01 1.948,1.486 0.597,0.43 1.231,0.843 1.93,1.09 0.587,0.208 1.228,0.313 1.848,0.211 0.321,-0.053 0.598,-0.191 0.905,-0.28 0.18,-0.053 0.364,-0.094 0.547,-0.137 0.262,-0.231 0.526,-0.461 0.794,-0.683 C 21.019,17.237 25.9,13.819 31,10.74 c 0.009,-0.006 0.017,-0.007 0.026,-0.011 0.541,-3.666 1.08,-7.333 1.62,-10.998 0.028,-0.184 0.054,-0.371 0.081,-0.56 -0.092,-0.043 -0.182,-0.097 -0.261,-0.161 -0.863,-0.694 -1.724,-1.393 -2.582,-2.093 -1.495,-1.222 -2.981,-2.453 -4.46,-3.695 -0.646,-0.543 -1.27,-1.109 -1.898,-1.672 -0.374,-0.216 -0.735,-0.426 -1.109,-0.642 -0.108,-0.035 -0.217,-0.066 -0.327,-0.095 -0.804,-0.207 -1.658,-0.004 -2.306,0.512 -1.772,1.409 -3.549,2.808 -5.348,4.181 -3.623,2.766 -7.237,5.448 -10.784,8.315 -1.635,1.32 -3.387,2.675 -4.71,4.319 -0.197,0.246 -0.388,0.513 -0.571,0.785 -0.007,0.016 -0.017,0.032 -0.024,0.048 -0.01,0.021 -0.031,0.073 -0.046,0.116 v 0.003 c -0.297,1.209 0.135,2.48 1.095,3.279 0.202,0.168 0.405,0.327 0.603,0.478 z"
   style="fill:#000000;fill-rule:nonzero"
   id="path98" />
            </g>
        </g>
        <g
   transform="matrix(4.16667,0,0,4.16667,2503.12,0)"
   id="g102"
   style="fill:#000000">
            <g
   transform="translate(211.375,164.058)"
   id="g101"
   style="fill:#000000">
                <path
   d="m 0,26.926 c 0.507,0.304 1.016,0.604 1.528,0.9 -1.587,-4.14 -3.104,-8.309 -4.541,-12.504 -0.41,-1.197 -0.839,-2.392 -1.2,-3.605 C -4.27,11.521 -4.328,11.327 -4.385,11.13 -4.613,10.645 -4.975,9.871 -5.202,9.387 -5.267,9.283 -5.326,9.175 -5.385,9.084 -5.399,9.063 -5.412,9.042 -5.426,9.02 -5.553,8.817 -5.737,8.659 -5.95,8.545 -6.048,8.493 -6.137,8.432 -6.216,8.367 -7.069,7.654 -13.572,2.398 -17.012,-0.38 c -0.644,-0.52 -1.575,0.113 -1.32,0.899 0.416,1.283 0.889,2.682 1.161,3.368 0.264,0.666 0.539,1.326 0.816,1.986 0.003,0.008 0.005,0.014 0.008,0.019 0.007,0.015 0.014,0.032 0.024,0.057 0.035,0.082 0.07,0.164 0.105,0.246 0.07,0.164 0.141,0.327 0.21,0.491 0.133,0.309 0.267,0.617 0.4,0.926 0.632,1.462 1.223,2.942 1.836,4.414 0.571,1.37 1.145,2.74 1.721,4.108 0.145,0.342 0.288,0.684 0.433,1.026 0.072,0.171 0.145,0.341 0.217,0.512 0.036,0.086 0.072,0.171 0.109,0.256 0.004,0.01 0.012,0.027 0.02,0.046 0.14,0.332 0.304,0.656 0.423,0.997 0.599,1.705 1.587,2.048 2.134,2.403 1.918,1.243 3.838,2.482 5.761,3.718 0.974,0.625 1.96,1.238 2.954,1.834"
   style="fill:#000000;fill-rule:nonzero"
   id="path100" />
            </g>
        </g>
        <g
   transform="matrix(4.16667,0,0,4.16667,2503.12,0)"
   id="g104"
   style="fill:#000000">
            <g
   transform="translate(214.45,188.96)"
   id="g103"
   style="fill:#000000">
                <path
   d="m 0,18.505 c 0.315,0.19 0.629,0.383 0.942,0.576 C 1.008,18.689 1.074,18.297 1.138,17.903 1.393,16.352 1.643,14.8 1.887,13.248 1.954,12.819 2.019,12.391 2.084,11.963 2.001,11.816 1.923,11.664 1.854,11.496 1.724,11.181 1.595,10.868 1.466,10.553 1.197,9.895 0.93,9.236 0.665,8.577 0.2,7.422 -0.257,6.264 -0.71,5.105 -1.087,5.093 -1.417,5.009 -1.764,4.868 -1.882,4.82 -1.996,4.762 -2.107,4.704 -2.883,4.291 -3.655,3.87 -4.422,3.439 -5.432,2.872 -6.434,2.289 -7.426,1.691 -8.42,1.093 -9.38,0.448 -10.333,-0.215 c -0.021,-0.014 -0.043,-0.03 -0.064,-0.045 -0.453,-0.316 -1.038,0.156 -0.818,0.662 0.252,0.576 0.504,1.152 0.756,1.728 1.92,4.376 3.885,8.731 5.85,13.086 l 0.004,0.011 c 0.292,0.647 0.798,1.174 1.431,1.501 0.379,0.196 0.759,0.393 1.137,0.593 0.694,0.367 1.363,0.779 2.034,1.186 z"
   style="fill:#000000;fill-rule:nonzero"
   id="path102" />
            </g>
        </g>
        <g
   transform="matrix(4.16667,0,0,4.16667,2503.12,0)"
   id="g106"
   style="fill:#000000">
            <g
   transform="translate(214.607,212.141)"
   id="g105"
   style="fill:#000000">
                <path
   d="m 0,-2.665 c -0.31,-0.202 -0.621,-0.402 -0.932,-0.6 -0.4,-0.257 -1.207,-0.774 -1.777,-1.141 -0.182,-0.117 -0.405,0.075 -0.315,0.271 0.41,0.898 0.822,1.795 1.233,2.692 0.506,1.096 1.058,2.183 1.517,3.301 0.18,-0.853 0.66,-3.652 0.759,-4.199 C 0.32,-2.446 0.161,-2.561 0,-2.666 Z"
   style="fill:#000000;fill-rule:nonzero"
   id="path104" />
            </g>
        </g>
        <g
   transform="matrix(4.16667,0,0,4.16667,2503.12,0)"
   id="g108"
   style="fill:#000000">
            <g
   transform="translate(242.528,202.651)"
   id="g107"
   style="fill:#000000">
                <path
   d="m 0,16.274 0.018,0.017 c 1.29,1.145 2.58,2.292 3.873,3.435 2.562,2.266 5.134,4.521 7.745,6.725 0.653,0.551 1.307,1.099 1.965,1.643 0.321,0.267 0.642,0.539 0.97,0.797 0.055,0.042 0.126,0.099 0.145,0.114 0.077,0.059 0.153,0.119 0.229,0.177 0.153,0.118 0.308,0.233 0.464,0.347 0.325,0.234 0.657,0.457 0.999,0.66 0.175,0.103 0.353,0.202 0.534,0.292 0.084,0.043 0.17,0.081 0.253,0.123 0.008,0.004 0.011,0.005 0.016,0.008 0.023,0.008 0.045,0.016 0.065,0.025 l 0.006,0.002 c 0.354,0.142 0.743,-0.092 0.805,-0.482 1.37,-8.684 2.75,-17.366 4.116,-26.052 C 22.282,3.604 22.362,3.101 22.441,2.6 22.588,1.67 22.205,0.737 21.459,0.21 l -0.01,-0.008 c -0.702,-0.498 -1.364,-1.068 -2.038,-1.603 -1.435,-1.141 -2.869,-2.281 -4.303,-3.422 -2.919,-2.323 -5.857,-4.626 -8.72,-7.025 -0.918,-0.769 -1.837,-1.54 -2.754,-2.31 -0.415,-0.349 -1.036,-0.099 -1.121,0.45 -0.165,1.07 -0.328,2.139 -0.499,3.208 -0.929,5.849 -1.825,11.704 -2.723,17.559 -0.258,1.685 -0.513,3.37 -0.766,5.057 -0.235,1.561 0.326,3.136 1.477,4.158 z"
   style="fill:#000000;fill-rule:nonzero"
   id="path106" />
            </g>
        </g>
        <g
   transform="matrix(4.16667,0,0,4.16667,2503.12,0)"
   id="g110"
   style="fill:#000000">
            <g
   transform="translate(224.455,214.289)"
   id="g109"
   style="fill:#000000">
                <path
   d="m 0,-39.88 c -0.103,1.207 -0.229,2.611 -0.326,3.448 -0.679,5.856 -1.433,11.702 -2.261,17.538 -0.271,1.909 -0.553,3.817 -0.84,5.723 -0.12,0.796 0.147,1.602 0.718,2.159 l 0.009,0.009 c 0.209,0.204 0.424,0.4 0.638,0.597 1.11,0.756 2.208,1.532 3.28,2.344 1.432,1.086 2.848,2.193 4.252,3.315 1.752,1.398 4.714,3.864 6.637,5.471 0.822,0.688 2.061,0.201 2.226,-0.869 1.229,-8.036 2.521,-16.062 3.882,-24.078 0.101,-0.593 0.2,-1.186 0.299,-1.78 0.134,-0.799 -0.176,-1.608 -0.805,-2.104 l -0.01,-0.009 c -0.734,-0.577 -1.466,-1.155 -2.2,-1.733 -2.961,-2.335 -5.92,-4.672 -8.878,-7.013 -1.461,-1.157 -2.938,-2.297 -4.362,-3.505 -0.124,-0.105 -0.248,-0.211 -0.372,-0.316 -0.718,-0.609 -1.807,-0.143 -1.888,0.805 z"
   style="fill:#000000;fill-rule:nonzero"
   id="path108" />
            </g>
        </g>
        <g
   transform="matrix(4.16667,0,0,4.16667,2503.12,0)"
   id="g112"
   style="fill:#000000">
            <g
   transform="translate(230.635,183.539)"
   id="g111"
   style="fill:#000000">
                <path
   d="m 0,-42.154 c -1.039,0.292 -1.164,2.038 -1.298,2.896 -0.258,1.644 -0.485,3.292 -0.725,4.939 -0.487,3.332 -0.88,6.677 -1.348,10.01 -0.246,1.762 -0.53,3.519 -0.754,5.285 -0.111,0.88 -0.206,1.759 -0.282,2.643 -0.057,0.68 -0.37,1.604 -0.151,2.269 0.071,0.218 0.218,0.398 0.362,0.573 0.918,1.119 2.092,1.681 3.209,2.562 1.446,1.14 2.89,2.28 4.336,3.418 0.178,0.14 0.356,0.281 0.533,0.42 0.022,0.017 0.11,0.088 0.133,0.106 0.089,0.069 0.176,0.138 0.265,0.207 0.365,0.288 0.728,0.575 1.093,0.861 0.717,0.563 1.434,1.128 2.152,1.692 1.435,1.127 2.868,2.254 4.304,3.38 0.679,0.532 1.233,1.206 1.649,0.054 0.549,-1.523 0.736,-3.01 0.995,-4.575 0.36,-2.167 0.723,-4.332 1.099,-6.496 0.51,-2.936 1.027,-5.87 1.585,-8.798 0.279,-1.462 0.56,-2.924 0.842,-4.386 0.259,-1.341 0.643,-2.734 0.063,-4.056 -0.402,-0.915 -1.569,-1.504 -2.327,-2.093 -2.704,-2.095 -5.427,-4.163 -8.174,-6.197 -1.374,-1.018 -2.714,-2.067 -4.022,-3.146 -0.028,-0.023 -0.057,-0.047 -0.085,-0.07 C 2.645,-41.326 1.115,-42.467 0,-42.154"
   style="fill:#000000;fill-rule:nonzero"
   id="path110" />
            </g>
        </g>
        <g
   transform="matrix(4.16667,0,0,4.16667,2503.12,0)"
   id="g114"
   style="fill:#000000">
            <g
   transform="translate(258.72,247.928)"
   id="g113"
   style="fill:#000000">
                <path
   d="m 0,-12.363 c -0.891,-0.434 -1.723,-1.034 -2.484,-1.636 -1.394,-1.103 -2.749,-2.262 -4.105,-3.415 -2.646,-2.253 -5.256,-4.553 -7.856,-6.864 -0.587,-0.52 -1.454,-1.292 -2.235,-1.987 -0.787,-0.701 -2.005,-0.227 -2.161,0.84 -0.261,1.776 -0.52,3.553 -0.777,5.33 -0.215,1.492 -0.428,2.983 -0.638,4.475 -0.11,0.777 -0.22,1.552 -0.329,2.328 -0.098,0.699 -0.623,4.06 -0.667,4.419 -0.088,0.717 -0.175,1.434 -0.261,2.151 -0.052,0.423 -0.106,0.845 -0.161,1.267 -0.216,1.616 0.344,3.237 1.501,4.33 3.317,3.132 6.633,6.265 9.95,9.397 1.786,1.686 3.538,3.427 5.377,5.051 0.202,0.178 0.412,0.356 0.555,0.466 0.212,0.165 0.427,0.323 0.648,0.472 l 0.011,0.007 c 0.501,0.335 1.164,0.018 1.249,-0.596 0.141,-1.029 0.304,-2.056 0.475,-3.082 C -1.144,5.273 -0.299,-0.03 0.532,-5.338 0.77,-6.864 1.01,-8.388 1.251,-9.913 1.411,-10.932 0.895,-11.928 0,-12.364 Z"
   style="fill:#000000;fill-rule:nonzero"
   id="path112" />
            </g>
        </g>
        <g
   transform="matrix(4.16667,0,0,4.16667,2503.12,0)"
   id="g116"
   style="fill:#000000">
            <g
   transform="translate(237.955,226.615)"
   id="g115"
   style="fill:#000000">
                <path
   d="m 0,-5.503 c 0.206,-1.378 -0.301,-2.763 -1.34,-3.675 -0.179,-0.156 -0.358,-0.312 -0.539,-0.467 -2.627,-2.259 -5.276,-4.494 -7.976,-6.663 -0.334,-0.269 -0.67,-0.537 -1.005,-0.803 -0.174,-0.139 -0.348,-0.276 -0.522,-0.413 -0.081,-0.064 -0.163,-0.128 -0.243,-0.192 -0.007,-0.005 -0.009,-0.006 -0.013,-0.01 -0.006,-0.005 -0.008,-0.007 -0.016,-0.013 -0.035,-0.027 -0.07,-0.054 -0.105,-0.081 -0.687,-0.538 -1.38,-1.072 -2.075,-1.6 -0.734,-0.559 -1.361,-1.072 -2.034,-1.594 l -0.012,-0.009 c -0.655,-0.508 -1.295,-0.248 -1.426,0.578 -0.127,0.803 -0.256,1.606 -0.387,2.409 -0.115,0.71 -0.232,1.421 -0.35,2.131 -0.063,0.378 -0.971,6.021 -1.161,7.326 -0.087,0.602 -0.171,1.205 -0.251,1.807 -0.005,0.037 -0.008,0.06 -0.009,0.073 0,0.011 -0.004,0.033 -0.01,0.076 -0.009,0.071 -0.018,0.142 -0.028,0.214 -0.02,0.159 -0.041,0.319 -0.061,0.478 -0.038,0.301 -0.075,0.603 -0.114,0.904 -0.148,1.15 -0.3,2.306 -0.275,3.467 0.006,0.292 0.025,0.583 0.054,0.874 0.002,0.013 0.003,0.021 0.003,0.032 0.011,0.075 0.023,0.148 0.036,0.222 0.026,0.142 0.055,0.285 0.088,0.426 0.067,0.281 0.153,0.557 0.25,0.829 0.02,0.056 0.042,0.111 0.063,0.166 0,0.002 0.002,0.004 0.003,0.006 0.048,0.109 0.099,0.216 0.151,0.322 0.126,0.252 0.267,0.493 0.42,0.73 0.064,0.099 0.131,0.197 0.198,0.293 0.043,0.061 0.085,0.12 0.129,0.179 0.004,0.006 0.013,0.017 0.021,0.028 0.32,0.41 0.683,0.788 1.052,1.153 0.819,0.812 1.687,1.577 2.536,2.357 0.943,0.864 1.884,1.729 2.827,2.593 2.46,2.258 4.921,4.517 7.382,6.774 0.657,0.604 1.714,0.222 1.843,-0.668 0.05,-0.349 0.103,-0.698 0.156,-1.047 0.126,-0.808 0.602,-4.497 0.665,-4.933 0.462,-3.283 0.936,-6.565 1.416,-9.845 0.216,-1.478 0.436,-2.958 0.657,-4.434 z"
   style="fill:#000000;fill-rule:nonzero"
   id="path114" />
            </g>
        </g>
        <g
   transform="matrix(4.16667,0,0,4.16667,2503.12,0)"
   id="g118"
   style="fill:#000000">
            <g
   transform="translate(264.969,229.181)"
   id="g117"
   style="fill:#000000">
                <path
   d="m 0,-23.599 c -0.079,0.495 -0.159,0.992 -0.238,1.488 -1.364,8.582 -2.746,17.162 -4.115,25.744 C -4.414,4.019 -4.804,4.25 -5.158,4.11 L -5.166,4.106 C -5.184,4.098 -5.207,4.091 -5.23,4.083 -5.234,4.081 -5.238,4.079 -5.245,4.075 -5.329,4.034 -5.415,3.994 -5.498,3.955 -5.679,3.864 -5.858,3.768 -6.032,3.665 -6.375,3.465 -6.707,3.244 -7.031,3.014 -7.188,2.902 -7.343,2.788 -7.497,2.671 -7.574,2.613 -7.649,2.554 -7.725,2.495 -7.743,2.48 -7.814,2.425 -7.869,2.382 -7.979,2.295 -8.09,2.208 -8.201,2.119 -8.415,1.945 -8.626,1.768 -8.84,1.593 -9.498,1.054 -10.152,0.514 -10.805,-0.03 c -2.61,-2.179 -5.183,-4.406 -7.744,-6.646 -1.293,-1.13 -2.583,-2.264 -3.872,-3.394 l -0.019,-0.015 c -1.099,-0.965 -1.658,-2.427 -1.504,-3.899 0.006,-0.069 0.015,-0.141 0.027,-0.211 0.113,-0.746 0.227,-1.492 0.341,-2.237 0.728,0.64 1.459,1.28 2.189,1.919 2.561,2.24 5.134,4.467 7.744,6.646 0.652,0.544 1.307,1.087 1.964,1.623 0.322,0.263 0.641,0.532 0.97,0.789 0.054,0.042 0.126,0.099 0.145,0.112 0.076,0.06 0.152,0.118 0.228,0.177 0.153,0.116 0.308,0.23 0.464,0.343 0.324,0.231 0.658,0.451 1,0.65 0.175,0.103 0.352,0.2 0.534,0.291 0.083,0.04 0.168,0.078 0.254,0.119 0.007,0.004 0.009,0.006 0.014,0.008 0.022,0.01 0.045,0.018 0.064,0.026 h 0.008 c 0.354,0.144 0.742,-0.089 0.803,-0.475 1.259,-7.883 2.528,-15.763 3.782,-23.645 0.127,0.099 0.255,0.198 0.382,0.299 0.674,0.53 1.334,1.092 2.038,1.584 l 0.011,0.008 c 0.746,0.521 1.129,1.443 0.982,2.36 z"
   style="fill:#000000;fill-rule:nonzero"
   id="path116" />
            </g>
        </g>
    </g>
</svg>
