<?xml version="1.0" encoding="UTF-8" standalone="no"?>
<!-- Generator: Adobe Illustrator 21.0.0, SVG Export Plug-In . SVG Version: 6.00 Build 0)  -->

<svg
   xmlns:dc="http://purl.org/dc/elements/1.1/"
   xmlns:cc="http://creativecommons.org/ns#"
   xmlns:rdf="http://www.w3.org/1999/02/22-rdf-syntax-ns#"
   xmlns:svg="http://www.w3.org/2000/svg"
   xmlns="http://www.w3.org/2000/svg"
   xmlns:sodipodi="http://sodipodi.sourceforge.net/DTD/sodipodi-0.dtd"
   xmlns:inkscape="http://www.inkscape.org/namespaces/inkscape"
   version="1.1"
   id="Layer_1"
   x="0px"
   y="0px"
   viewBox="0 0 233 55.900003"
   xml:space="preserve"
   sodipodi:docname="web_logo.svg"
   width="233"
   height="55.900002"
   inkscape:version="0.92.2 5c3e80d, 2017-08-06"><metadata
     id="metadata36"><rdf:RDF><cc:Work
         rdf:about=""><dc:format>image/svg+xml</dc:format><dc:type
           rdf:resource="http://purl.org/dc/dcmitype/StillImage" /><dc:title /></cc:Work></rdf:RDF></metadata><defs
     id="defs34"><linearGradient
       y2="101.5194"
       x2="103.0931"
       y1="39.459099"
       x1="41.0327"
       gradientUnits="userSpaceOnUse"
       id="SVGID_1_"><stop
         id="stop4"
         style="stop-color:#F29100"
         offset="0" /><stop
         id="stop6"
         style="stop-color:#E64011"
         offset="1" /></linearGradient></defs><sodipodi:namedview
     pagecolor="#ffffff"
     bordercolor="#666666"
     borderopacity="1"
     objecttolerance="10"
     gridtolerance="10"
     guidetolerance="10"
     inkscape:pageopacity="0"
     inkscape:pageshadow="2"
     inkscape:window-width="1264"
     inkscape:window-height="752"
     id="namedview32"
     showgrid="false"
     fit-margin-top="0"
     fit-margin-left="0"
     fit-margin-right="0"
     fit-margin-bottom="0"
     inkscape:zoom="1.1428571"
     inkscape:cx="211.50001"
     inkscape:cy="22.550002"
     inkscape:window-x="0"
     inkscape:window-y="0"
     inkscape:window-maximized="0"
     inkscape:current-layer="Layer_1" /><style
     type="text/css"
     id="style2">
	.st0{fill:url(#SVGID_1_);}
	.st1{fill:#FFFFFF;}
	.st2{fill:#626A6E;}
</style><path
     style="fill:url(#SVGID_1_)"
     inkscape:connector-curvature="0"
     id="path9"
     d="M 84.1,5.000002 H 10 c -2.8,0 -5,2.3 -5,5 v 35.9 c 0,2.8 2.3,5 5,5 h 74.1 c 2.8,0 5,-2.3 5,-5 v -35.9 c 0,-2.7 -2.2,-5 -5,-5 z"
     class="st0" /><g
     id="g13"
     transform="translate(-25,-42.499998)"><path
       style="fill:#ffffff"
       inkscape:connector-curvature="0"
       id="path11"
       d="M 56.6,78.9 H 47.4 V 73 H 55 c 0.8,0 1.5,-0.2 1.9,-0.7 0.5,-0.5 0.7,-1.1 0.7,-1.9 0,-0.8 -0.2,-1.5 -0.7,-2 -0.5,-0.5 -1.1,-0.8 -1.9,-0.8 h -7.5 v -5.5 h 8.7 c 0.8,0 1.4,-0.3 1.9,-0.8 0.5,-0.5 0.8,-1.2 0.8,-2 0,-0.8 -0.3,-1.5 -0.8,-2 -0.5,-0.5 -1.2,-0.7 -1.9,-0.7 H 44.3 c -0.9,0 -1.6,0.3 -2.2,0.8 -0.6,0.6 -0.8,1.3 -0.8,2.2 v 21.8 c 0,0.9 0.3,1.6 0.8,2.2 0.6,0.6 1.3,0.8 2.2,0.8 h 12.3 c 0.8,0 1.4,-0.3 1.9,-0.8 0.5,-0.5 0.8,-1.2 0.8,-2 0,-0.8 -0.3,-1.5 -0.8,-2 -0.4,-0.4 -1.1,-0.7 -1.9,-0.7 z m 18.9,-9.1 6.3,-9.5 C 82,60 82.1,59.5 82.1,59 c 0,-0.7 -0.3,-1.4 -0.8,-1.9 -0.5,-0.5 -1.2,-0.8 -2,-0.8 -1,0 -1.8,0.5 -2.4,1.5 l -4.6,7 -4.5,-7 c -0.6,-1 -1.5,-1.5 -2.6,-1.5 -0.8,0 -1.5,0.3 -2.1,0.8 -0.6,0.6 -0.8,1.3 -0.8,2.1 0,0.6 0.1,1 0.4,1.4 l 5.9,9.2 -6.8,10.7 c -0.2,0.4 -0.3,0.8 -0.3,1.3 0,0.7 0.3,1.4 0.8,1.9 0.5,0.5 1.2,0.8 2,0.8 1,0 1.8,-0.5 2.4,-1.5 l 5,-8.5 5.3,8.5 c 0.7,1.1 1.6,1.7 2.7,1.7 0.8,0 1.5,-0.3 2.1,-0.8 0.6,-0.6 0.8,-1.3 0.8,-2.1 0,-0.6 -0.1,-1 -0.4,-1.4 z M 102,57.4 c -0.6,-0.6 -1.3,-0.8 -2.2,-0.8 H 87.9 c -0.8,0 -1.4,0.2 -1.9,0.7 -0.5,0.5 -0.8,1.2 -0.8,2 0,0.8 0.3,1.5 0.8,2 0.5,0.5 1.2,0.8 1.9,0.8 h 8.7 v 5.5 h -7.5 c -0.8,0 -1.4,0.3 -1.9,0.8 -0.5,0.5 -0.7,1.2 -0.7,2 0,0.8 0.2,1.4 0.7,1.9 0.5,0.5 1.1,0.7 1.9,0.7 h 7.5 v 5.9 h -9.2 c -0.8,0 -1.4,0.3 -1.9,0.8 -0.5,0.5 -0.8,1.2 -0.8,2 0,0.8 0.3,1.5 0.8,2 0.5,0.5 1.2,0.8 1.9,0.8 h 12.3 c 0.9,0 1.6,-0.3 2.2,-0.8 0.6,-0.6 0.8,-1.3 0.8,-2.2 V 59.6 c 0.1,-0.9 -0.2,-1.7 -0.7,-2.2 z"
       class="st1" /></g><g
     id="g27"
     transform="translate(-25,-42.499998)"
     style="fill:#ffffff;fill-opacity:1"><path
       style="fill:#ffffff;fill-opacity:1"
       inkscape:connector-curvature="0"
       id="path15"
       d="M 131.8,59.6 V 79 h 7.8 c 0.8,0 1.4,0.3 1.9,0.8 0.5,0.5 0.8,1.2 0.8,2 0,0.8 -0.3,1.5 -0.8,2 -0.5,0.5 -1.2,0.8 -1.9,0.8 h -10.9 c -0.9,0 -1.6,-0.3 -2.2,-0.8 -0.6,-0.5 -0.8,-1.3 -0.8,-2.2 v -22 c 0,-0.9 0.3,-1.6 0.8,-2.2 0.6,-0.5 1.3,-0.8 2.2,-0.8 0.9,0 1.6,0.3 2.2,0.8 0.6,0.5 0.9,1.3 0.9,2.2 z"
       class="st2" /><path
       style="fill:#ffffff;fill-opacity:1"
       inkscape:connector-curvature="0"
       id="path17"
       d="m 163.8,65.8 v 9.7 c 0,2.9 -0.9,5.2 -2.8,6.9 -1.8,1.7 -4.3,2.6 -7.3,2.6 -3,0 -5.4,-0.9 -7.3,-2.6 -1.8,-1.7 -2.8,-4 -2.8,-6.9 v -9.7 c 0,-2.9 0.9,-5.2 2.6,-6.9 1.7,-1.7 4.2,-2.5 7.4,-2.5 3,0 5.4,0.9 7.3,2.6 2,1.6 2.9,3.9 2.9,6.8 z m -13.9,0.1 v 9.5 c 0,1.2 0.4,2.2 1.1,3 0.7,0.7 1.7,1.1 2.9,1.1 1.2,0 2.2,-0.4 2.9,-1.1 0.7,-0.7 1.1,-1.7 1.1,-3 v -9.5 c 0,-1.2 -0.4,-2.2 -1.1,-3 -0.7,-0.7 -1.7,-1.1 -2.9,-1.1 -1.2,0 -2.2,0.4 -2.9,1.1 -0.8,0.8 -1.1,1.8 -1.1,3 z"
       class="st2" /><path
       style="fill:#ffffff;fill-opacity:1"
       inkscape:connector-curvature="0"
       id="path19"
       d="m 181.1,57.4 c 0.6,-0.5 1.3,-0.8 2.2,-0.8 0.9,0 1.6,0.3 2.2,0.8 0.6,0.5 0.9,1.3 0.9,2.2 v 16 c 0,2.9 -0.9,5.2 -2.7,6.9 -1.8,1.7 -4.1,2.6 -7.1,2.6 -2.9,0 -5.3,-0.9 -7.1,-2.6 -1.8,-1.7 -2.7,-4 -2.7,-6.9 v -16 c 0,-0.9 0.3,-1.6 0.8,-2.2 0.6,-0.5 1.3,-0.8 2.2,-0.8 0.9,0 1.6,0.3 2.2,0.8 0.6,0.5 0.9,1.3 0.9,2.2 v 15.8 c 0,1.2 0.3,2.2 1,3 0.6,0.7 1.5,1.1 2.7,1.1 1.1,0 2,-0.4 2.7,-1.1 0.6,-0.7 1,-1.7 1,-3 V 59.6 c -0.1,-0.9 0.2,-1.7 0.8,-2.2 z"
       class="st2" /><path
       style="fill:#ffffff;fill-opacity:1"
       inkscape:connector-curvature="0"
       id="path21"
       d="m 209.1,59.3 v 22.4 c 0,0.9 -0.3,1.6 -0.8,2.2 -0.5,0.5 -1.3,0.8 -2.2,0.8 -1.3,0 -2.3,-0.6 -2.9,-1.7 l -8,-14.3 V 82 c 0,0.8 -0.3,1.4 -0.8,1.9 -0.5,0.5 -1.2,0.8 -2,0.8 -0.8,0 -1.5,-0.3 -2,-0.8 -0.5,-0.5 -0.8,-1.2 -0.8,-1.9 V 59.6 c 0,-0.9 0.3,-1.6 0.9,-2.2 0.6,-0.5 1.3,-0.8 2.2,-0.8 1.4,0 2.4,0.6 3.1,1.9 l 7.7,13.7 V 59.3 c 0,-0.8 0.3,-1.4 0.8,-1.9 0.5,-0.5 1.2,-0.8 2,-0.8 0.8,0 1.5,0.3 2,0.8 0.5,0.4 0.8,1.1 0.8,1.9 z"
       class="st2" /><path
       style="fill:#ffffff;fill-opacity:1"
       inkscape:connector-curvature="0"
       id="path23"
       d="m 223,74.3 c -0.4,-0.5 -0.6,-1 -0.6,-1.7 0,-0.7 0.2,-1.3 0.6,-1.7 0.4,-0.4 1,-0.6 1.7,-0.6 h 4.9 c 0.7,0 1.3,0.2 1.7,0.6 0.4,0.4 0.6,1 0.6,1.7 v 3 c 0,2.9 -0.9,5.2 -2.7,6.9 -1.8,1.7 -4.1,2.6 -7,2.6 -3,0 -5.4,-0.9 -7.2,-2.6 -1.8,-1.7 -2.7,-4 -2.7,-6.9 v -9.7 c 0,-2.9 0.9,-5.2 2.7,-6.9 1.8,-1.7 4.2,-2.5 7.4,-2.5 2.4,0 4.5,0.6 6.1,1.8 1.7,1.2 2.7,2.8 3.2,4.9 0.2,0.9 0.1,1.8 -0.5,2.5 -0.5,0.7 -1.3,1.1 -2.3,1.1 -0.7,0 -1.3,-0.2 -1.9,-0.5 -0.5,-0.4 -0.9,-0.8 -1,-1.4 -0.5,-1.9 -1.7,-2.8 -3.7,-2.8 -1.2,0 -2.2,0.4 -2.8,1.1 -0.7,0.7 -1,1.7 -1,3 v 9.5 c 0,1.2 0.3,2.2 1,3 0.7,0.7 1.6,1.1 2.8,1.1 1.3,0 2.3,-0.4 3,-1.1 0.7,-0.7 1.1,-1.7 1.1,-3 v -0.5 h -1.5 C 224,74.9 223.4,74.7 223,74.3 Z"
       class="st2" /><path
       style="fill:#ffffff;fill-opacity:1"
       inkscape:connector-curvature="0"
       id="path25"
       d="m 248.7,73.2 h -7.5 V 79 h 9.1 c 0.8,0 1.4,0.3 1.9,0.8 0.5,0.5 0.8,1.2 0.8,2 0,0.8 -0.3,1.5 -0.8,2 -0.5,0.5 -1.2,0.8 -1.9,0.8 h -12.2 c -0.9,0 -1.6,-0.3 -2.2,-0.8 -0.5,-0.5 -0.8,-1.3 -0.8,-2.2 V 59.8 c 0,-0.9 0.3,-1.6 0.8,-2.2 0.5,-0.5 1.3,-0.8 2.2,-0.8 h 11.8 c 0.8,0 1.4,0.2 1.9,0.7 0.5,0.5 0.8,1.1 0.8,2 0,0.9 -0.3,1.5 -0.8,2 -0.5,0.5 -1.2,0.8 -1.9,0.8 h -8.7 v 5.5 h 7.5 c 0.8,0 1.4,0.3 1.9,0.8 0.5,0.5 0.7,1.2 0.7,2 0,0.8 -0.2,1.4 -0.7,1.9 -0.4,0.4 -1.1,0.7 -1.9,0.7 z"
       class="st2" /></g></svg>