<svg xmlns="http://www.w3.org/2000/svg" viewBox="0 0 219.89 59.36"><defs><style>.cls-1{fill:#fff;}</style></defs><title>Asset 9</title><g id="Layer_2" data-name="Layer 2"><g id="Layer_1-2" data-name="Layer 1"><path class="cls-1" d="M10.27,49.08c2.78.5,8.83,1.28,19.41,1.28s16.66-.78,19.41-1.27c.49-2.75,1.27-8.76,1.27-19.41a114.51,114.51,0,0,0-1.29-19.41C46.33,9.78,40.32,9,29.68,9a114.35,114.35,0,0,0-19.4,1.29C9.78,13.06,9,19.13,9,29.68S9.78,46.34,10.27,49.08Z"/><path d="M29.68,56.36c-11.35,0-17.86-.89-20.72-1.42a5.62,5.62,0,0,1-4.54-4.53C3.89,47.57,3,41.11,3,29.68S3.89,11.84,4.42,9A5.63,5.63,0,0,1,9,4.42C11.88,3.89,18.43,3,29.68,3c11.43,0,17.89.89,20.72,1.41A5.65,5.65,0,0,1,54.94,9c.53,2.9,1.42,9.46,1.42,20.71,0,11.44-.89,17.9-1.42,20.74h0a5.62,5.62,0,0,1-4.52,4.52C47.58,55.47,41.12,56.36,29.68,56.36ZM10.27,49.08c2.78.5,8.83,1.28,19.41,1.28s16.66-.78,19.41-1.27c.49-2.75,1.27-8.76,1.27-19.41a114.51,114.51,0,0,0-1.29-19.41C46.33,9.78,40.32,9,29.68,9a114.35,114.35,0,0,0-19.4,1.29C9.78,13.06,9,19.13,9,29.68S9.78,46.34,10.27,49.08Zm38.78.23Z"/><path class="cls-1" d="M29.68,3c11.43,0,17.89.89,20.72,1.41A5.65,5.65,0,0,1,54.94,9c.53,2.9,1.42,9.46,1.42,20.71,0,11.44-.89,17.9-1.42,20.74h0a5.62,5.62,0,0,1-4.52,4.52c-2.84.53-9.3,1.42-20.74,1.42S11.82,55.47,9,54.94a5.62,5.62,0,0,1-4.54-4.53C3.89,47.57,3,41.11,3,29.68S3.89,11.84,4.42,9A5.63,5.63,0,0,1,9,4.42C11.88,3.89,18.43,3,29.68,3m0,47.36c10.65,0,16.66-.78,19.41-1.27.49-2.75,1.27-8.76,1.27-19.41a114.51,114.51,0,0,0-1.29-19.41C46.33,9.78,40.32,9,29.68,9a114.35,114.35,0,0,0-19.4,1.29C9.78,13.06,9,19.13,9,29.68s.78,16.66,1.27,19.4c2.78.5,8.83,1.28,19.41,1.28m19.37-1h0M29.68,0C18.2,0,11.44.92,8.43,1.47a8.6,8.6,0,0,0-7,7C.92,11.4,0,18.11,0,29.68S.92,48,1.47,51a8.61,8.61,0,0,0,6.94,6.93c3,.55,9.68,1.47,21.27,1.47S48,58.44,51,57.89A8.6,8.6,0,0,0,57.89,51c.55-2.94,1.47-9.62,1.47-21.29,0-11.48-.92-18.24-1.47-21.25a8.62,8.62,0,0,0-6.94-7C48,.92,41.35,0,29.68,0ZM12.91,12.91A128.29,128.29,0,0,1,29.68,12a126.89,126.89,0,0,1,16.76.9,126,126,0,0,1,.92,16.78,127.14,127.14,0,0,1-.9,16.78,127.14,127.14,0,0,1-16.78.9,127.36,127.36,0,0,1-16.78-.91A127.08,127.08,0,0,1,12,29.68a127.54,127.54,0,0,1,.91-16.77Z"/><rect x="31.81" y="16.44" width="11.34" height="5"/><rect x="31.81" y="25.19" width="11.34" height="5"/><path d="M29.84,44.16a16.46,16.46,0,0,1-11.7-4.84l3.54-3.54a11.54,11.54,0,0,0,16.32,0l3.54,3.54A16.46,16.46,0,0,1,29.84,44.16Z"/><polygon points="20.11 30.94 16.58 27.4 20.66 23.31 16.58 19.23 20.11 15.69 27.73 23.31 20.11 30.94"/><path d="M125.64,33.08c0,2.48-1,4.06-3.34,4.06s-3.34-1.53-3.34-4V17.39h-6.39V33.18c0,2.43-1.1,4-3.34,4s-3.34-1.58-3.34-4.06V17.39h-6.4v16c0,6.06,2.68,9.83,9.64,9.83a8.35,8.35,0,0,0,6.54-2.53c1.48,1.72,3.67,2.53,6.68,2.53,6.44,0,9.68-3.77,9.68-9.83v-16h-6.39Z"/><path d="M87.37,37.63c-2.42,0-3-1.59-3-3.36h-6c-.14,4.34,2,8.39,8.9,8.39,4.89,0,9.09-2.66,9.09-7.74,0-4.52-2-6.47-6-7.68-1.26-.38-2.28-.56-3.4-.89-1.49-.42-2.19-1.12-2.19-2.33s1-2.1,2.47-2.1c1.91,0,2.8,1.12,2.84,3h5.74c0-5.22-3.18-7.87-8.44-7.87-5,0-8.53,3.07-8.53,7.26a7.14,7.14,0,0,0,5.17,7.37c1.36.51,2.43.74,3.78,1.12,1.72.46,2.47,1.11,2.47,2.56S89,37.63,87.37,37.63Z"/><path d="M176.43,42.83a4,4,0,1,0-4-4A3.92,3.92,0,0,0,176.43,42.83Z"/><path d="M187.12,20a3.91,3.91,0,0,0,4-4,4,4,0,1,0-7.92,0A3.94,3.94,0,0,0,187.12,20Z"/><rect x="184" y="22.6" width="6.25" height="19.71"/><path d="M206.84,42.74a12.58,12.58,0,0,0,13-12.91c0-7.37-5.18-12.86-13-12.86a12.62,12.62,0,0,0-13,13C193.84,37.28,199.06,42.74,206.84,42.74Zm0-20.14c4,0,6.8,3.13,6.8,7.27s-2.65,7.22-6.75,7.22-6.81-3-6.81-7.22S202.74,22.6,206.84,22.6Z"/><path d="M164.7,17.41h4.83v5.28H164.7V34.32c0,1.87.61,2.66,2.38,2.66h2.45v5.33a38.48,38.48,0,0,1-4.41.33c-4.72,0-6.68-2.39-6.68-6.54V12.48h6.26Z"/><path d="M144.73,17.1c-4.44,0-7.37,1.94-8.39,5.06l5,1.68,0-.1c.32-1,1.36-1.7,3.14-1.7C147,22,148,23.58,148,25.72V27a8.64,8.64,0,0,0-4.43-1c-5.17,0-8.57,3.55-8.57,8.21,0,5.17,3.68,8.48,8.66,8.48a7.1,7.1,0,0,0,5.27-1.92v1.59h5.22V26.61C154.14,21.06,151.9,17.1,144.73,17.1Zm-.24,20.6a3.57,3.57,0,1,1,3.59-3.59A3.47,3.47,0,0,1,144.49,37.7Z"/></g></g></svg>